<?xml version="1.0" encoding="UTF-8"?>
<!-- Generator: visioncortex VTracer -->
<svg id="svg" version="1.1" xmlns="http://www.w3.org/2000/svg" style="display: block;" viewBox="0 0 137 283"><path d="M0 0 C45.21 0 90.42 0 137 0 C137 93.39 137 186.78 137 283 C91.79 283 46.58 283 0 283 C0 189.61 0 96.22 0 0 Z " transform="translate(0,0)" style="fill: none;"/><path d="M0 0 C4.17840669 7.80753927 8.03945304 17.19171259 6.4609375 26.08203125 C5.81239543 30.18763234 5.68328232 34.28858187 5.5 38.4375 C5.16629489 45.3137053 4.69502291 52.14905988 4 59 C6.64 55.37 9.28 51.74 12 48 C12 51.45619606 11.36893064 52.30259401 9.47265625 55.10546875 C8.93213623 55.91580566 8.39161621 56.72614258 7.8347168 57.56103516 C7.24988525 58.42776855 6.66505371 59.29450195 6.0625 60.1875 C-11.47230902 86.34221241 -11.47230902 86.34221241 -21 116 C-20.67 116.66 -20.34 117.32 -20 118 C-20.74833947 120.04546123 -21.57444379 122.06273562 -22.4375 124.0625 C-24.75171145 129.81296482 -25.40200139 133.86947874 -25 140 C-25.495 140.99 -25.495 140.99 -26 142 C-26.09629649 143.71662123 -26.13075026 145.43693118 -26.1328125 147.15625 C-26.13410156 148.17847656 -26.13539062 149.20070312 -26.13671875 150.25390625 C-26.13285156 151.32511719 -26.12898438 152.39632812 -26.125 153.5 C-26.12886719 154.57121094 -26.13273437 155.64242187 -26.13671875 156.74609375 C-26.13542969 157.76832031 -26.13414063 158.79054687 -26.1328125 159.84375 C-26.13168457 160.78412109 -26.13055664 161.72449219 -26.12939453 162.69335938 C-26.15132401 165.02769872 -26.15132401 165.02769872 -25 167 C-24.86798654 168.39347545 -24.76941967 169.79018452 -24.6875 171.1875 C-23.72883747 181.70235408 -20.12066617 191.95240058 -17 202 C-16.67 202 -16.34 202 -16 202 C-15.76216797 200.40671875 -15.76216797 200.40671875 -15.51953125 198.78125 C-13.17898309 184.21477971 -13.17898309 184.21477971 -8 178 C-7.01 178 -6.02 178 -5 178 C-5.62777344 178.69996094 -6.25554687 179.39992187 -6.90234375 180.12109375 C-9.16533801 183.22691641 -9.82572452 185.32301692 -10.5625 189.0625 C-11.91070082 195.70301711 -11.91070082 195.70301711 -12.76831055 198.55517578 C-15.24519324 207.07795298 -15.17171426 214.95149836 -14.6875 223.75 C-14.62404225 225.14055252 -14.56218397 226.53117898 -14.50195312 227.921875 C-14.35026667 231.28231334 -14.1826587 234.64112724 -14 238 C-13.67725098 237.42967041 -13.35450195 236.85934082 -13.02197266 236.27172852 C-11.56185182 233.69879714 -10.09355086 231.13062832 -8.625 228.5625 C-7.86316406 227.21575195 -7.86316406 227.21575195 -7.0859375 225.84179688 C-6.59609375 224.98779297 -6.10625 224.13378906 -5.6015625 223.25390625 C-5.15119629 222.46314697 -4.70083008 221.6723877 -4.23681641 220.85766602 C-3 219 -3 219 -1 218 C-0.01 218.99 -0.01 218.99 1 220 C-0.07314453 220.95712891 -0.07314453 220.95712891 -1.16796875 221.93359375 C-8.04185948 228.83658032 -14.63618053 240.82387899 -14.75 250.625 C-14.34884524 254.84302428 -13.50429622 258.98424 -12.4453125 263.0859375 C-11.9017805 265.42217152 -11.84589082 267.61130764 -12 270 C-12.66 270 -13.32 270 -14 270 C-14.37310283 268.34078977 -14.74569102 266.68146293 -15.11645508 265.02172852 C-15.46275202 263.47478034 -15.81165117 261.92841291 -16.1628418 260.38256836 C-17.31606524 255.25544554 -18.37145414 250.11945187 -19.35546875 244.95703125 C-19.5963623 243.7359668 -19.83725586 242.51490234 -20.08544922 241.25683594 C-20.55996773 238.84568278 -21.01685945 236.43097434 -21.45361328 234.01269531 C-23.58075174 223.40255875 -28.13799715 215.38551783 -36 208 C-36 207.34 -36 206.68 -36 206 C-35.34 206 -34.68 206 -34 206 C-32.37643654 207.96937661 -30.86440434 209.93345148 -29.375 212 C-28.95476563 212.57234375 -28.53453125 213.1446875 -28.1015625 213.734375 C-27.06194199 215.15203933 -26.03022409 216.57549262 -25 218 C-25.11593506 217.17910889 -25.23187012 216.35821777 -25.35131836 215.51245117 C-25.78769876 212.41329984 -26.22164885 209.31381978 -26.65405273 206.21411133 C-26.93095695 204.23428194 -27.21056306 202.25483103 -27.49023438 200.27539062 C-29.2893318 187.35460001 -30.23888086 174.61170406 -30.61254883 161.58178711 C-30.68807924 159.04303037 -30.77858438 156.50505658 -30.86914062 153.96679688 C-30.91758733 152.34377722 -30.96514585 150.72073075 -31.01171875 149.09765625 C-31.04077805 148.34347916 -31.06983734 147.58930206 -31.09977722 146.81227112 C-31.19328424 142.92190676 -30.98375279 140.34345833 -29 137 C-21.8166863 114.05389513 -21.8166863 114.05389513 -25.3515625 91.10546875 C-26.23254067 88.24494323 -26.00915524 85.73318886 -25.875 82.75 C-25.69458867 76.5438501 -27.13188539 72.20794141 -29.80859375 66.65625 C-31.8024852 62.21085267 -32.12351683 58.09764779 -32.09765625 53.26171875 C-32.09443359 52.19501953 -32.09121094 51.12832031 -32.08789062 50.02929688 C-32.07951172 48.92650391 -32.07113281 47.82371094 -32.0625 46.6875 C-32.05798828 45.56537109 -32.05347656 44.44324219 -32.04882812 43.28710938 C-32.03707313 40.5246849 -32.02064077 37.76237002 -32 35 C-31.67 35 -31.34 35 -31 35 C-30.67 38.3 -30.34 41.6 -30 45 C-29.34 45 -28.68 45 -28 45 C-27.93941406 44.10796875 -27.87882812 43.2159375 -27.81640625 42.296875 C-27.73261719 41.12640625 -27.64882813 39.9559375 -27.5625 38.75 C-27.48128906 37.58984375 -27.40007813 36.4296875 -27.31640625 35.234375 C-27 32 -27 32 -26.46875 29.96875 C-25.81171225 27.20919143 -25.90672945 24.5808905 -25.9375 21.75 C-25.95103516 20.13351563 -25.95103516 20.13351563 -25.96484375 18.484375 C-25.97644531 17.66453125 -25.98804688 16.8446875 -26 16 C-22.85894346 20.7115848 -22.75797334 24.75307968 -22.6875 30.25 C-22.65849609 30.98863281 -22.62949219 31.72726563 -22.59960938 32.48828125 C-22.53431514 38.18394726 -23.87831848 41.25087413 -27 46 C-29.96255712 51.06379571 -29.71276939 56.28386904 -29 62 C-27.95236153 64.65855416 -27.95236153 64.65855416 -26.5625 67.1875 C-23.68879095 72.74977717 -23.48186553 77.57899081 -23.31494141 83.70361328 C-23.12120128 89.80299217 -21.9025603 95.20022598 -20 101 C-19.73896484 100.49774902 -19.47792969 99.99549805 -19.20898438 99.47802734 C-17.9755194 97.10884571 -16.73840221 94.74160476 -15.5 92.375 C-14.82312134 91.08070068 -14.82312134 91.08070068 -14.13256836 89.76025391 C-11.70876964 85.15337181 -9.22827142 80.59987288 -6.58642578 76.11450195 C0.01896738 64.8928934 1.9099359 54.83344371 3 42 C3.10957031 40.86175781 3.21914062 39.72351562 3.33203125 38.55078125 C3.70623719 31.75415715 2.42803318 28.5021568 -1.65625 23.13671875 C-5.2954347 17.34999192 -2.71574905 9.48399495 -1.53515625 3.1875 C-1 1 -1 1 0 0 Z " transform="translate(79,4)" style="fill: #676767;"/><path d="M0 0 C-4.70554235 15.60369015 -12.48687878 30.11347053 -25.125 40.6171875 C-31.31844709 45.82748875 -35.05256722 49.64848317 -36.44140625 57.94921875 C-37.98287527 66.36801108 -42.27088796 73.97389068 -47 81 C-43.93605085 79.94346581 -43.06946254 79.12225408 -41.4375 76.25 C-40.963125 75.1775 -40.48875 74.105 -40 73 C-37.47945205 67.30136986 -37.47945205 67.30136986 -34.8125 65.625 C-33.9153125 65.315625 -33.9153125 65.315625 -33 65 C-33.45261358 66.43931117 -33.91232979 67.87638999 -34.375 69.3125 C-34.75785156 70.51326172 -34.75785156 70.51326172 -35.1484375 71.73828125 C-36 74 -36 74 -38 77 C-37.34 77.33 -36.68 77.66 -36 78 C-41.22724715 81.12646224 -46.2226133 83.5266955 -52.046875 85.30859375 C-54.40279338 86.14258886 -56.15798338 87.31815874 -58 89 C-58.66 88.67 -59.32 88.34 -60 88 C-59.34773438 87.5153125 -58.69546875 87.030625 -58.0234375 86.53125 C-47.46665529 78.43460288 -40.84383582 69.25882212 -38 56 C-37.91415595 54.62948973 -37.86892633 53.2559754 -37.859375 51.8828125 C-37.84003906 51.11066406 -37.82070312 50.33851563 -37.80078125 49.54296875 C-37.76709641 47.93905219 -37.74871083 46.33473685 -37.74609375 44.73046875 C-37.55677246 38.74193727 -36.31633746 36.18221398 -32 32 C-31.15566406 31.34902344 -30.31132813 30.69804688 -29.44140625 30.02734375 C-26.4464781 27.54035542 -24.89007086 24.92030077 -22.9375 21.5625 C-18.84454524 14.56800503 -14.80374847 9.53058618 -8.375 4.6875 C-7.78976563 4.23310547 -7.20453125 3.77871094 -6.6015625 3.31054688 C-2.26051457 0 -2.26051457 0 0 0 Z " transform="translate(134,92)" style="fill: #7A7A7A;"/><path d="M0 0 C0 3 0 3 -1.3125 5.5625 C-2.69741105 8.3836151 -3.52883318 10.70615417 -4.33984375 13.69921875 C-5.78124132 18.59499248 -7.77210173 22.80671475 -10.25 27.25 C-13.49692233 33.22465735 -16.64237071 39.23628062 -19.640625 45.33984375 C-19.9551915 45.97977264 -20.269758 46.61970154 -20.59385681 47.27902222 C-20.9114949 47.92525543 -21.229133 48.57148865 -21.55639648 49.23730469 C-27.45170855 61.22936698 -33.4989072 72.91267046 -41 84 C-42.03060547 85.65515625 -42.03060547 85.65515625 -43.08203125 87.34375 C-45 90 -45 90 -48 91 C-44.3212196 68.51856421 -30.13431746 46.63876482 -17.0625 28.4375 C-14.43890649 24.77057047 -12.71780234 21.18247525 -11 17 C-3.36363636 3.36363636 -3.36363636 3.36363636 0 0 Z " transform="translate(105,30)" style="fill: #F1F1F1;"/><path d="M0 0 C0.66 0 1.32 0 2 0 C2.27972656 0.53367188 2.55945313 1.06734375 2.84765625 1.6171875 C5.73232161 6.97839837 8.95704834 11.91943577 12.546875 16.8359375 C15.71628198 21.55596832 15.46803186 26.51622673 15 32 C14.55294814 33.68164277 14.05259785 35.35002624 13.5 37 C9.57960981 48.98519286 13.43683308 60.70072952 18 72 C19.2039337 68.24600202 19.09877617 64.66782588 19.0625 60.75 C19.05347656 59.48671875 19.04445313 58.2234375 19.03515625 56.921875 C19.02355469 55.95765625 19.01195313 54.9934375 19 54 C20.8871875 54.185625 20.8871875 54.185625 22.8125 54.375 C23.52019531 54.44460937 24.22789063 54.51421875 24.95703125 54.5859375 C27 55 27 55 30 57 C28.89242378 59.91997367 28.22186415 60.87553962 25.4375 62.4375 C22.74569715 63.79062712 22.74569715 63.79062712 22.1875 66.6875 C22.0946875 67.8321875 22.0946875 67.8321875 22 69 C23.485 68.01 23.485 68.01 25 67 C26.485 67.495 26.485 67.495 28 68 C26.7260411 70.03833424 25.38938077 72.03852126 24 74 C23.34 74 22.68 74 22 74 C22 74.66 22 75.32 22 76 C21.34 76 20.68 76 20 76 C19.48354933 83.52870315 19.09574841 89.29403548 23.90625 95.4140625 C25 97 25 97 25 100 C18.22785118 92.67875804 16.88381043 85.79816694 15.91162109 76.12744141 C15.39560258 71.65493624 14.39512998 68.10597464 12.4375 64 C9.52981345 57.82961866 9.44021186 52.37482747 9.43359375 45.6640625 C8.92794613 41.39111232 7.3970657 39.50518699 5 36 C4.390625 32.5703125 4.390625 32.5703125 4.25 29.125 C4.19328125 27.97257812 4.1365625 26.82015625 4.078125 25.6328125 C4.05234375 24.76398438 4.0265625 23.89515625 4 23 C4.66 23.33 5.32 23.66 6 24 C6.37890625 26.21484375 6.37890625 26.21484375 6.5625 28.9375 C6.76801323 32.60675121 6.76801323 32.60675121 8 36 C8 33.36 8 30.72 8 28 C8.66 28.99 9.32 29.98 10 31 C10.30134187 25.87718825 9.80136642 23.26294889 7 19 C7.33 18.34 7.66 17.68 8 17 C10.475 20.96 10.475 20.96 13 25 C11.64737628 20.25869791 9.66645646 16.67711421 6.875 12.625 C5.78832031 11.03558594 5.78832031 11.03558594 4.6796875 9.4140625 C4.12539063 8.61742187 3.57109375 7.82078125 3 7 C3.33 8.98 3.66 10.96 4 13 C2 11 0 9 -2 7 C-1.34 4.69 -0.68 2.38 0 0 Z " transform="translate(22,45)" style="fill: #797979;"/><path d="M0 0 C0.95353893 26.33601162 0.95353893 26.33601162 -6.75 35.3125 C-10.67567181 40.32528092 -9.52766417 47.00627628 -9 53 C-8.41985521 56.82895558 -7.74656362 60.50687277 -6 64 C-2.50938681 58.94462917 0.42267095 54.20106699 2 48.1875 C2.33 47.135625 2.66 46.08375 3 45 C4.485 44.505 4.485 44.505 6 44 C6 47.96 6 51.92 6 56 C5.01 56.495 5.01 56.495 4 57 C4 54.03 4 51.06 4 48 C3.67 49.258125 3.34 50.51625 3 51.8125 C2.814375 52.52019531 2.62875 53.22789062 2.4375 53.95703125 C1.8952993 56.14070009 1.8952993 56.14070009 2 59 C1.154375 59.53625 0.30875 60.0725 -0.5625 60.625 C-3.11225533 62.6670847 -3.11225533 62.6670847 -3.390625 64.87109375 C-3.01073546 75.52699542 6.35121791 83.68285933 13.31787109 90.94067383 C15.72752526 93.47171789 17.66340162 95.75068324 19 99 C3.78611489 86.37571236 -9.5470207 71.42025622 -12 51 C-12.10957031 50.10152344 -12.21914062 49.20304687 -12.33203125 48.27734375 C-12.64417416 45.18504796 -12.83568953 42.10364212 -13 39 C-13.08894531 37.75992188 -13.17789062 36.51984375 -13.26953125 35.2421875 C-13.70835143 24.81255447 -11.65476735 16.36982961 -7 7 C-6.34 6.67 -5.68 6.34 -5 6 C-5.43557916 7.47973345 -5.87360096 8.95874785 -6.3125 10.4375 C-6.580625 11.35402344 -6.84875 12.27054688 -7.125 13.21484375 C-8 16 -8 16 -8.9375 18.31640625 C-11.37048239 24.38800069 -10.80752226 28.77120027 -9 35 C-2.89743287 25.41025165 -2.31529485 17.94260261 -3 7 C-3 0 -3 0 0 0 Z " transform="translate(22,109)" style="fill: #787878;"/><path d="M0 0 C0.99 0.33 1.98 0.66 3 1 C3.75195312 2.69897461 3.75195312 2.69897461 4.28125 4.90234375 C4.48210205 5.70631592 4.6829541 6.51028809 4.88989258 7.33862305 C5.09122803 8.19625244 5.29256348 9.05388184 5.5 9.9375 C5.9297402 11.67218499 6.36071987 13.40656342 6.79296875 15.140625 C6.99841309 15.97787109 7.20385742 16.81511719 7.41552734 17.67773438 C8.46122534 21.8325712 9.72625027 25.91059296 11 30 C11.33 30 11.66 30 12 30 C12.15855469 28.9378125 12.31710938 27.875625 12.48046875 26.78125 C14.82101691 12.21477971 14.82101691 12.21477971 20 6 C20.99 6 21.98 6 23 6 C22.37222656 6.69996094 21.74445313 7.39992187 21.09765625 8.12109375 C18.83466199 11.22691641 18.17427548 13.32301692 17.4375 17.0625 C16.08929918 23.70301711 16.08929918 23.70301711 15.23168945 26.55517578 C12.75480676 35.07795298 12.82828574 42.95149836 13.3125 51.75 C13.37595775 53.14055252 13.43781603 54.53117898 13.49804688 55.921875 C13.64973333 59.28231334 13.8173413 62.64112724 14 66 C14.48412354 65.14450562 14.48412354 65.14450562 14.97802734 64.27172852 C16.43814818 61.69879714 17.90644914 59.13062832 19.375 56.5625 C19.88289063 55.66466797 20.39078125 54.76683594 20.9140625 53.84179688 C21.40390625 52.98779297 21.89375 52.13378906 22.3984375 51.25390625 C22.84880371 50.46314697 23.29916992 49.6723877 23.76318359 48.85766602 C25 47 25 47 27 46 C27.66 46.66 28.32 47.32 29 48 C28.28457031 48.63808594 27.56914063 49.27617187 26.83203125 49.93359375 C19.95814052 56.83658032 13.36381947 68.82387899 13.25 78.625 C13.65115476 82.84302428 14.49570378 86.98424 15.5546875 91.0859375 C16.0982195 93.42217152 16.15410918 95.61130764 16 98 C15.34 98 14.68 98 14 98 C11.89490864 88.8636898 9.85657004 79.71538979 8.125 70.5 C7.9808667 69.7769165 7.8367334 69.05383301 7.68823242 68.30883789 C7.36963945 66.55308828 7.17336937 64.77597895 7 63 C7.66 62.34 8.32 61.68 9 61 C9.33 62.32 9.66 63.64 10 65 C10.89233846 60.39553354 11.16454212 56.00049843 11.1875 51.3125 C11.20167969 50.00925781 11.21585938 48.70601562 11.23046875 47.36328125 C10.95042321 38.03711353 8.35206726 29.19373516 5.5 20.375 C5.19191406 19.38371094 4.88382813 18.39242187 4.56640625 17.37109375 C4.26605469 16.43136719 3.96570312 15.49164063 3.65625 14.5234375 C3.25116211 13.2537915 3.25116211 13.2537915 2.83789062 11.95849609 C2.17096349 9.81613816 2.17096349 9.81613816 0 9 C0 6.03 0 3.06 0 0 Z " transform="translate(51,176)" style="fill: #6B6B6B;"/><path d="M0 0 C0.33 0 0.66 0 1 0 C1.14695313 0.56203125 1.29390625 1.1240625 1.4453125 1.703125 C2.71829436 6.47314899 4.05568658 11.21653522 5.5 15.9375 C5.7666748 16.81116211 6.03334961 17.68482422 6.30810547 18.58496094 C6.84434161 20.33437926 7.38489434 22.08248145 7.93017578 23.82910156 C12.26179524 37.97666277 11.3975491 52.4255594 10 67 C9.67 67 9.34 67 9 67 C2.98346749 37.52745647 2.98346749 37.52745647 1.125 22.8125 C1.00535889 21.89017578 0.88571777 20.96785156 0.76245117 20.01757812 C-0.0271661 13.33105776 -0.11853768 6.72811115 0 0 Z " transform="translate(52,181)" style="fill: #F4F4F4;"/><path d="M0 0 C1 2 1 2 1 3 C1.33 3.99 1.66 4.98 2 6 C-2.80224609 17.18285278 -11.63665486 26.66270261 -22 33 C-22.66 33 -23.32 33 -24 33 C-24.3125 29.8125 -24.3125 29.8125 -24 26 C-21.875 23.5 -21.875 23.5 -19 21 C-14.45264377 16.27774546 -11.01070053 11.04519903 -7.61328125 5.453125 C-4.02707006 0 -4.02707006 0 0 0 Z " transform="translate(123,104)" style="fill: #DBDBDB;"/><path d="M0 0 C3.50812065 19.9837587 3.50812065 19.9837587 1 25 C0.79792056 26.4538493 0.63595501 27.91348362 0.5 29.375 C0.22175328 32.3462775 -0.21092347 35.11987066 -1 38 C-1.66 38 -2.32 38 -3 38 C-3.33 38.66 -3.66 39.32 -4 40 C-4 36.04 -4 32.08 -4 28 C-4.66 28 -5.32 28 -6 28 C-8.61279945 21.63130135 -9.31196212 16.21920257 -6.69140625 9.7890625 C-1.84337886 -0 -1.84337886 -0 0 0 Z " transform="translate(52,11)" style="fill: #F3F3F3;"/><path d="M0 0 C0.99 1.32 1.98 2.64 3 4 C3 2.68 3 1.36 3 0 C6.15209574 2.93638941 8.4168766 5.97033067 10.6875 9.625 C11.28949219 10.58664063 11.89148438 11.54828125 12.51171875 12.5390625 C15.00119696 16.65552253 15.08968236 19.15715252 15 24 C14.67 24 14.34 24 14 24 C13.79503906 23.36191406 13.59007813 22.72382812 13.37890625 22.06640625 C13.10949219 21.24011719 12.84007812 20.41382812 12.5625 19.5625 C12.29566406 18.73878906 12.02882813 17.91507813 11.75390625 17.06640625 C11.17844506 15.03780412 11.17844506 15.03780412 10 14 C10.32742187 14.53109375 10.65484375 15.0621875 10.9921875 15.609375 C12.2642989 18.62694157 12.1959363 20.98693023 12.125 24.25 C12.10695313 25.32765625 12.08890625 26.4053125 12.0703125 27.515625 C12.04710937 28.33546875 12.02390625 29.1553125 12 30 C11.67 30 11.34 30 11 30 C10.67 28.68 10.34 27.36 10 26 C10 27.98 10 29.96 10 32 C7.32000538 28.93815918 6.70615841 27.09893627 6.6875 23.0625 C6.48904299 19.44148237 6.48904299 19.44148237 4.71484375 16.4140625 C3.17853965 15.22880577 1.58961897 14.11273328 0 13 C-2.66504955 9.73316507 -3.02620074 8.52401477 -2.8125 4.25 C-2.544375 3.1775 -2.27625 2.105 -2 1 C-1.34 0.67 -0.68 0.34 0 0 Z " transform="translate(21,51)" style="fill: #F1F1F1;"/><path d="M0 0 C3.14105654 4.7115848 3.24202666 8.75307968 3.3125 14.25 C3.34150391 14.98863281 3.37050781 15.72726563 3.40039062 16.48828125 C3.46568486 22.18394726 2.12168152 25.25087413 -1 30 C-3.96255712 35.06379571 -3.71276939 40.28386904 -3 46 C-1.95236153 48.65855416 -1.95236153 48.65855416 -0.5625 51.1875 C2.22710729 56.59528621 2.48409337 61.55317449 2.6081543 67.50146484 C2.80530944 73.874487 4.280232 79.12674641 6.453125 85.14453125 C7 88 7 88 5.609375 90.38671875 C5.07828125 90.91910156 4.5471875 91.45148438 4 92 C3.96261719 91.29875 3.92523438 90.5975 3.88671875 89.875 C3.45166993 83.31803987 3.45166993 83.31803987 1.4375 77.125 C-0.10934016 73.53281196 -0.04600044 70.6414155 0.125 66.75 C0.30541133 60.5438501 -1.13188539 56.20794141 -3.80859375 50.65625 C-5.8024852 46.21085267 -6.12351683 42.09764779 -6.09765625 37.26171875 C-6.09443359 36.19501953 -6.09121094 35.12832031 -6.08789062 34.02929688 C-6.07951172 32.92650391 -6.07113281 31.82371094 -6.0625 30.6875 C-6.05798828 29.56537109 -6.05347656 28.44324219 -6.04882812 27.28710938 C-6.03707313 24.5246849 -6.02064077 21.76237002 -6 19 C-5.67 19 -5.34 19 -5 19 C-4.67 22.3 -4.34 25.6 -4 29 C-3.34 29 -2.68 29 -2 29 C-1.93941406 28.10796875 -1.87882812 27.2159375 -1.81640625 26.296875 C-1.73261719 25.12640625 -1.64882813 23.9559375 -1.5625 22.75 C-1.48128906 21.58984375 -1.40007813 20.4296875 -1.31640625 19.234375 C-1 16 -1 16 -0.46875 13.96875 C0.18828775 11.20919143 0.09327055 8.5808905 0.0625 5.75 C0.04896484 4.13351563 0.04896484 4.13351563 0.03515625 2.484375 C0.02355469 1.66453125 0.01195312 0.8446875 0 0 Z " transform="translate(53,20)" style="fill: #747474;"/><path d="M0 0 C0.99 0 1.98 0 3 0 C4.03876383 3.11629149 4.13361625 5.3594429 4.125 8.625 C4.12757812 9.60726562 4.13015625 10.58953125 4.1328125 11.6015625 C4 14 4 14 3 15 C2.9175 16.155 2.835 17.31 2.75 18.5 C2.19416928 23.70031452 -0.2619027 27.63521022 -3 32 C-4.33333333 32 -5.66666667 32 -7 32 C-7.82494893 23.33803624 -5.45292666 16.81186509 -2.41015625 8.85546875 C-1.29582152 5.92776226 -0.48235614 3.10783896 0 0 Z " transform="translate(17,112)" style="fill: #B4B4B4;"/><path d="M0 0 C4.79129193 8.95274266 8.40460496 18.88161278 6 29 C2.61696486 28.06026802 1.06553043 27.0726148 -1.3125 24.4375 C-4.92248866 17.08381939 -2.88575865 8.70821054 -1 1 C-0.67 0.67 -0.34 0.34 0 0 Z " transform="translate(79,4)" style="fill: #838383;"/><path d="M0 0 C0 3 0 3 -1.3125 5.5625 C-2.69741105 8.3836151 -3.52883318 10.70615417 -4.33984375 13.69921875 C-5.78124132 18.59499248 -7.77210173 22.80671475 -10.25 27.25 C-13.49692233 33.22465735 -16.64237071 39.23628062 -19.640625 45.33984375 C-19.9551915 45.97977264 -20.269758 46.61970154 -20.59385681 47.27902222 C-20.9114949 47.92525543 -21.229133 48.57148865 -21.55639648 49.23730469 C-27.45170855 61.22936698 -33.4989072 72.91267046 -41 84 C-41.75732813 85.13487141 -42.51386647 86.27027035 -43.26953125 87.40625 C-43.84058594 88.2621875 -44.41164062 89.118125 -45 90 C-45.33 89.34 -45.66 88.68 -46 88 C-45.20239258 86.30200195 -45.20239258 86.30200195 -43.89453125 84.23828125 C-43.17052124 83.07304932 -43.17052124 83.07304932 -42.43188477 81.88427734 C-41.89748779 81.03559082 -41.36309082 80.1869043 -40.8125 79.3125 C-28.90727619 59.93076054 -19.10038039 39.36057693 -9 19 C-10.32 19.99 -11.64 20.98 -13 22 C-10.23591111 14.61593396 -5.64874206 5.64874206 0 0 Z " transform="translate(105,30)" style="fill: #6F6F6F;"/><path d="M0 0 C0 3.19913581 -0.48279098 4.26682222 -1.96875 7.01171875 C-2.37480469 7.76904297 -2.78085938 8.52636719 -3.19921875 9.30664062 C-3.62847656 10.09232422 -4.05773437 10.87800781 -4.5 11.6875 C-4.92925781 12.48478516 -5.35851562 13.28207031 -5.80078125 14.10351562 C-6.86168088 16.07207383 -7.92824677 18.03733606 -9 20 C-6.525 17.525 -6.525 17.525 -4 15 C-5.28161491 18.47256611 -6.77858436 21.39063686 -8.875 24.4375 C-9.36742187 25.15808594 -9.85984375 25.87867187 -10.3671875 26.62109375 C-10.90601563 27.40613281 -11.44484375 28.19117187 -12 29 C-12.91072266 30.4540625 -12.91072266 30.4540625 -13.83984375 31.9375 C-16.15282261 35.21665991 -18.73036748 37.88331413 -21.6875 40.5625 C-22.51822021 41.32469849 -22.51822021 41.32469849 -23.36572266 42.10229492 C-28.65276541 46.86034315 -34.26729984 51.16447545 -39.9987793 55.37133789 C-44.75026177 58.89164416 -48.93140514 62.70891632 -53 67 C-53 62.97411434 -51.68907122 61.94916172 -49 59 C-46.98259163 57.32429359 -44.98030205 55.74076435 -42.875 54.1875 C-41.71040106 53.30930468 -40.546344 52.43039034 -39.3828125 51.55078125 C-38.80950195 51.11975098 -38.23619141 50.6887207 -37.64550781 50.24462891 C-33.69066927 47.25326883 -29.82980566 44.1490927 -26 41 C-24.77410156 39.99646484 -24.77410156 39.99646484 -23.5234375 38.97265625 C-16.66160432 33.15015611 -13.5358437 27.94886623 -10.83984375 19.39453125 C-8.33624186 12.2563547 -4.55953888 5.99253681 0 0 Z " transform="translate(110,70)" style="fill: #777777;"/><path d="M0 0 C0.66 0 1.32 0 2 0 C2.33 2.31 2.66 4.62 3 7 C2.67 7 2.34 7 2 7 C2.58389341 16.80127072 3.60301488 26.45915309 4.9375 36.1875 C5.10701172 37.46302734 5.27652344 38.73855469 5.45117188 40.05273438 C6.33806758 46.61846037 7.32675601 53.13039057 8.63500977 59.6262207 C9.01837412 62.1194994 9.06248163 64.48140193 9 67 C7.1148208 64.1722312 6.61289186 62.70099569 5.875 59.5 C3.87421517 52.47662643 -0.51659236 46.36677569 -5.75 41.30859375 C-7 40 -7 40 -7 38 C-6.34 38 -5.68 38 -5 38 C-3.37643654 39.96937661 -1.86440434 41.93345148 -0.375 44 C0.04523437 44.57234375 0.46546875 45.1446875 0.8984375 45.734375 C1.93805801 47.15203933 2.96977591 48.57549262 4 50 C3.87882812 49.23147705 3.75765625 48.4629541 3.6328125 47.67114258 C1.15378063 31.67542779 -0.63844375 16.22711198 0 0 Z " transform="translate(50,172)" style="fill: #595959;"/><path d="M0 0 C0 3.96 0 7.92 0 12 C-0.99 12.495 -0.99 12.495 -2 13 C-2 10.03 -2 7.06 -2 4 C-2.33 5.258125 -2.66 6.51625 -3 7.8125 C-3.185625 8.52019531 -3.37125 9.22789062 -3.5625 9.95703125 C-4.1047007 12.14070009 -4.1047007 12.14070009 -4 15 C-4.845625 15.53625 -5.69125 16.0725 -6.5625 16.625 C-9.11225533 18.6670847 -9.11225533 18.6670847 -9.390625 20.87109375 C-9.01073546 31.52699542 0.35121791 39.68285933 7.31787109 46.94067383 C9.72752526 49.47171789 11.66340162 51.75068324 13 55 C1.59703557 45.53796569 -10.13412217 34.4455748 -15 20 C-14.625 17.7109375 -14.625 17.7109375 -14 16 C-13.34 17.32 -12.68 18.64 -12 20 C-7.79133923 13.90469819 -4.97563856 8.19696904 -3 1 C-2 0 -2 0 0 0 Z " transform="translate(28,153)" style="fill: #606060;"/><path d="M0 0 C0.33 0 0.66 0 1 0 C1.02692484 2.29160319 1.04636124 4.58329546 1.0625 6.875 C1.07410156 8.15117187 1.08570313 9.42734375 1.09765625 10.7421875 C1 14 1 14 0 16 C-0.09629649 17.71662123 -0.13075026 19.43693118 -0.1328125 21.15625 C-0.13410156 22.17847656 -0.13539062 23.20070312 -0.13671875 24.25390625 C-0.13285156 25.32511719 -0.12898438 26.39632812 -0.125 27.5 C-0.12886719 28.57121094 -0.13273437 29.64242187 -0.13671875 30.74609375 C-0.13478516 32.27943359 -0.13478516 32.27943359 -0.1328125 33.84375 C-0.13168457 34.78412109 -0.13055664 35.72449219 -0.12939453 36.69335938 C-0.15132401 39.02769872 -0.15132401 39.02769872 1 41 C0.0625 43.125 0.0625 43.125 -1 45 C-1 44.01 -1 43.02 -1 42 C-1.66 42 -2.32 42 -3 42 C-3 45.3 -3 48.6 -3 52 C-3.33 52 -3.66 52 -4 52 C-4.19257595 46.80425528 -4.37124807 41.60828735 -4.53710938 36.41162109 C-4.59547094 34.64423846 -4.65761527 32.8769765 -4.72363281 31.10986328 C-4.81792511 28.56825735 -4.89855832 26.02652655 -4.9765625 23.484375 C-5.00875885 22.69569031 -5.0409552 21.90700562 -5.0741272 21.09442139 C-5.18101257 17.17087981 -5.14365439 14.34251295 -3 11 C-2.41987103 9.09462228 -1.87962512 7.17675047 -1.375 5.25 C-1.11460938 4.26515625 -0.85421875 3.2803125 -0.5859375 2.265625 C-0.39257812 1.51796875 -0.19921875 0.7703125 0 0 Z " transform="translate(53,130)" style="fill: #464646;"/><path d="M0 0 C1.258125 0.12375 2.51625 0.2475 3.8125 0.375 C4.87404297 0.47941406 4.87404297 0.47941406 5.95703125 0.5859375 C8 1 8 1 11 3 C9.89242378 5.91997367 9.22186415 6.87553962 6.4375 8.4375 C3.74569715 9.79062712 3.74569715 9.79062712 3.1875 12.6875 C3.0946875 13.8321875 3.0946875 13.8321875 3 15 C3.99 14.34 4.98 13.68 6 13 C6.99 13.33 7.98 13.66 9 14 C7.7260411 16.03833424 6.38938077 18.03852126 5 20 C4.34 20 3.68 20 3 20 C3 20.66 3 21.32 3 22 C2.34 21.67 1.68 21.34 1 21 C-0.59491433 14.14186839 -0.08734209 6.99707158 0 0 Z " transform="translate(41,99)" style="fill: #B2B2B2;"/><path d="M0 0 C-2.43294402 8.66736307 -6.65782877 16.17171506 -11 24 C-12.26041675 21.4791665 -11.66225891 20.64903564 -11 18 C-11.33 17.34 -11.66 16.68 -12 16 C-12 15.34 -12 14.68 -12 14 C-13.32 13.34 -14.64 12.68 -16 12 C-4.72727273 0 -4.72727273 0 0 0 Z " transform="translate(134,92)" style="fill: #A5A5A5;"/><path d="M0 0 C0.33 0.99 0.66 1.98 1 3 C-0.36328125 5.69921875 -0.36328125 5.69921875 -2.3125 8.6875 C-2.94800781 9.68136719 -3.58351563 10.67523438 -4.23828125 11.69921875 C-4.81964844 12.45847656 -5.40101562 13.21773437 -6 14 C-6.66 14 -7.32 14 -8 14 C-8 14.66 -8 15.32 -8 16 C-8.7425 16.721875 -9.485 17.44375 -10.25 18.1875 C-13.30142598 21.30827657 -14.96946943 24.16455337 -17 28 C-17.33 27.34 -17.66 26.68 -18 26 C-17.22265625 24.08984375 -17.22265625 24.08984375 -16.0625 21.9375 C-14.61288894 19.59134205 -14.61288894 19.59134205 -14 17 C-15.65 18.65 -17.3 20.3 -19 22 C-17.48869959 16.61143232 -13.83314311 13.24327153 -10.0625 9.3125 C-9.11213867 8.29833008 -9.11213867 8.29833008 -8.14257812 7.26367188 C-5.51111018 4.48278304 -3.20274163 2.13516109 0 0 Z " transform="translate(130,48)" style="fill: #A8A8A8;"/><path d="M0 0 C2.03685636 2.30253328 2.95407519 3.66321809 3.375 6.75 C3.99420189 9.96984984 4.6957416 11.24593776 6.5 13.875 C10.28927287 19.59712964 10.16915339 25.23386434 10 32 C7.32000538 28.93815918 6.70615841 27.09893627 6.6875 23.0625 C6.48904299 19.44148237 6.48904299 19.44148237 4.71484375 16.4140625 C3.17853965 15.22880577 1.58961897 14.11273328 0 13 C-2.66504955 9.73316507 -3.02620074 8.52401477 -2.8125 4.25 C-2.544375 3.1775 -2.27625 2.105 -2 1 C-1.34 0.67 -0.68 0.34 0 0 Z " transform="translate(21,51)" style="fill: #BCBCBC;"/><path d="M0 0 C0.66 0 1.32 0 2 0 C2.27972656 0.53367188 2.55945313 1.06734375 2.84765625 1.6171875 C5.73232161 6.97839837 8.95704834 11.91943577 12.546875 16.8359375 C14.89520888 20.33318741 15.11579084 23.08410519 15.0625 27.1875 C15.05347656 28.08855469 15.04445313 28.98960938 15.03515625 29.91796875 C15.02355469 30.60503906 15.01195313 31.29210937 15 32 C14.34 32 13.68 32 13 32 C12.34 33.32 11.68 34.64 11 36 C10.96261719 35.19175781 10.92523438 34.38351563 10.88671875 33.55078125 C10.82097656 32.48214844 10.75523438 31.41351563 10.6875 30.3125 C10.62949219 29.25675781 10.57148437 28.20101562 10.51171875 27.11328125 C9.96139982 23.76515766 8.7770881 21.84234539 7 19 C7.33 18.34 7.66 17.68 8 17 C10.475 20.96 10.475 20.96 13 25 C11.64737628 20.25869791 9.66645646 16.67711421 6.875 12.625 C5.78832031 11.03558594 5.78832031 11.03558594 4.6796875 9.4140625 C4.12539063 8.61742187 3.57109375 7.82078125 3 7 C3.33 8.98 3.66 10.96 4 13 C2 11 0 9 -2 7 C-1.34 4.69 -0.68 2.38 0 0 Z " transform="translate(22,45)" style="fill: #727272;"/><path d="M0 0 C1.48957832 2.97915664 0.38191818 4.69566549 -0.625 7.8125 C-2.33735293 12.71579047 -3.85458728 15.7222318 -8 19 C-9.27352133 20.10106531 -10.5442643 21.20535069 -11.8125 22.3125 C-12.87324959 23.2104053 -13.93513145 24.10698344 -15 25 C-15.66 24.67 -16.32 24.34 -17 24 C-16.2575 23.5875 -15.515 23.175 -14.75 22.75 C-11.75858248 19.75858248 -11.24092782 18.16034317 -10.0625 14.1875 C-8.41103157 8.67361766 -6.33054312 4.82325093 -2 1 C-1.34 0.67 -0.68 0.34 0 0 Z " transform="translate(75,140)" style="fill: #909090;"/><path d="M0 0 C4.31392226 0.4793247 6.16569547 1.7457985 9 5 C8.67 5.99 8.34 6.98 8 8 C2.41534286 9.79506837 -3.17181635 10.4873357 -9 11 C-8.04578192 9.85073734 -7.08647955 8.70569459 -6.125 7.5625 C-5.32449219 6.60537109 -5.32449219 6.60537109 -4.5078125 5.62890625 C-3 4 -3 4 -1 3 C-0.67 2.01 -0.34 1.02 0 0 Z " transform="translate(107,158)" style="fill: #8F8F8F;"/><path d="M0 0 C-1.57706701 3.87098267 -3.78643129 6.3453128 -7 9 C-13.86513467 11.5744255 -20.74352455 11.19911061 -28 11 C-28 10.67 -28 10.34 -28 10 C-27.2265625 9.92523438 -26.453125 9.85046875 -25.65625 9.7734375 C-19.02636121 8.93649609 -14.83930325 7.74555069 -9.75 3.3984375 C-6.86149023 1.09020871 -3.68211557 0 0 0 Z " transform="translate(109,212)" style="fill: #A9A9A9;"/><path d="M0 0 C0.33 0 0.66 0 1 0 C2.78248742 8.231851 1.52929036 13.29741591 -2.45703125 20.6640625 C-4 23 -4 23 -6 24 C-6.38072673 18.0352813 -5.10362934 13.55282338 -3 8 C-2.71382812 7.22398437 -2.42765625 6.44796875 -2.1328125 5.6484375 C-1.43273438 3.76156028 -0.71788483 1.88017457 0 0 Z " transform="translate(18,121)" style="fill: #E3E3E3;"/><path d="M0 0 C0.66 0.33 1.32 0.66 2 1 C1.13375 1.928125 1.13375 1.928125 0.25 2.875 C-1.75124081 5.65450112 -2.80134962 7.78390792 -4 10.9375 C-6.2954611 16.97205203 -9.27237655 21.57738452 -14 26 C-14.5775 26.5775 -15.155 27.155 -15.75 27.75 C-16.1625 28.1625 -16.575 28.575 -17 29 C-15.51700812 23.94362875 -13.33518257 19.61645212 -10.75 15.0625 C-10.35176025 14.35609375 -9.95352051 13.6496875 -9.54321289 12.921875 C-6.78915326 8.1343301 -3.87020327 3.96943926 0 0 Z " transform="translate(117,63)" style="fill: #E1E1E1;"/><path d="M0 0 C0 3 0 3 -1.3125 5.5625 C-2.69997956 8.38884726 -3.51269487 10.68823078 -4.3125 13.6875 C-5.98980243 19.61216503 -8.89505048 24.71455194 -12 30 C-12.66 29.67 -13.32 29.34 -14 29 C-12.02 24.545 -12.02 24.545 -10 20 C-11.485 20.99 -11.485 20.99 -13 22 C-10.23591111 14.61593396 -5.64874206 5.64874206 0 0 Z " transform="translate(105,30)" style="fill: #8D8D8D;"/><path d="M0 0 C0.33 2.97 0.66 5.94 1 9 C0.67 9 0.34 9 0 9 C-0.33 10.65 -0.66 12.3 -1 14 C-4 13 -4 13 -5 11 C-5 16.61 -5 22.22 -5 28 C-8.20193996 23.19709007 -8.90404309 18.66259718 -8 13 C-2.7369697 0 -2.7369697 0 0 0 Z " transform="translate(52,11)" style="fill: #939393;"/><path d="M0 0 C0 5.51602085 -5.30132671 9.22869415 -9 13 C-11.27882473 15.1232859 -13.59113685 17.18549056 -15.95703125 19.2109375 C-18.06569281 21.05752831 -20.03847972 22.99880853 -22 25 C-20.56606603 20.5004141 -18.06724758 17.49387447 -14.875 14.125 C-14.38725098 13.60123779 -13.89950195 13.07747559 -13.39697266 12.5378418 C-9.50037422 8.40576272 -5.37885856 4.61782699 -1 1 C-0.67 0.67 -0.34 0.34 0 0 Z " transform="translate(100,197)" style="fill: #ABABAB;"/><path d="M0 0 C0.99 0.33 1.98 0.66 3 1 C3.75195312 2.69897461 3.75195312 2.69897461 4.28125 4.90234375 C4.48210205 5.70615479 4.6829541 6.50996582 4.88989258 7.33813477 C5.09122803 8.19592529 5.29256348 9.05371582 5.5 9.9375 C5.92966698 11.6748068 6.36064562 13.41178976 6.79296875 15.1484375 C6.99841309 15.98600586 7.20385742 16.82357422 7.41552734 17.68652344 C8.31868118 21.26141307 9.40217407 24.77258036 10.51953125 28.28515625 C11 30 11 30 11 32 C10.34 32 9.68 32 9 32 C8.79842285 31.3387915 8.5968457 30.67758301 8.38916016 29.99633789 C7.47569335 27.01589666 6.5505192 24.03921948 5.625 21.0625 C5.14933594 19.50112305 5.14933594 19.50112305 4.6640625 17.90820312 C4.3546875 16.91884766 4.0453125 15.92949219 3.7265625 14.91015625 C3.44377441 13.99371338 3.16098633 13.07727051 2.86962891 12.13305664 C2.20269356 9.82659394 2.20269356 9.82659394 0 9 C0 6.03 0 3.06 0 0 Z " transform="translate(51,176)" style="fill: #747474;"/><path d="M0 0 C3.19585855 4.79378783 3.18281273 8.85495575 3.1875 14.4375 C3.19974609 15.20126953 3.21199219 15.96503906 3.22460938 16.75195312 C3.24268746 23.67585851 3.24268746 23.67585851 1 27 C0.01 26.67 -0.98 26.34 -2 26 C-1.85795259 24.41632253 -1.71119847 22.83306682 -1.5625 21.25 C-1.48128906 20.36828125 -1.40007813 19.4865625 -1.31640625 18.578125 C-1 16 -1 16 -0.46875 14.0625 C0.1671181 11.26468034 0.09363865 8.61475558 0.0625 5.75 C0.05347656 4.67234375 0.04445312 3.5946875 0.03515625 2.484375 C0.02355469 1.66453125 0.01195312 0.8446875 0 0 Z " transform="translate(53,20)" style="fill: #A6A6A6;"/><path d="M0 0 C-0.45261358 1.43931117 -0.91232979 2.87638999 -1.375 4.3125 C-1.63023438 5.11300781 -1.88546875 5.91351563 -2.1484375 6.73828125 C-3 9 -3 9 -5 12 C-4.34 12.33 -3.68 12.66 -3 13 C-4.40453643 13.89434157 -5.82421869 14.76493192 -7.25 15.625 C-8.43335937 16.35589844 -8.43335937 16.35589844 -9.640625 17.1015625 C-12 18 -12 18 -14.296875 17.1484375 C-14.85890625 16.76945312 -15.4209375 16.39046875 -16 16 C-15.07703125 15.79375 -14.1540625 15.5875 -13.203125 15.375 C-9.10670076 13.61653496 -8.50957272 12.02188051 -6.75 8 C-3.17307692 0 -3.17307692 0 0 0 Z " transform="translate(101,157)" style="fill: #949494;"/><path d="M0 0 C0 4.83418055 -3.2807343 7.24477102 -6.5 10.625 C-8.58650689 12.60718154 -10.65080525 14.34686296 -13 16 C-13.33 15.34 -13.66 14.68 -14 14 C-11.54735307 8.47239274 -7.87376945 4.46579161 -3 1 C-2.34 1 -1.68 1 -1 1 C-0.67 0.67 -0.34 0.34 0 0 Z " transform="translate(114,121)" style="fill: #C0C0C0;"/><path d="M0 0 C3 2 3 2 3.41650391 3.93945312 C3.43632324 4.71224609 3.45614258 5.48503906 3.4765625 6.28125 C3.5075 7.12300781 3.5384375 7.96476563 3.5703125 8.83203125 C3.58835938 9.71246094 3.60640625 10.59289062 3.625 11.5 C3.67594281 13.23969702 3.73045909 14.97929418 3.7890625 16.71875 C3.80662598 17.49154297 3.82418945 18.26433594 3.84228516 19.06054688 C3.8851707 21.08138088 3.8851707 21.08138088 5 23 C4.0625 25.125 4.0625 25.125 3 27 C3 26.01 3 25.02 3 24 C2.34 24 1.68 24 1 24 C1 27.3 1 30.6 1 34 C0.67 34 0.34 34 0 34 C0 22.78 0 11.56 0 0 Z " transform="translate(49,148)" style="fill: #959595;"/><path d="M0 0 C0.99 1.485 0.99 1.485 2 3 C2.66 2.67 3.32 2.34 4 2 C6.59227518 6.86051596 6.18689553 11.65271133 6 17 C2.83884224 15.63016497 2.0072908 15.0109362 0 12 C-0.1953125 9.08203125 -0.1953125 9.08203125 -0.125 5.8125 C-0.10695313 4.72582031 -0.08890625 3.63914062 -0.0703125 2.51953125 C-0.04710938 1.68808594 -0.02390625 0.85664063 0 0 Z " transform="translate(78,14)" style="fill: #DFDFDF;"/><path d="M0 0 C1 3 1 3 -0.1875 5.671875 C-3.86253828 11.91310381 -7.49786962 17.25044064 -13 22 C-13.66 21.67 -14.32 21.34 -15 21 C-13.8553125 19.9790625 -13.8553125 19.9790625 -12.6875 18.9375 C-9.76429504 15.742369 -8.60993527 12.98983959 -7 9 C-4.93847424 5.65002064 -2.93167529 2.63850776 0 0 Z " transform="translate(124,107)" style="fill: #D0D0D0;"/><path d="M0 0 C1.258125 0.12375 2.51625 0.2475 3.8125 0.375 C4.87404297 0.47941406 4.87404297 0.47941406 5.95703125 0.5859375 C8 1 8 1 11 3 C10.4375 4.9375 10.4375 4.9375 9 7 C5.375 7.75 5.375 7.75 2 8 C1.34 5.36 0.68 2.72 0 0 Z " transform="translate(41,99)" style="fill: #BCBCBC;"/><path d="M0 0 C1.52519276 0.08937803 3.04681929 0.24537146 4.5625 0.4375 C5.80193359 0.59025391 5.80193359 0.59025391 7.06640625 0.74609375 C7.70449219 0.82988281 8.34257813 0.91367187 9 1 C9 2.32 9 3.64 9 5 C4.56923077 7.09230769 4.56923077 7.09230769 1.6875 6.625 C1.130625 6.41875 0.57375 6.2125 0 6 C-0.38218767 4.34385343 -0.71395102 2.67542976 -1 1 C-0.67 0.67 -0.34 0.34 0 0 Z " transform="translate(61,56)" style="fill: #AAAAAA;"/><path d="M0 0 C0 3.96 0 7.92 0 12 C-0.99 12.495 -0.99 12.495 -2 13 C-2 10.03 -2 7.06 -2 4 C-2.33 5.258125 -2.66 6.51625 -3 7.8125 C-3.185625 8.52019531 -3.37125 9.22789062 -3.5625 9.95703125 C-4.1047007 12.14070009 -4.1047007 12.14070009 -4 15 C-5.65385233 16.34919532 -7.321702 17.68133728 -9 19 C-10.31165257 21.11660427 -10.31165257 21.11660427 -11 23 C-11.33 22.34 -11.66 21.68 -12 21 C-10.7412644 18.10490812 -9.50587656 15.58681681 -7.4375 13.1875 C-5.52445881 10.27635036 -5.12079893 7.42591386 -4.52734375 4.0234375 C-3.80338513 1.24558146 -2.97947771 0 0 0 Z " transform="translate(28,153)" style="fill: #7D7D7D;"/><path d="M0 0 C0 3.19913581 -0.48279098 4.26682222 -1.96875 7.01171875 C-2.37480469 7.76904297 -2.78085938 8.52636719 -3.19921875 9.30664062 C-3.62847656 10.09232422 -4.05773437 10.87800781 -4.5 11.6875 C-4.92925781 12.48478516 -5.35851562 13.28207031 -5.80078125 14.10351562 C-6.86168088 16.07207383 -7.92824677 18.03733606 -9 20 C-7.35 18.35 -5.7 16.7 -4 15 C-5.2491742 18.45925163 -6.67527795 21.14693203 -9 24 C-9.99 23.67 -10.98 23.34 -12 23 C-9.53746295 14.49305383 -5.33462057 7.01121561 0 0 Z " transform="translate(110,70)" style="fill: #898989;"/><path d="M0 0 C3.15209574 2.93638941 5.4168766 5.97033067 7.6875 9.625 C8.28949219 10.58664063 8.89148438 11.54828125 9.51171875 12.5390625 C12.00119696 16.65552253 12.08968236 19.15715252 12 24 C11.67 24 11.34 24 11 24 C10.84144531 23.40832031 10.68289062 22.81664063 10.51953125 22.20703125 C8.91008691 16.7562612 7.17396629 13.96526798 3 10 C1.15510003 6.73314156 0 3.80162991 0 0 Z " transform="translate(24,51)" style="fill: #E1E1E1;"/><path d="M0 0 C0.33 0.66 0.66 1.32 1 2 C0.06553465 4.03144641 -0.93224776 6.03533587 -2 8 C2.95 6.515 2.95 6.515 8 5 C7 8 7 8 4.78515625 9.16796875 C3.88667969 9.50441406 2.98820312 9.84085938 2.0625 10.1875 C1.16660156 10.53167969 0.27070312 10.87585938 -0.65234375 11.23046875 C-3 12 -3 12 -5 12 C-3.14285714 3.42857143 -3.14285714 3.42857143 0 0 Z " transform="translate(61,63)" style="fill: #939393;"/><path d="M0 0 C0.33 0 0.66 0 1 0 C2.86094772 7.3197277 3.55761615 14.46783285 4 22 C3.34 22 2.68 22 2 22 C1.67 22.66 1.34 23.32 1 24 C0.63436254 21.31362232 0.28225274 18.62657141 -0.0625 15.9375 C-0.16626953 15.18533203 -0.27003906 14.43316406 -0.37695312 13.65820312 C-0.98142216 8.84329458 -0.90611433 4.77135727 0 0 Z " transform="translate(47,27)" style="fill: #C6C6C6;"/><path d="M0 0 C0.66 0.33 1.32 0.66 2 1 C-0.04142311 2.72945489 -2.08313202 4.45857048 -4.125 6.1875 C-4.97964844 6.91163086 -4.97964844 6.91163086 -5.8515625 7.65039062 C-9.55341695 10.78434695 -13.27017932 13.899374 -17 17 C-14.07768155 9.82703654 -6.32449648 4.21633099 0 0 Z " transform="translate(73,120)" style="fill: #575757;"/><path d="M0 0 C0.33 0.66 0.66 1.32 1 2 C-0.98 4.64 -2.96 7.28 -5 10 C-4.67 10.66 -4.34 11.32 -4 12 C-5.60032137 12.84069415 -7.20541171 13.67231505 -8.8125 14.5 C-9.70582031 14.9640625 -10.59914063 15.428125 -11.51953125 15.90625 C-14 17 -14 17 -17 17 C-16.35933594 16.52691406 -15.71867187 16.05382812 -15.05859375 15.56640625 C-9.02933886 10.95685668 -4.34726885 6.21860975 0 0 Z " transform="translate(91,163)" style="fill: #676767;"/><path d="M0 0 C1.32 0.66 2.64 1.32 4 2 C4 2.66 4 3.32 4 4 C4.66 4 5.32 4 6 4 C6 4.66 6 5.32 6 6 C2.30458414 6.95024979 -0.30458414 6.95024979 -4 6 C-3.525625 5.566875 -3.05125 5.13375 -2.5625 4.6875 C-0.76313043 2.97690387 -0.76313043 2.97690387 0 0 Z " transform="translate(108,159)" style="fill: #DEDEDE;"/><path d="M0 0 C0.95582656 2.55654815 1.17802782 3.60341769 0.0390625 6.140625 C-0.66089844 7.18476563 -0.66089844 7.18476563 -1.375 8.25 C-1.83648437 8.95640625 -2.29796875 9.6628125 -2.7734375 10.390625 C-3.38058594 11.18726563 -3.38058594 11.18726563 -4 12 C-4.33 12 -4.66 12 -5 12 C-5.25 5.375 -5.25 5.375 -3 2 C-2.01 1.34 -1.02 0.68 0 0 Z " transform="translate(17,133)" style="fill: #F8F8F8;"/><path d="M0 0 C-1.36077995 2.8097586 -2.84825102 5.47615865 -4.5 8.125 C-4.9228125 8.80820313 -5.345625 9.49140625 -5.78125 10.1953125 C-7 12 -7 12 -9 14 C-9.3125 10.8125 -9.3125 10.8125 -9 7 C-6.625 4.1875 -6.625 4.1875 -4 2 C-2 0 -2 0 0 0 Z " transform="translate(108,123)" style="fill: #F1F1F1;"/><path d="M0 0 C2.38838945 3.04303836 4.35892422 6.18885754 6.25 9.5625 C6.79140625 10.51253906 7.3328125 11.46257812 7.890625 12.44140625 C9 15 9 15 8 18 C0 5.54150198 0 5.54150198 0 0 Z " transform="translate(13,169)" style="fill: #414141;"/><path d="M0 0 C-1.25844278 3.88019859 -2.42416203 5.9411842 -6 8 C-8 8 -10 8 -12 8 C-10.71064081 6.85157077 -9.41843421 5.70633773 -8.125 4.5625 C-7.04605469 3.60537109 -7.04605469 3.60537109 -5.9453125 2.62890625 C-3.83529848 0.86208728 -2.76919975 0 0 0 Z " transform="translate(134,92)" style="fill: #5F5F5F;"/><path d="M0 0 C0.66 0.99 1.32 1.98 2 3 C1.26766027 4.65376718 0.51347286 6.29787304 -0.25 7.9375 C-0.66765625 8.85402344 -1.0853125 9.77054688 -1.515625 10.71484375 C-3 13 -3 13 -5.171875 13.81640625 C-5.77515625 13.87699219 -6.3784375 13.93757812 -7 14 C-5.43223732 9.68865263 -3.30890976 5.94749088 -1 2 C-0.67 1.34 -0.34 0.68 0 0 Z " transform="translate(94,159)" style="fill: #EAEAEA;"/><path d="M0 0 C1.32 0.66 2.64 1.32 4 2 C3.54803755 3.60597325 3.08817673 5.20972508 2.625 6.8125 C2.36976562 7.70582031 2.11453125 8.59914063 1.8515625 9.51953125 C1 12 1 12 -1 15 C-2.4002792 9.53891111 -1.42705634 5.30723432 0 0 Z " transform="translate(55,118)" style="fill: #686868;"/><path d="M0 0 C1.11003253 3.3300976 0.9343162 3.97843441 -0.25 7.125 C-0.62898438 8.18074219 -0.62898438 8.18074219 -1.015625 9.2578125 C-2 11 -2 11 -5 12 C-4.58525633 6.71201818 -3.64775386 3.88309282 0 0 Z " transform="translate(72,144)" style="fill: #F0F0F0;"/><path d="M0 0 C0.99 0.66 1.98 1.32 3 2 C2.319375 2.5775 1.63875 3.155 0.9375 3.75 C-3.41121459 8.03623306 -6.0702908 13.70626032 -9 19 C-9.33 18.34 -9.66 17.68 -10 17 C-9.30322266 15.32006836 -9.30322266 15.32006836 -8.1640625 13.33984375 C-7.75929688 12.62892578 -7.35453125 11.91800781 -6.9375 11.18554688 C-6.504375 10.44369141 -6.07125 9.70183594 -5.625 8.9375 C-5.19960937 8.19177734 -4.77421875 7.44605469 -4.3359375 6.67773438 C-1.18025386 1.18025386 -1.18025386 1.18025386 0 0 Z " transform="translate(77,222)" style="fill: #6F6F6F;"/><path d="M0 0 C4.31630712 3.42327806 6.07137989 7.67652433 7 13 C6.1875 16.5625 6.1875 16.5625 5 19 C4.67 19 4.34 19 4 19 C3.96261719 18.19175781 3.92523438 17.38351563 3.88671875 16.55078125 C3.82097656 15.48214844 3.75523438 14.41351563 3.6875 13.3125 C3.62949219 12.25675781 3.57148437 11.20101562 3.51171875 10.11328125 C2.96006867 6.75705899 1.84127215 4.81867667 0 2 C0 1.34 0 0.68 0 0 Z " transform="translate(29,62)" style="fill: #9C9C9C;"/><path d="M0 0 C0.99 0.33 1.98 0.66 3 1 C3.38885039 2.78871178 3.76069196 4.58112874 4.125 6.375 C4.33382812 7.37273437 4.54265625 8.37046875 4.7578125 9.3984375 C4.83773437 10.25695312 4.91765625 11.11546875 5 12 C4.34 12.66 3.68 13.32 3 14 C2.34 12.35 1.68 10.7 1 9 C0.67 9 0.34 9 0 9 C0 6.03 0 3.06 0 0 Z " transform="translate(51,176)" style="fill: #949494;"/><path d="M0 0 C-0.42257276 1.4835001 -0.86356322 2.96176424 -1.3125 4.4375 C-1.55613281 5.26121094 -1.79976563 6.08492187 -2.05078125 6.93359375 C-2.36402344 7.61550781 -2.67726563 8.29742187 -3 9 C-3.99 9.33 -4.98 9.66 -6 10 C-5.38909774 3.52443609 -5.38909774 3.52443609 -3.5625 1.0625 C-2 0 -2 0 0 0 Z " transform="translate(101,157)" style="fill: #AEAEAE;"/><path d="M0 0 C1.12368126 3.37104378 0.58518354 4.49476241 -0.453125 7.75 C-1.58358116 12.40101964 -1.70268181 17.23508474 -2 22 C-2.33 22 -2.66 22 -3 22 C-3.06058594 21.16855469 -3.12117188 20.33710937 -3.18359375 19.48046875 C-3.26738281 18.39378906 -3.35117187 17.30710937 -3.4375 16.1875 C-3.51871094 15.10855469 -3.59992187 14.02960938 -3.68359375 12.91796875 C-3.90212461 9.94010095 -3.90212461 9.94010095 -5 7 C-4.01 7 -3.02 7 -2 7 C-1.855625 6.21625 -1.71125 5.4325 -1.5625 4.625 C-1 2 -1 2 0 0 Z " transform="translate(35,77)" style="fill: #575757;"/><path d="M0 0 C0.33 0.66 0.66 1.32 1 2 C0.14453125 4.34765625 0.14453125 4.34765625 -1.1875 7.0625 C-1.82751953 8.41021484 -1.82751953 8.41021484 -2.48046875 9.78515625 C-4 12 -4 12 -6.17578125 12.80859375 C-6.77777344 12.87175781 -7.37976563 12.93492188 -8 13 C-6.40956621 7.91061189 -3.2553049 4.12543357 0 0 Z " transform="translate(96,47)" style="fill: #EBEBEB;"/><path d="M0 0 C0.33 0.99 0.66 1.98 1 3 C-0.375 4.5 -0.375 4.5 -2 6 C-2.66 6 -3.32 6 -4 6 C-5.80060998 7.55683115 -5.80060998 7.55683115 -7.625 9.5 C-8.25664063 10.1496875 -8.88828125 10.799375 -9.5390625 11.46875 C-10.02117187 11.9740625 -10.50328125 12.479375 -11 13 C-11 10 -11 10 -9.35546875 8.02734375 C-8.64003906 7.33769531 -7.92460938 6.64804687 -7.1875 5.9375 C-6.47980469 5.24527344 -5.77210937 4.55304687 -5.04296875 3.83984375 C-3 2 -3 2 0 0 Z " transform="translate(130,48)" style="fill: #868686;"/><path d="M0 0 C0.33 0 0.66 0 1 0 C1.0272415 1.41655793 1.04650467 2.83327045 1.0625 4.25 C1.07410156 5.03890625 1.08570313 5.8278125 1.09765625 6.640625 C1.00385306 8.90691002 0.63241063 10.8288895 0 13 C-1.32 12.67 -2.64 12.34 -4 12 C-3.71125 11.505 -3.4225 11.01 -3.125 10.5 C-1.58711584 7.08247965 -0.85152195 3.6493798 0 0 Z " transform="translate(26,155)" style="fill: #DBDBDB;"/><path d="M0 0 C0 5.94 0 11.88 0 18 C-0.33 18 -0.66 18 -1 18 C-1.04898437 17.18015625 -1.09796875 16.3603125 -1.1484375 15.515625 C-1.22320313 14.43796875 -1.29796875 13.3603125 -1.375 12.25 C-1.44460937 11.18265625 -1.51421875 10.1153125 -1.5859375 9.015625 C-1.9728223 6.19793568 -2.55686166 4.4169634 -4 2 C-2 0 -2 0 0 0 Z " transform="translate(22,109)" style="fill: #565656;"/><path d="M0 0 C0.99 0.33 1.98 0.66 3 1 C2.57405412 2.44096586 2.13373367 3.87768712 1.6875 5.3125 C1.44386719 6.11300781 1.20023437 6.91351563 0.94921875 7.73828125 C-0.04182023 10.09964573 -1.08074943 11.33879993 -3 13 C-2.34 10.69 -1.68 8.38 -1 6 C-1.99 6.495 -1.99 6.495 -3 7 C-1.125 2.25 -1.125 2.25 0 0 Z " transform="translate(125,103)" style="fill: #828282;"/><path d="M0 0 C0 3.73906778 -1.30938297 5.68378967 -3 9 C-3.69971973 10.98867713 -4.37664397 12.98608051 -5 15 C-6.140625 13.2890625 -6.140625 13.2890625 -7 11 C-6.171875 8.7109375 -6.171875 8.7109375 -4.75 6.375 C-4.29109375 5.59898438 -3.8321875 4.82296875 -3.359375 4.0234375 C-2 2 -2 2 0 0 Z " transform="translate(105,30)" style="fill: #7A7A7A;"/><path d="M0 0 C0.99 0.495 0.99 0.495 2 1 C2 2.65 2 4.3 2 6 C3.65 5.67 5.3 5.34 7 5 C6.38125 5.763125 5.7625 6.52625 5.125 7.3125 C2.94402948 9.99625809 2.94402948 9.99625809 1 13 C0.67 8.71 0.34 4.42 0 0 Z " transform="translate(41,101)" style="fill: #979797;"/><path d="M0 0 C1.32527172 3.6297251 0.66675274 5.62288221 -0.8125 9.125 C-1.16957031 9.99382812 -1.52664063 10.86265625 -1.89453125 11.7578125 C-3 14 -3 14 -5 16 C-3.90301833 10.30860098 -2.45946923 5.25432063 0 0 Z " transform="translate(16,118)" style="fill: #EBEBEB;"/></svg>