<?xml version="1.0" encoding="UTF-8"?>
<!-- Generator: visioncortex VTracer -->
<svg id="svg" version="1.1" xmlns="http://www.w3.org/2000/svg" style="display: block;" viewBox="0 0 127 273"><path d="M0 0 C41.91 0 83.82 0 127 0 C127 90.09 127 180.18 127 273 C85.09 273 43.18 273 0 273 C0 182.91 0 92.82 0 0 Z " transform="translate(0,0)" style="fill: none;"/><path d="M0 0 C1.01900391 0.49886719 1.01900391 0.49886719 2.05859375 1.0078125 C6.60718668 2.54213203 10.97892664 1.93282142 15.72265625 1.6796875 C19 2 19 2 21.40234375 3.796875 C23.74604747 7.02877939 23.53866816 9.09465585 23 13 C21.29738548 16.12145995 19.51555345 18.47527663 17.0234375 21.01171875 C8.84985349 30.24043815 9.3459503 41.17058721 9 53 C8.67 53 8.34 53 8 53 C7.67 48.71 7.34 44.42 7 40 C6.34221861 51.41445425 6.34221861 51.41445425 10 62 C11.53266582 58.93466836 11.10276471 55.73245728 11.0625 52.375 C11.05798828 51.66859375 11.05347656 50.9621875 11.04882812 50.234375 C11.03703875 48.48954725 11.01910324 46.744763 11 45 C15.57084744 49.44078267 17.08757468 52.54707698 17.375 58.9375 C17.29006767 63.69371067 16.07734389 66.28908531 13 70 C12.34 70.99 11.68 71.98 11 73 C14.96 69.7 18.92 66.4 23 63 C23.66 63.33 24.32 63.66 25 64 C20.59008638 72.18155027 14.5332162 76.76121436 7 82 C5.4317225 83.13791298 3.86828943 84.28257163 2.3125 85.4375 C1.68988281 85.88996094 1.06726563 86.34242187 0.42578125 86.80859375 C-1.14748791 87.96198797 -1.14748791 87.96198797 -2 90 C-2.07376509 96.87490592 -0.24658795 103.53218885 1.53979492 110.11376953 C2.45897068 113.55434615 3.15857492 116.88745387 3.5625 120.4296875 C3.6047555 123.81003971 3.6047555 123.81003971 5 125 C7.56805334 119.80274919 8.34446271 115.62255067 8.375 109.8125 C8.82455006 96.78403028 13.93545501 87.02572881 23.1328125 77.87890625 C28.05789508 73.33993641 33.32386574 69.54255188 39 66 C39.66 66.33 40.32 66.66 41 67 C40.38511719 67.43570313 39.77023438 67.87140625 39.13671875 68.3203125 C34.38757128 71.81968432 31.04770264 74.40294613 29 80 C28.34 79.01 27.68 78.02 27 77 C20.78595727 82.81949931 20.78595727 82.81949931 18 90.5625 C18 91.696875 18 92.83125 18 94 C18.99 91.36 19.98 88.72 21 86 C21.66 86.66 22.32 87.32 23 88 C23.598125 87.175 24.19625 86.35 24.8125 85.5 C25.534375 84.675 26.25625 83.85 27 83 C27.99 83 28.98 83 30 83 C31.0260734 81.68662604 32.02727325 80.35335895 33 79 C33.66 79 34.32 79 35 79 C36.38938077 77.03852126 37.7260411 75.03833424 39 73 C39.33 73.99 39.66 74.98 40 76 C38.85546875 77.75390625 38.85546875 77.75390625 37.1875 79.5625 C36.64480469 80.16191406 36.10210937 80.76132813 35.54296875 81.37890625 C34.37872567 82.60209834 33.19408141 83.80591859 32 85 C33.98 84.67 35.96 84.34 38 84 C37.67 84.66 37.34 85.32 37 86 C35.04183114 86.57678022 33.0566772 87.06369964 31.0625 87.5 C26.55264579 88.35177899 26.55264579 88.35177899 23 91 C23.33 91.66 23.66 92.32 24 93 C23.01 93.61875 22.02 94.2375 21 94.875 C20.01 95.57625 19.02 96.2775 18 97 C18 97.66 18 98.32 18 99 C19.32 98.67 20.64 98.34 22 98 C19.97109086 100.02890914 17.96126234 102.0343105 15.8125 103.9375 C13.7296657 106.30762179 13.34397343 107.90423916 13 111 C16.78471745 109.63912664 19.8006692 107.90678334 23.0625 105.5625 C23.89910156 104.96566406 24.73570313 104.36882812 25.59765625 103.75390625 C27.74503234 102.18614712 29.87830872 100.60229341 32 99 C32.66 99.33 33.32 99.66 34 100 C28.94826583 104.59248561 23.63014112 108.31280649 17.8671875 111.97265625 C11.76332905 116.28859976 7.94657885 120.75447131 6 128 C5.53565553 132.47465005 5.44863642 136.92035941 5.44238281 141.41357422 C5.43405193 145.07999498 5.35881122 148.74472468 5.27734375 152.41015625 C5.2614621 153.14114532 5.24558044 153.8721344 5.22921753 154.62527466 C4.98035712 164.02274292 3.73610713 173.28347312 2.3359375 182.5703125 C2.00953328 184.93105002 1.79631656 187.2821699 1.59375 189.65625 C1.20421461 193.39323946 0.15046607 196.42784614 -1.26025391 199.88818359 C-2.66794803 203.90684834 -3.11963614 208.10782499 -3.6875 212.3125 C-3.88182617 213.65151367 -3.88182617 213.65151367 -4.08007812 215.01757812 C-4.55890254 218.38454983 -5 221.59466833 -5 225 C-5.33 225.99 -5.66 226.98 -6 228 C-6.22111552 230.50785332 -6.39790503 232.99923163 -6.53515625 235.51171875 C-6.57813339 236.23994339 -6.62111053 236.96816803 -6.66539001 237.71846008 C-6.80159158 240.0412692 -6.93211589 242.36435778 -7.0625 244.6875 C-7.15392279 246.26369362 -7.24571525 247.83986584 -7.33789062 249.41601562 C-7.56288191 253.27710871 -7.78278256 257.13846209 -8 261 C-8.66 261 -9.32 261 -10 261 C-9.99887207 260.41734375 -9.99774414 259.8346875 -9.99658203 259.234375 C-10.05421709 246.48449659 -10.3664821 234.23695058 -17 223 C-18.98262083 221.38137596 -20.78535022 220.43679427 -23.109375 219.39453125 C-26.71174215 216.73741333 -27.56205566 212.27393629 -28.89453125 208.15625 C-29.88030312 204.98052789 -29.88030312 204.98052789 -31.6484375 202.328125 C-33.67754784 198.83289448 -32.78886355 195.77050037 -32 192 C-31.82726563 191.16984375 -31.65453125 190.3396875 -31.4765625 189.484375 C-31.00629496 187.31705503 -30.51433811 185.15722393 -30 183 C-29.34 183 -28.68 183 -28 183 C-27.773125 184.01835937 -27.54625 185.03671875 -27.3125 186.0859375 C-26.09085134 190.35955702 -23.82002605 193.25708317 -21 196.625 C-16.19063457 202.45120269 -13.68236916 206.30207229 -14.125 214 C-14.27354921 221.22114208 -12.46774166 227.26879396 -10 234 C-9.91435791 233.40985107 -9.82871582 232.81970215 -9.74047852 232.21166992 C-9.35064401 229.53652607 -8.95661986 226.86201571 -8.5625 224.1875 C-8.42779297 223.25873047 -8.29308594 222.32996094 -8.15429688 221.37304688 C-8.02216797 220.48037109 -7.89003906 219.58769531 -7.75390625 218.66796875 C-7.57323608 217.43469849 -7.57323608 217.43469849 -7.38891602 216.17651367 C-7 214 -7 214 -6 211 C-4.98575989 200.37541914 -7.38093031 190.13098825 -13 181 C-15.34207681 178.74156879 -17.40502625 177.83062539 -20.4375 176.5625 C-24.88450443 174.61205946 -28.16367452 172.93705626 -30.13671875 168.3671875 C-30.42160156 167.58601562 -30.70648438 166.80484375 -31 166 C-30.26394531 166.47050781 -29.52789062 166.94101563 -28.76953125 167.42578125 C-27.30580078 168.35970703 -27.30580078 168.35970703 -25.8125 169.3125 C-24.84957031 169.92738281 -23.88664062 170.54226562 -22.89453125 171.17578125 C-20.28365697 172.82123103 -17.6530398 174.42369665 -15 176 C-15.33 174.02 -15.66 172.04 -16 170 C-9.85575997 177.53337256 -7.19385549 187.93587382 -4 197 C0.39235603 192.60764397 0.30233895 177.48512769 0.5625 171.625 C0.36699297 164.50528583 -1.86601209 159.71007079 -6 154 C-6.928125 152.70255859 -6.928125 152.70255859 -7.875 151.37890625 C-14.75782401 142.81448319 -24.33229783 137.82803395 -34.625 134.3125 C-41.71211687 131.556399 -44.05957965 126.19135533 -47.3828125 119.77734375 C-48.95329362 117.08021313 -50.61958663 115.01743166 -52.75 112.75 C-56.9368285 108.21195851 -57.92955057 104.21915695 -58.125 98.0625 C-58.08375 97.051875 -58.0425 96.04125 -58 95 C-49.71037777 98.24628563 -41.97575971 102.4754706 -34.25 106.875 C-33.5290918 107.27332031 -32.80818359 107.67164062 -32.06542969 108.08203125 C-27.01414344 111.00584557 -23.51793918 114.35141466 -20 119 C-23.40212299 117.38617243 -26.10324519 115.41396234 -29 113 C-29.66 113.99 -30.32 114.98 -31 116 C-31.53625 114.906875 -32.0725 113.81375 -32.625 112.6875 C-34.72529475 108.95532156 -36.969086 107.55739859 -41 106 C-39.68 108.97 -38.36 111.94 -37 115 C-36.01 115 -35.02 115 -34 115 C-32.98594743 116.32267727 -31.98731742 117.65724831 -31 119 C-28.91665365 120.2516467 -28.91665365 120.2516467 -27 121 C-27 121.66 -27 122.32 -27 123 C-26.34 123 -25.68 123 -25 123 C-25 123.66 -25 124.32 -25 125 C-24.01 125.33 -23.02 125.66 -22 126 C-21.67 126.66 -21.34 127.32 -21 128 C-20.67 126.35 -20.34 124.7 -20 123 C-18.1379502 126.52344767 -16.95892556 130.08346273 -15.78125 133.87890625 C-15.00127875 136.25043123 -15.00127875 136.25043123 -13 139 C-12.67 137.68 -12.34 136.36 -12 135 C-11.63648438 135.97839844 -11.27296875 136.95679688 -10.8984375 137.96484375 C-8.28078762 144.84715476 -5.68669002 151.1850757 -1.296875 157.16796875 C0.02866289 159.04049066 0.99657165 160.94115909 2 163 C2.93764647 135.21497856 2.93764647 135.21497856 -1.47851562 107.92626953 C-1.9897116 106.03800348 -2.41002407 104.12588054 -2.828125 102.21484375 C-3.83637471 96.10913909 -3.83637471 96.10913909 -8 92 C-9.54256057 91.54681542 -11.1048671 91.15860226 -12.67578125 90.81640625 C-13.58650391 90.61080078 -14.49722656 90.40519531 -15.43554688 90.19335938 C-17.34151767 89.77541738 -19.247765 89.35873436 -21.15429688 88.94335938 C-27.48798807 87.51057934 -32.55558776 85.62960816 -38 82 C-38 81.34 -38 80.68 -38 80 C-29.585 81.485 -29.585 81.485 -21 83 C-22.32 82.34 -23.64 81.68 -25 81 C-32.88859087 75.8492142 -39.22141467 71.34615065 -42 62 C-41.67 61.01 -41.34 60.02 -41 59 C-37 64.75 -37 64.75 -37 67 C-36.13375 67.37125 -36.13375 67.37125 -35.25 67.75 C-32.6997003 69.16683317 -30.98214299 70.87627537 -29 73 C-29.29116699 72.41895508 -29.58233398 71.83791016 -29.88232422 71.23925781 C-30.56789401 69.86572218 -31.25002697 68.49045637 -31.92626953 67.11230469 C-37.62502525 55.39543867 -37.62502525 55.39543867 -46.16796875 45.6953125 C-48.12395853 43.88529211 -49.49732376 42.00778443 -51 39.8125 C-53.562651 36.24707251 -56.24333462 34.31244799 -60.03125 32.15625 C-63.01702339 30.40270055 -65.45895748 28.35046433 -68 26 C-68 25.34 -68 24.68 -68 24 C-64.7 24 -61.4 24 -58 24 C-58 24.33 -58 24.66 -58 25 C-60.31 25 -62.62 25 -65 25 C-62.7176487 27.53920756 -60.46989803 28.84663245 -57.4375 30.375 C-52.09529146 33.47441545 -49.10884013 37.34811724 -45.54516602 42.23950195 C-40.56222431 49.0660829 -35.03808186 54.07400367 -27 57 C-24.16309163 57.34012959 -24.16309163 57.34012959 -22 57 C-22 56.01 -22 55.02 -22 54 C-20.88625 53.731875 -19.7725 53.46375 -18.625 53.1875 C-14.78159049 52.34190981 -14.78159049 52.34190981 -13 49 C-12.34 49 -11.68 49 -11 49 C-10.89042969 48.32195313 -10.78085938 47.64390625 -10.66796875 46.9453125 C-9.85579432 42.17791464 -8.94587671 37.64112169 -7.375 33.0625 C-4.89378504 25.08716621 -4.99492761 16.56548325 -7.93359375 8.71484375 C-9.01023086 6.64572142 -9.01023086 6.64572142 -12.1875 5.4375 C-13.115625 5.293125 -14.04375 5.14875 -15 5 C-15 4.67 -15 4.34 -15 4 C-9.375 3.75 -9.375 3.75 -6 6 C-0.66531571 6.38464895 -0.66531571 6.38464895 4 4 C2.68 2.68 1.36 1.36 0 0 Z " transform="translate(75,6)" style="fill: #575757;"/><path d="M0 0 C1.125 3.75 1.125 3.75 0 6 C0.90878906 5.566875 0.90878906 5.566875 1.8359375 5.125 C8.11391646 2.3433724 13.16245253 1.47627296 20 2 C20.495 3.485 20.495 3.485 21 5 C22.99665314 6.68538601 22.99665314 6.68538601 25 8 C19.95258476 10.44723163 15.33646866 10.77882289 10 9 C10.474375 9.9075 10.94875 10.815 11.4375 11.75 C16.21142206 21.67975788 14.15637378 31.69149415 11.375 41.9375 C11.02199829 43.30539673 11.02199829 43.30539673 10.66186523 44.70092773 C8.95088061 50.61523307 7.24067205 53.66251938 2 57 C-0.875 57.3125 -0.875 57.3125 -3 57 C-3 57.66 -3 58.32 -3 59 C-2.01 59.495 -2.01 59.495 -1 60 C-6.08542321 61.58213166 -8.76519183 60.96863102 -13.5 58.5 C-20.67633176 54.22161395 -25.07960822 49.40239526 -29.6875 42.5 C-33.50533825 37.0255061 -37.75612938 34.32641471 -43.65625 31.33984375 C-44.4296875 30.89769531 -45.203125 30.45554687 -46 30 C-46 29.34 -46 28.68 -46 28 C-46.99 27.67 -47.98 27.34 -49 27 C-49 26.01 -49 25.02 -49 24 C-47.33984375 23.34895833 -45.6796875 22.69791667 -44.01953125 22.046875 C-41.83791871 21.02097006 -41.83791871 21.02097006 -39.75 19 C-36.37816761 16.54775826 -33.21263514 15.8937187 -29.1875 15.25 C-28.51396484 15.12496094 -27.84042969 14.99992187 -27.14648438 14.87109375 C-22.38072428 14.0410762 -17.83425125 13.8917301 -13 14 C-13 13.34 -13 12.68 -13 12 C-13.61875 11.95875 -14.2375 11.9175 -14.875 11.875 C-15.57625 11.58625 -16.2775 11.2975 -17 11 C-18.25 7.9375 -18.25 7.9375 -19 5 C-17.02 6.32 -15.04 7.64 -13 9 C-12.34 8.01 -11.68 7.02 -11 6 C-10.01 6.33 -9.02 6.66 -8 7 C-7.505 8.485 -7.505 8.485 -7 10 C-6.01 7.36 -5.02 4.72 -4 2 C-3.34 2.66 -2.68 3.32 -2 4 C-1.34 2.68 -0.68 1.36 0 0 Z " transform="translate(56,3)" style="fill: #666666;"/><path d="M0 0 C5.84464208 11.18105441 4.60980125 21.0211611 1.375 32.9375 C1.13966553 33.84943115 0.90433105 34.7613623 0.66186523 35.70092773 C-1.0319631 41.55592948 -2.64448157 44.87707175 -8 48 C-10.640625 48.2109375 -10.640625 48.2109375 -13 47 C-14.48287744 44.86007523 -15.60880454 42.93488596 -16.75 40.625 C-19.99104153 34.48162748 -23.63108065 29.45123363 -28.21484375 24.20703125 C-30.71311383 21.11836037 -31.20535803 18.4316418 -31.375 14.5625 C-31.42398438 13.80066406 -31.47296875 13.03882813 -31.5234375 12.25390625 C-31 10 -31 10 -29.08984375 7.76171875 C-24.79499377 5.31294841 -21.0548287 5.32985178 -16.1875 5.25 C-14.86202148 5.20552734 -14.86202148 5.20552734 -13.50976562 5.16015625 C-11.34032782 5.0897961 -9.17016052 5.04259393 -7 5 C-9.475 4.505 -9.475 4.505 -12 4 C-8.41084094 -0.78554541 -5.58334594 -0.37222306 0 0 Z " transform="translate(66,12)" style="fill: #F4F4F4;"/><path d="M0 0 C8.28962223 3.24628563 16.02424029 7.4754706 23.75 11.875 C24.4709082 12.27332031 25.19181641 12.67164062 25.93457031 13.08203125 C30.98585656 16.00584557 34.48206082 19.35141466 38 24 C34.59787701 22.38617243 31.89675481 20.41396234 29 18 C28.34 18.99 27.68 19.98 27 21 C26.46375 19.906875 25.9275 18.81375 25.375 17.6875 C23.27470525 13.95532156 21.030914 12.55739859 17 11 C18.32 13.97 19.64 16.94 21 20 C21.99 20 22.98 20 24 20 C25.01405257 21.32267727 26.01268258 22.65724831 27 24 C29.08334635 25.2516467 29.08334635 25.2516467 31 26 C31 26.66 31 27.32 31 28 C31.66 28 32.32 28 33 28 C33 28.66 33 29.32 33 30 C33.99 30.33 34.98 30.66 36 31 C36.495 31.99 36.495 31.99 37 33 C37.33 31.35 37.66 29.7 38 28 C39.84284391 31.4950488 41.03462223 35.02293144 42.21875 38.78125 C42.93427261 41.01134436 42.93427261 41.01134436 44.09375 42.96875 C45.19227978 45.43097192 45.14816443 47.33304032 45 50 C44.03320312 49.46890625 43.06640625 48.9378125 42.0703125 48.390625 C33.43137769 43.65891916 33.43137769 43.65891916 24.375 39.8125 C16.80239667 36.88842545 14.20580819 31.70356762 10.6171875 24.77734375 C9.04670638 22.08021313 7.38041337 20.01743166 5.25 17.75 C1.0631715 13.21195851 0.07044943 9.21915695 -0.125 3.0625 C-0.08375 2.051875 -0.0425 1.04125 0 0 Z " transform="translate(17,101)" style="fill: #8C8C8C;"/><path d="M0 0 C1.78108519 2.40446501 2.01170599 3.75692851 1.8671875 6.7578125 C0.78541973 10.80225955 -1.39499614 13.15466235 -4.125 16.1875 C-9.50789172 22.48305592 -12.25555855 28.85076064 -14.54150391 36.77807617 C-15.22355907 38.99143895 -15.86943774 40.97794468 -17 43 C-21.01596833 45.08851134 -23.67933065 45.2707851 -28 44 C-27.66335797 38.6485525 -27.00732779 33.70146455 -25.4375 28.5625 C-23.24805412 20.99603263 -22.97756262 14.29719941 -26 7 C-26 6.01 -26 5.02 -26 4 C-25.01773438 3.83564453 -25.01773438 3.83564453 -24.015625 3.66796875 C-17.75097752 2.57961898 -11.65874867 1.18946838 -5.53125 -0.51171875 C-3 -1 -3 -1 0 0 Z " transform="translate(95,10)" style="fill: #F9F9F9;"/><path d="M0 0 C0.12117188 0.60328125 0.24234375 1.2065625 0.3671875 1.828125 C0.53476563 2.62734375 0.70234375 3.4265625 0.875 4.25 C1.11863281 5.43335938 1.11863281 5.43335938 1.3671875 6.640625 C1.90323338 9.0018501 1.90323338 9.0018501 3.0625 10.96875 C4.24156935 13.52340026 4.19865409 15.4511445 4.125 18.25 C4.10695312 19.14203125 4.08890625 20.0340625 4.0703125 20.953125 C4.04710937 21.62859375 4.02390625 22.3040625 4 23 C3.67 23 3.34 23 3 23 C2.80083984 21.95199219 2.80083984 21.95199219 2.59765625 20.8828125 C2.42105469 19.97273438 2.24445313 19.06265625 2.0625 18.125 C1.88847656 17.22007813 1.71445313 16.31515625 1.53515625 15.3828125 C1.10036299 13.00043683 1.10036299 13.00043683 0 11 C0.33 11.99 0.66 12.98 1 14 C1.98339376 21.65642283 0.35420829 27.62200476 -4 34 C-4.99 34.66 -5.98 35.32 -7 36 C-7.66 37.32 -8.32 38.64 -9 40 C-10.485 35.545 -10.485 35.545 -12 31 C-12 32.65 -12 34.3 -12 36 C-15.49999654 32.82092005 -16.98593331 29.23648511 -19 25 C-18.01 27.97 -17.02 30.94 -16 34 C-23.40980242 27.00185327 -25.90599893 20.80373229 -28 11 C-27.40832031 10.84144531 -26.81664062 10.68289062 -26.20703125 10.51953125 C-20.81648541 8.94514674 -20.81648541 8.94514674 -16.5625 5.375 C-13.2011704 2.25962135 -10.76244036 2.36700056 -6.3046875 2.23828125 C-3.75713864 1.97489061 -2.34534741 0 0 0 Z " transform="translate(79,55)" style="fill: #EFEFEF;"/><path d="M0 0 C1.01900391 0.49886719 1.01900391 0.49886719 2.05859375 1.0078125 C6.60718668 2.54213203 10.97892664 1.93282142 15.72265625 1.6796875 C19 2 19 2 21.40234375 3.796875 C23.74604747 7.02877939 23.53866816 9.09465585 23 13 C21.29738548 16.12145995 19.51555345 18.47527663 17.0234375 21.01171875 C8.84985349 30.24043815 9.3459503 41.17058721 9 53 C8.67 53 8.34 53 8 53 C7.67 48.71 7.34 44.42 7 40 C6.34221861 51.41445425 6.34221861 51.41445425 10 62 C11.53266582 58.93466836 11.10276471 55.73245728 11.0625 52.375 C11.05798828 51.66859375 11.05347656 50.9621875 11.04882812 50.234375 C11.03703875 48.48954725 11.01910324 46.744763 11 45 C15.57084744 49.44078267 17.08757468 52.54707698 17.375 58.9375 C17.29006767 63.69371067 16.07734389 66.28908531 13 70 C12.34 70.99 11.68 71.98 11 73 C14.96 69.7 18.92 66.4 23 63 C23.99 63.495 23.99 63.495 25 64 C20.59822412 72.16645261 14.52828872 76.77842927 7 82 C6.26007813 82.58007812 5.52015625 83.16015625 4.7578125 83.7578125 C3 85 3 85 1 85 C2.65167557 81.4213696 4.78286492 78.25179812 7 75 C6.01 75 5.02 75 4 75 C4.05220703 73.85724609 4.05220703 73.85724609 4.10546875 72.69140625 C4.28540828 65.82799861 3.68742704 60.33464945 1 54 C3.47859908 56.2008849 4.61210366 58.06372969 5.6875 61.1875 C5.93886719 61.90292969 6.19023438 62.61835937 6.44921875 63.35546875 C6.63097656 63.89816406 6.81273437 64.44085938 7 65 C6.34728444 61.48294042 5.48606976 58.10674923 4.4375 54.6875 C4.16808594 53.80449219 3.89867188 52.92148437 3.62109375 52.01171875 C3.41613281 51.34785156 3.21117188 50.68398438 3 50 C2.01 50.66 1.02 51.32 0 52 C-2.3046875 52.23828125 -2.3046875 52.23828125 -4.875 52.3125 C-8.88285642 52.62259692 -9.80075801 52.83735347 -13.0625 55.5 C-13.701875 56.325 -14.34125 57.15 -15 58 C-16 59 -16 59 -18.06640625 59.09765625 C-18.89011719 59.08605469 -19.71382812 59.07445312 -20.5625 59.0625 C-21.38878906 59.05347656 -22.21507812 59.04445312 -23.06640625 59.03515625 C-23.70449219 59.02355469 -24.34257813 59.01195312 -25 59 C-25.33 59.66 -25.66 60.32 -26 61 C-26.495 59.515 -26.495 59.515 -27 58 C-24.525 57.505 -24.525 57.505 -22 57 C-22 56.01 -22 55.02 -22 54 C-20.88625 53.731875 -19.7725 53.46375 -18.625 53.1875 C-14.78159049 52.34190981 -14.78159049 52.34190981 -13 49 C-12.34 49 -11.68 49 -11 49 C-10.83564453 47.98292969 -10.83564453 47.98292969 -10.66796875 46.9453125 C-9.85579432 42.17791464 -8.94587671 37.64112169 -7.375 33.0625 C-4.89378504 25.08716621 -4.99492761 16.56548325 -7.93359375 8.71484375 C-9.01023086 6.64572142 -9.01023086 6.64572142 -12.1875 5.4375 C-13.115625 5.293125 -14.04375 5.14875 -15 5 C-15 4.67 -15 4.34 -15 4 C-9.375 3.75 -9.375 3.75 -6 6 C-0.66531571 6.38464895 -0.66531571 6.38464895 4 4 C2.68 2.68 1.36 1.36 0 0 Z M11.625 4.375 C5.78785354 5.85178406 -0.06328663 7.00665229 -6 8 C-5.47731534 10.76276177 -4.89130413 13.3260876 -4 16 C-3.12643627 23.96231854 -4.83279886 30.96641012 -7.125 38.51953125 C-7.96105847 41.84510313 -8.16705762 44.59098047 -8 48 C-3.67499799 49.27205942 -1.01582302 49.10106204 3 47 C4.60837482 44.1583566 5.44846702 41.11939669 6.375 38 C9.03285274 29.92615968 12.28617596 24.34457085 18 18 C20.28564499 14.84630951 22.02883096 12.26856217 21.9375 8.25 C20.94585353 5.87004848 20.01286391 4.59351726 18 3 C15.86564832 3 13.66938455 3.84419579 11.625 4.375 Z " transform="translate(75,6)" style="fill: #6F6F6F;"/><path d="M0 0 C1.1547958 3.46438739 0.80087028 4.35012557 -0.25 7.75 C-1.61932376 12.37377038 -2.51912777 16.93201735 -3.3125 21.6875 C-5.02258121 30.33437217 -7.95638564 35.09515131 -15.1875 40.0625 C-16.78819382 41.04733366 -18.3926463 42.02607385 -20 43 C-20.95132813 43.63550781 -21.90265625 44.27101562 -22.8828125 44.92578125 C-23.84960938 45.56902344 -24.81640625 46.21226563 -25.8125 46.875 C-26.70582031 47.47054687 -27.59914063 48.06609375 -28.51953125 48.6796875 C-31 50 -31 50 -35 50 C-33.79444959 43.85169289 -32.08441876 41.64751781 -27 38 C-28.32 38.66 -29.64 39.32 -31 40 C-29.67195173 36.0158552 -28.0400628 33.85581657 -25 31 C-24.566875 30.29875 -24.13375 29.5975 -23.6875 28.875 C-21.22776519 26.14196132 -18.50661088 25.79394963 -15 25 C-15.99 24.67 -16.98 24.34 -18 24 C-17.43410156 23.60167969 -16.86820313 23.20335938 -16.28515625 22.79296875 C-15.55167969 22.26316406 -14.81820312 21.73335937 -14.0625 21.1875 C-12.96615234 20.40439453 -12.96615234 20.40439453 -11.84765625 19.60546875 C-9.73116774 18.04132873 -9.73116774 18.04132873 -9 15 C-10.0828125 16.11375 -10.0828125 16.11375 -11.1875 17.25 C-18.09090909 24 -18.09090909 24 -21 24 C-22.47625203 25.45626572 -22.47625203 25.45626572 -23.9375 27.3125 C-25.86463171 29.66350211 -27.81719293 31.88235135 -30 34 C-30.10709622 27.36003413 -28.9525538 24.39839767 -24.4375 19.4375 C-22.97667749 17.9402139 -21.50326228 16.45467198 -20 15 C-19.34 15.33 -18.68 15.66 -18 16 C-17.62488281 15.52949219 -17.24976562 15.05898437 -16.86328125 14.57421875 C-13.81892322 10.87037762 -11.20741339 8.37341268 -7 6 C-5.31384218 4.35305515 -3.64429829 2.68873879 -2 1 C-1.34 0.67 -0.68 0.34 0 0 Z " transform="translate(122,67)" style="fill: #E1E1E1;"/><path d="M0 0 C3.3 0 6.6 0 10 0 C10 0.33 10 0.66 10 1 C7.69 1 5.38 1 3 1 C5.2823513 3.53920756 7.53010197 4.84663245 10.5625 6.375 C15.90470854 9.47441545 18.89115987 13.34811724 22.45483398 18.23950195 C27.25880328 24.82089246 31.9041402 28.87453032 39.3984375 32.04296875 C41 33 41 33 42 36 C44.475 35.505 44.475 35.505 47 35 C46.01 35.33 45.02 35.66 44 36 C44.878664 38.56956379 45.77686889 41.12927227 46.6875 43.6875 C47.05391602 44.7693457 47.05391602 44.7693457 47.42773438 45.87304688 C49.17977552 50.72997106 51.08475239 53.61834661 55 57 C54.484375 55.906875 53.96875 54.81375 53.4375 53.6875 C52 50 52 50 53 47 C54.98 51.29 56.96 55.58 59 60 C59 57.36 59 54.72 59 52 C61.7865517 54.7865517 61.65662895 57.15424427 62 61 C61.505 61.99 61.505 61.99 61 63 C60.01 63 59.02 63 58 63 C58 63.66 58 64.32 58 65 C58.66 65 59.32 65 60 65 C60 65.66 60 66.32 60 67 C53.58200793 66.83029348 47.72448633 65.5102579 41.625 63.625 C40.93535156 63.41593018 40.24570312 63.20686035 39.53515625 62.99145508 C35.89001196 61.8229224 32.78944283 60.67500415 30 58 C30 57.34 30 56.68 30 56 C35.61 56.99 41.22 57.98 47 59 C45.68 58.34 44.36 57.68 43 57 C35.11140913 51.8492142 28.77858533 47.34615065 26 38 C26.33 37.01 26.66 36.02 27 35 C31 40.75 31 40.75 31 43 C31.5775 43.2475 32.155 43.495 32.75 43.75 C35.3002997 45.16683317 37.01785701 46.87627537 39 49 C38.70883301 48.41895508 38.41766602 47.83791016 38.11767578 47.23925781 C37.43210599 45.86572218 36.74997303 44.49045637 36.07373047 43.11230469 C30.37497475 31.39543867 30.37497475 31.39543867 21.83203125 21.6953125 C19.87604147 19.88529211 18.50267624 18.00778443 17 15.8125 C14.437349 12.24707251 11.75666538 10.31244799 7.96875 8.15625 C4.98297661 6.40270055 2.54104252 4.35046433 0 2 C0 1.34 0 0.68 0 0 Z " transform="translate(7,30)" style="fill: #5F5F5F;"/><path d="M0 0 C0.268125 0.60585938 0.53625 1.21171875 0.8125 1.8359375 C3.0788784 6.68181236 5.4990893 10.82592636 8.9375 14.9375 C19 26.9857685 19 26.9857685 19 33 C17.824375 32.505 17.824375 32.505 16.625 32 C14.15667503 30.88133489 14.15667503 30.88133489 12 31 C14.31 31.99 16.62 32.98 19 34 C19 34.33 19 34.66 19 35 C13.52351051 35.86470887 10.06790074 33.82290589 5.59375 30.97265625 C-0.02977319 26.69572973 -4.62942996 21.32457021 -8.3125 15.3125 C-11.2357495 10.9067454 -15.98511243 8.88722059 -20.55078125 6.48046875 C-21.35902344 5.99191406 -22.16726562 5.50335938 -23 5 C-23 4.34 -23 3.68 -23 3 C-21.21142578 2.80083984 -21.21142578 2.80083984 -19.38671875 2.59765625 C-17.82029322 2.41944017 -16.25388802 2.24104544 -14.6875 2.0625 C-13.90181641 1.97548828 -13.11613281 1.88847656 -12.30664062 1.79882812 C-11.54931641 1.71181641 -10.79199219 1.62480469 -10.01171875 1.53515625 C-9.31522217 1.456604 -8.61872559 1.37805176 -7.90112305 1.29711914 C-5.07802665 0.85590836 -2.91558402 0 0 0 Z " transform="translate(33,28)" style="fill: #F3F3F3;"/><path d="M0 0 C2.92742101 21.22380229 2.92742101 21.22380229 -3.64453125 30.76171875 C-5.91973766 34.51875988 -5.77828403 36.68406129 -5 41 C-3.8213606 42.87124194 -2.51153698 44.5481771 -1.125 46.26953125 C0.77483307 49.19184392 0.51363147 51.66139542 0 55 C-2.20571912 57.89675138 -4.27080135 58.51833509 -7.75 59.3125 C-13.02012276 60.76659227 -16.21539154 63.1451203 -20 67 C-20.55816406 67.556875 -21.11632812 68.11375 -21.69140625 68.6875 C-22.12324219 69.120625 -22.55507812 69.55375 -23 70 C-21.58832253 64.73829306 -19.25149768 61.27828642 -16 57 C-15.67 57.66 -15.34 58.32 -15 59 C-14.27683594 58.45859375 -14.27683594 58.45859375 -13.5390625 57.90625 C-12.90742187 57.4421875 -12.27578125 56.978125 -11.625 56.5 C-10.99851562 56.0359375 -10.37203125 55.571875 -9.7265625 55.09375 C-8 54 -8 54 -6 54 C-6 54.66 -6 55.32 -6 56 C-4.68 55.34 -3.36 54.68 -2 54 C-2.45662115 49.89040961 -2.80567981 47.68322896 -6 45 C-7.76644008 42.35033987 -8.88971705 40.05918701 -10.0625 37.125 C-10.57490234 35.86042969 -10.57490234 35.86042969 -11.09765625 34.5703125 C-14.08775772 26.05305376 -13.70954378 18.1668612 -10 10 C-4.02321083 0 -4.02321083 0 0 0 Z " transform="translate(99,128)" style="fill: #676767;"/><path d="M0 0 C0.66 0 1.32 0 2 0 C2.226875 1.01835937 2.45375 2.03671875 2.6875 3.0859375 C3.90914866 7.35955702 6.17997395 10.25708317 9 13.625 C14.10296947 19.80688302 16.32008589 23.83780987 16 32 C15.67 32 15.34 32 15 32 C14.566875 33.4540625 14.566875 33.4540625 14.125 34.9375 C13 38 13 38 11 39 C7.05721899 37.25784095 5.46327134 35.98316473 3.59375 32.015625 C2.75423958 29.75304204 1.94688139 27.47820837 1.17578125 25.19140625 C0.11702398 21.98984385 0.11702398 21.98984385 -1.65625 19.32421875 C-3.67601508 15.83072972 -2.78780526 12.76544207 -2 9 C-1.82726563 8.16984375 -1.65453125 7.3396875 -1.4765625 6.484375 C-1.00629496 4.31705503 -0.51433811 2.15722393 0 0 Z " transform="translate(45,189)" style="fill: #C5C5C5;"/><path d="M0 0 C1.01900391 0.49886719 1.01900391 0.49886719 2.05859375 1.0078125 C6.60718668 2.54213203 10.97892664 1.93282142 15.72265625 1.6796875 C19 2 19 2 21.40234375 3.796875 C23.74604747 7.02877939 23.53866816 9.09465585 23 13 C21.76117712 15.32279289 20.63504999 16.98313889 19 19 C17.98679687 20.28583984 17.98679687 20.28583984 16.953125 21.59765625 C14.98498518 24.07876869 12.99958212 26.54420254 11 29 C10.505 28.01 10.505 28.01 10 27 C10.68835938 26.14728516 10.68835938 26.14728516 11.390625 25.27734375 C18.52526998 17.11106225 18.52526998 17.11106225 20.75 7.0625 C20.5025 6.051875 20.255 5.04125 20 4 C17.93643105 4.2840051 15.8741715 4.57753352 13.8125 4.875 C12.66394531 5.03742187 11.51539063 5.19984375 10.33203125 5.3671875 C7.05639711 5.87903067 7.05639711 5.87903067 4.34375 7.0625 C1.9132967 8.03468132 0.28096698 8.21291413 -2.3125 8.125 C-3.529375 8.08375 -4.74625 8.0425 -6 8 C-5.505 9.093125 -5.01 10.18625 -4.5 11.3125 C-1.07498701 20.68621976 -3.3247699 29.29238415 -6.125 38.51953125 C-6.96105847 41.84510313 -7.16705762 44.59098047 -7 48 C-5.02 47.505 -5.02 47.505 -3 47 C-3 47.66 -3 48.32 -3 49 C-2.01 48.34 -1.02 47.68 0 47 C0.99 47 1.98 47 3 47 C3.33 45.68 3.66 44.36 4 43 C4.33 43 4.66 43 5 43 C5 45.97 5 48.94 5 52 C4.34 51.34 3.68 50.68 3 50 C2.01 50.66 1.02 51.32 0 52 C-2.3046875 52.23828125 -2.3046875 52.23828125 -4.875 52.3125 C-8.88285642 52.62259692 -9.80075801 52.83735347 -13.0625 55.5 C-13.701875 56.325 -14.34125 57.15 -15 58 C-16 59 -16 59 -18.06640625 59.09765625 C-18.89011719 59.08605469 -19.71382812 59.07445312 -20.5625 59.0625 C-21.38878906 59.05347656 -22.21507812 59.04445312 -23.06640625 59.03515625 C-23.70449219 59.02355469 -24.34257813 59.01195312 -25 59 C-25.33 59.66 -25.66 60.32 -26 61 C-26.495 59.515 -26.495 59.515 -27 58 C-24.525 57.505 -24.525 57.505 -22 57 C-22 56.01 -22 55.02 -22 54 C-20.88625 53.731875 -19.7725 53.46375 -18.625 53.1875 C-14.78159049 52.34190981 -14.78159049 52.34190981 -13 49 C-12.34 49 -11.68 49 -11 49 C-10.83564453 47.98292969 -10.83564453 47.98292969 -10.66796875 46.9453125 C-9.85579432 42.17791464 -8.94587671 37.64112169 -7.375 33.0625 C-4.89378504 25.08716621 -4.99492761 16.56548325 -7.93359375 8.71484375 C-9.01023086 6.64572142 -9.01023086 6.64572142 -12.1875 5.4375 C-13.115625 5.293125 -14.04375 5.14875 -15 5 C-15 4.67 -15 4.34 -15 4 C-9.375 3.75 -9.375 3.75 -6 6 C-0.66531571 6.38464895 -0.66531571 6.38464895 4 4 C2.68 2.68 1.36 1.36 0 0 Z " transform="translate(75,6)" style="fill: #6B6B6B;"/><path d="M0 0 C0.66 0.33 1.32 0.66 2 1 C1.38511719 1.43570313 0.77023438 1.87140625 0.13671875 2.3203125 C-4.61242872 5.81968432 -7.95229736 8.40294613 -10 14 C-10.66 13.01 -11.32 12.02 -12 11 C-18.21404273 16.81949931 -18.21404273 16.81949931 -21 24.5625 C-21 25.696875 -21 26.83125 -21 28 C-20.01 25.36 -19.02 22.72 -18 20 C-17.34 20.66 -16.68 21.32 -16 22 C-15.401875 21.175 -14.80375 20.35 -14.1875 19.5 C-13.1046875 18.2625 -13.1046875 18.2625 -12 17 C-11.01 17 -10.02 17 -9 17 C-7.9739266 15.68662604 -6.97272675 14.35335895 -6 13 C-5.34 13 -4.68 13 -4 13 C-2.61061923 11.03852126 -1.2739589 9.03833424 0 7 C0.33 7.99 0.66 8.98 1 10 C-0.14453125 11.75390625 -0.14453125 11.75390625 -1.8125 13.5625 C-2.35519531 14.16191406 -2.89789063 14.76132813 -3.45703125 15.37890625 C-4.62127433 16.60209834 -5.80591859 17.80591859 -7 19 C-5.02 18.67 -3.04 18.34 -1 18 C-1.33 18.66 -1.66 19.32 -2 20 C-3.95816886 20.57678022 -5.9433228 21.06369964 -7.9375 21.5 C-12.44735421 22.35177899 -12.44735421 22.35177899 -16 25 C-15.67 25.66 -15.34 26.32 -15 27 C-15.99 27.61875 -16.98 28.2375 -18 28.875 C-18.99 29.57625 -19.98 30.2775 -21 31 C-21 31.66 -21 32.32 -21 33 C-19.02 32.505 -19.02 32.505 -17 32 C-19.04368752 34.04368752 -21.08440618 36.07958297 -23.1875 38.0625 C-25.22022355 39.96539122 -25.22022355 39.96539122 -26 43 C-26.99 43.495 -26.99 43.495 -28 44 C-28.65555119 46.52733235 -28.65555119 46.52733235 -29 49 C-29.33 49 -29.66 49 -30 49 C-30.86773571 35.96468136 -28.39346769 26.2020295 -19.9453125 16.08984375 C-13.9993063 9.70206601 -7.38817393 4.61105891 0 0 Z " transform="translate(114,72)" style="fill: #868686;"/><path d="M0 0 C-2.98765432 13.98765432 -2.98765432 13.98765432 -7 18 C-9.96516229 19.04652787 -12.88431104 19.61386761 -16 20 C-15.278125 19.46375 -14.55625 18.9275 -13.8125 18.375 C-10.752158 15.7907112 -8.48779989 13.12751986 -6 10 C-6.680625 10.7425 -7.36125 11.485 -8.0625 12.25 C-10.51826028 14.71963463 -13.16300568 16.30860766 -16.23046875 17.97265625 C-20.98012916 20.73018536 -24.46413166 24.0691449 -27 29 C-27.97714065 26.45943431 -27.99124953 24.95187239 -27.5 22.25 C-25.47013879 17.85196738 -22.64945549 14.20241751 -19 11 C-18.01 11 -17.02 11 -16 11 C-14.52854426 9.59518354 -14.52854426 9.59518354 -13.1875 7.75 C-9.40540944 3.12327383 -6.20765026 0 0 0 Z " transform="translate(120,72)" style="fill: #E1E1E1;"/><path d="M0 0 C0.66 0 1.32 0 2 0 C4.07201049 4.14402097 3.49986618 9.02919003 2.38671875 13.41796875 C0.05104099 19.56069838 -3.12012168 22.28766903 -9 25 C-12.07123256 26.31511753 -15.1487582 27.58591962 -18.265625 28.7890625 C-20.85420413 29.93543326 -22.8236872 31.20713279 -25 33 C-23.61803331 28.61476492 -21.66321471 26.45982902 -18.1875 23.5 C-16.84365234 22.33210938 -16.84365234 22.33210938 -15.47265625 21.140625 C-14.65667969 20.43421875 -13.84070313 19.7278125 -13 19 C-6.90501737 13.17001661 -3.18165166 7.76796867 0 0 Z " transform="translate(96,195)" style="fill: #888888;"/><path d="M0 0 C4.95696581 1.23924145 7.11658466 2.78577758 10 7 C10.66 6.67 11.32 6.34 12 6 C12.44730469 6.39832031 12.89460938 6.79664062 13.35546875 7.20703125 C14.26232422 8.00173828 14.26232422 8.00173828 15.1875 8.8125 C16.07501953 9.59560547 16.07501953 9.59560547 16.98046875 10.39453125 C19.00147886 12.09779686 19.00147886 12.09779686 21.5625 13.3828125 C25.98426161 16.31648126 27.46400353 21.07201132 29 26 C29.35960054 29.38923505 29.33080775 32.61105842 29 36 C25.41424747 31.34252814 22.8656511 26.88642749 22 21 C21.34 21.66 20.68 22.32 20 23 C18.62437146 21.71034824 17.29233607 20.37310707 16 19 C16 18.34 16 17.68 16 17 C15.34 17 14.68 17 14 17 C13.67 16.34 13.34 15.68 13 15 C10.32382555 13.3178332 7.60668048 11.79177202 4.8125 10.3125 C0.9551252 7.14088072 0.80743008 4.84458048 0 0 Z " transform="translate(34,112)" style="fill: #EFEFEF;"/><path d="M0 0 C0.99 0 1.98 0 3 0 C1.92398161 2.34866959 0.75361671 4.34198656 -0.76171875 6.4453125 C-5.21958822 12.48873715 -5.21958822 12.48873715 -6.1875 19.6875 C-5.85361904 21.47105214 -5.44740374 23.24148796 -5 25 C-4.68324649 26.30069673 -4.366869 27.60148507 -4.05078125 28.90234375 C-3.54020325 30.97952803 -3.01998871 33.05107349 -2.46166992 35.1159668 C-1.53920823 38.55532676 -0.84137306 41.88791007 -0.4375 45.4296875 C-0.3952445 48.81003971 -0.3952445 48.81003971 1 50 C3.15294651 44.71169451 5.27933894 39.44876003 7 34 C8.32 34.66 9.64 35.32 11 36 C16.82665994 32.19648587 22.48221873 28.23982103 28 24 C28.66 24.33 29.32 24.66 30 25 C24.94826583 29.59248561 19.63014112 33.31280649 13.8671875 36.97265625 C8.53313836 40.74427955 5.53761053 44.20221262 3.1875 50.3125 C2.55908203 51.91544922 2.55908203 51.91544922 1.91796875 53.55078125 C1.61503906 54.35902344 1.31210938 55.16726562 1 56 C0.34 56 -0.32 56 -1 56 C-1.13575439 55.30551758 -1.27150879 54.61103516 -1.41137695 53.89550781 C-2.04189029 50.679703 -2.67717428 47.46485738 -3.3125 44.25 C-3.52583984 43.15816406 -3.73917969 42.06632812 -3.95898438 40.94140625 C-5.06178769 35.37801041 -6.21398878 29.82543596 -7.48046875 24.296875 C-7.69985107 23.32588867 -7.9192334 22.35490234 -8.14526367 21.35449219 C-8.85769794 18.66671561 -8.85769794 18.66671561 -12 17 C-12 16.01 -12 15.02 -12 14 C-12.66 14 -13.32 14 -14 14 C-14 13.34 -14 12.68 -14 12 C-13.01 12 -12.02 12 -11 12 C-10.67 11.34 -10.34 10.68 -10 10 C-9.67 10.66 -9.34 11.32 -9 12 C-8.34 10.02 -7.68 8.04 -7 6 C-6.34 6.66 -5.68 7.32 -5 8 C-4.67386719 7.4225 -4.34773438 6.845 -4.01171875 6.25 C-3.57472656 5.5075 -3.13773438 4.765 -2.6875 4 C-2.25824219 3.2575 -1.82898438 2.515 -1.38671875 1.75 C-0.92910156 1.1725 -0.47148438 0.595 0 0 Z " transform="translate(79,81)" style="fill: #5F5F5F;"/><path d="M0 0 C1.125 3.75 1.125 3.75 0 6 C0.60585938 5.71125 1.21171875 5.4225 1.8359375 5.125 C8.11391646 2.3433724 13.16245253 1.47627296 20 2 C20.33 2.99 20.66 3.98 21 5 C22.99665314 6.68538601 22.99665314 6.68538601 25 8 C20.8705512 10.00215699 17.56744115 10.33217754 13 10 C10.5625 9 10.5625 9 9 8 C9 8.33 9 8.66 9 9 C7.3603125 9.185625 7.3603125 9.185625 5.6875 9.375 C1.92618198 9.75464801 1.92618198 9.75464801 -1 12 C0.98 12.66 2.96 13.32 5 14 C5 14.33 5 14.66 5 15 C2.03 15 -0.94 15 -4 15 C-6.02892674 10.94214651 -6.16885197 8.3831949 -5 4 C-4.34 3.34 -3.68 2.68 -3 2 C-2.67 2.66 -2.34 3.32 -2 4 C-1.34 2.68 -0.68 1.36 0 0 Z " transform="translate(56,3)" style="fill: #8F8F8F;"/><path d="M0 0 C0.66 0.66 1.32 1.32 2 2 C1.625 5.625 1.625 5.625 1 9 C1.66 9 2.32 9 3 9 C3.20494027 12.68892489 2.80095325 14.79830534 1 18 C0.505 19.2375 0.505 19.2375 0 20.5 C-0.495 21.7375 -0.495 21.7375 -1 23 C-1.28875 23.7425 -1.5775 24.485 -1.875 25.25 C-3 27 -3 27 -5.125 27.75 C-6.053125 27.87375 -6.053125 27.87375 -7 28 C-8.14077657 24.57767028 -8.09815117 21.91326783 -8.0625 18.3125 C-8.05347656 17.13300781 -8.04445313 15.95351562 -8.03515625 14.73828125 C-8.02355469 13.83464844 -8.01195313 12.93101562 -8 12 C-7.34 11.67 -6.68 11.34 -6 11 C-5.67 11.66 -5.34 12.32 -5 13 C-5.061875 11.741875 -5.12375 10.48375 -5.1875 9.1875 C-5.19441779 5.26511516 -5.19441779 5.26511516 -3.625 3.125 C-3.08875 2.75375 -2.5525 2.3825 -2 2 C-1.34 1.34 -0.68 0.68 0 0 Z " transform="translate(96,133)" style="fill: #CACACA;"/><path d="M0 0 C5.4623482 3.7456102 8.91772977 8.75318931 11 15 C11.03954234 17.33299825 11.04401732 19.66708189 11 22 C10.67 22 10.34 22 10 22 C9.566875 23.4540625 9.566875 23.4540625 9.125 24.9375 C8 28 8 28 6 29 C1.03602446 26.35254638 -0.79102817 24.20149902 -2.65234375 18.90234375 C-3 17 -3 17 -2 14 C-1.5875 14.78375 -1.175 15.5675 -0.75 16.375 C1.0392777 19.05891656 2.04988139 19.88098949 5 21 C4.649375 20.401875 4.29875 19.80375 3.9375 19.1875 C3 17 3 17 4 14 C4.39434612 9.74106194 4.51721846 7.72733846 2 4.1875 C1.34 3.465625 0.68 2.74375 0 2 C0 1.34 0 0.68 0 0 Z " transform="translate(50,199)" style="fill: #909090;"/><path d="M0 0 C1 3 1 3 -0.125 6.5 C-3.04865982 11.95749833 -7.20884511 13.23053131 -12.9375 15 C-17.20225837 16.36724683 -21.08947985 17.82748881 -25 20 C-23.67195173 16.0158552 -22.0400628 13.85581657 -19 11 C-18.58492188 10.33097656 -18.16984375 9.66195312 -17.7421875 8.97265625 C-15.39522757 6.31522404 -13.50950062 6.14764412 -10.0625 5.5 C-5.39920291 4.62165904 -3.10107144 3.64656111 0 0 Z " transform="translate(116,87)" style="fill: #F3F3F3;"/><path d="M0 0 C-1.02871595 2.91018329 -2.19781918 5.48413504 -4 8 C-10.63386396 10.894777 -17.86670918 10.19573054 -25 10 C-17.42302907 2.21255766 -11.04593966 -0.58136525 0 0 Z " transform="translate(36,19)" style="fill: #E9E9E9;"/><path d="M0 0 C20.30146024 3.86319049 20.30146024 3.86319049 26 11.8125 C27.04387192 13.51554104 28.06128111 15.23681419 29 17 C24.70091749 17 22.62932713 15.2851319 19 13 C18.67 12.34 18.34 11.68 18 11 C16.0997888 10.49580286 14.17823792 10.07079607 12.25 9.6875 C6.9186275 8.43865293 4.2134265 7.43231242 1 3 C0.67 2.01 0.34 1.02 0 0 Z " transform="translate(32,130)" style="fill: #F6F6F6;"/><path d="M0 0 C0.33 0 0.66 0 1 0 C1 2.97 1 5.94 1 9 C0.34 8.34 -0.32 7.68 -1 7 C-1.99 7.66 -2.98 8.32 -4 9 C-6.3046875 9.23828125 -6.3046875 9.23828125 -8.875 9.3125 C-12.88285642 9.62259692 -13.80075801 9.83735347 -17.0625 12.5 C-17.701875 13.325 -18.34125 14.15 -19 15 C-20 16 -20 16 -22.06640625 16.09765625 C-22.89011719 16.08605469 -23.71382812 16.07445313 -24.5625 16.0625 C-25.38878906 16.05347656 -26.21507812 16.04445313 -27.06640625 16.03515625 C-28.02353516 16.01775391 -28.02353516 16.01775391 -29 16 C-29.33 16.66 -29.66 17.32 -30 18 C-30.33 17.01 -30.66 16.02 -31 15 C-29.35 14.67 -27.7 14.34 -26 14 C-26 13.01 -26 12.02 -26 11 C-24.329375 10.5978125 -24.329375 10.5978125 -22.625 10.1875 C-18.78159049 9.34190981 -18.78159049 9.34190981 -17 6 C-16.34 6 -15.68 6 -15 6 C-14.67 4.68 -14.34 3.36 -14 2 C-13.67 3.32 -13.34 4.64 -13 6 C-11.68 6.33 -10.36 6.66 -9 7 C-8.67 6.01 -8.34 5.02 -8 4 C-7.67 4.66 -7.34 5.32 -7 6 C-6.01 5.34 -5.02 4.68 -4 4 C-3.01 4 -2.02 4 -1 4 C-0.67 2.68 -0.34 1.36 0 0 Z " transform="translate(79,49)" style="fill: #2D2D2D;"/><path d="M0 0 C6.33465315 -0.58699489 9.46239064 0.99373245 14.4375 4.5 C15.07365234 4.92925781 15.70980469 5.35851562 16.36523438 5.80078125 C17.91995623 6.85284867 19.46140889 7.92448 21 9 C20.01 9.33 19.02 9.66 18 10 C19.1446875 10.4021875 19.1446875 10.4021875 20.3125 10.8125 C22.91229902 11.9612484 24.10215992 12.9685876 26 15 C7.56690294 11.2909012 7.56690294 11.2909012 2.5625 4.875 C1.68587272 3.2620058 0.82100252 1.64200504 0 0 Z " transform="translate(25,119)" style="fill: #F3F3F3;"/><path d="M0 0 C1.75376953 0.32484375 1.75376953 0.32484375 3.54296875 0.65625 C5.09110418 0.93772917 6.63928361 1.21896644 8.1875 1.5 C8.95642578 1.64308594 9.72535156 1.78617187 10.51757812 1.93359375 C13.68031392 2.50370063 16.55908975 3.01362363 19.78125 2.9140625 C22.72571053 3.02810851 24.02026741 4.07056832 26.3125 5.875 C27.00988281 6.40867187 27.70726563 6.94234375 28.42578125 7.4921875 C29.20501953 8.23855469 29.20501953 8.23855469 30 9 C30 9.66 30 10.32 30 11 C23.58200793 10.83029348 17.72448633 9.5102579 11.625 7.625 C10.93535156 7.41593018 10.24570312 7.20686035 9.53515625 6.99145508 C5.89001196 5.8229224 2.78944283 4.67500415 0 2 C0 1.34 0 0.68 0 0 Z " transform="translate(37,86)" style="fill: #828282;"/><path d="M0 0 C2.9665401 21.50741576 2.9665401 21.50741576 -3.59765625 30.8671875 C-5.33615089 33.51124898 -5.83458759 35.85716418 -6 39 C-6.33 39 -6.66 39 -7 39 C-7.33 36.69 -7.66 34.38 -8 32 C-7.34 32 -6.68 32 -6 32 C-4.33333538 28.07143339 -3.15256901 24.10602709 -2 20 C-1.34427209 17.99638693 -0.68124706 15.99508067 0 14 C-0.66 14 -1.32 14 -2 14 C-2 11.69 -2 9.38 -2 7 C-2.99 7.66 -3.98 8.32 -5 9 C-5.33 8.67 -5.66 8.34 -6 8 C-7.32229189 10.64458379 -7.09677194 12.67761301 -7.0625 15.625 C-7.05347656 16.62789062 -7.04445313 17.63078125 -7.03515625 18.6640625 C-7.02355469 19.43492187 -7.01195313 20.20578125 -7 21 C-7.45375 20.34 -7.9075 19.68 -8.375 19 C-8.91125 18.34 -9.4475 17.68 -10 17 C-10.66 17 -11.32 17 -12 17 C-11.43818225 13.12208721 -10.34625496 10.59084674 -8.125 7.375 C-7.61195312 6.61960938 -7.09890625 5.86421875 -6.5703125 5.0859375 C-2.74157303 0 -2.74157303 0 0 0 Z " transform="translate(99,128)" style="fill: #838383;"/><path d="M0 0 C2.06997885 1.78770901 2.98326179 2.95424891 3.9375 5.5625 C5.23439378 8.5377269 6.11392492 8.72673158 9 10 C9.639375 10.66 10.27875 11.32 10.9375 12 C13.21664736 14.21008229 15.02934396 14.96027039 18 16 C21.80534728 17.4990762 23.58983885 19.72906701 26 23 C21.89595633 24.36801456 20.19767961 23.09399392 16.4140625 21.30078125 C8.47733686 17.02419607 2.85212326 11.79404672 0 3 C0 2.01 0 1.02 0 0 Z " transform="translate(33,65)" style="fill: #A6A6A6;"/><path d="M0 0 C0.33 0.99 0.66 1.98 1 3 C-0.14453125 4.75390625 -0.14453125 4.75390625 -1.8125 6.5625 C-2.35519531 7.16191406 -2.89789063 7.76132813 -3.45703125 8.37890625 C-4.62127433 9.60209834 -5.80591859 10.80591859 -7 12 C-5.02 11.67 -3.04 11.34 -1 11 C-1.33 11.66 -1.66 12.32 -2 13 C-3.95816886 13.57678022 -5.9433228 14.06369964 -7.9375 14.5 C-12.44735421 15.35177899 -12.44735421 15.35177899 -16 18 C-15.67 18.66 -15.34 19.32 -15 20 C-15.99 20.61875 -16.98 21.2375 -18 21.875 C-18.99 22.57625 -19.98 23.2775 -21 24 C-21 24.66 -21 25.32 -21 26 C-19.68 25.67 -18.36 25.34 -17 25 C-19.75520215 27.95929119 -22.46627288 30.03681826 -26 32 C-25.25749403 27.91621717 -24.17076699 23.98060777 -23 20 C-22.34 20.33 -21.68 20.66 -21 21 C-20.01 18.36 -19.02 15.72 -18 13 C-17.34 13.66 -16.68 14.32 -16 15 C-15.1028125 13.7625 -15.1028125 13.7625 -14.1875 12.5 C-13.465625 11.675 -12.74375 10.85 -12 10 C-11.01 10 -10.02 10 -9 10 C-7.9739266 8.68662604 -6.97272675 7.35335895 -6 6 C-5.34 6 -4.68 6 -4 6 C-2.61061923 4.03852126 -1.2739589 2.03833424 0 0 Z " transform="translate(114,79)" style="fill: #7F7F7F;"/><path d="M0 0 C0.66 0.33 1.32 0.66 2 1 C-2.40177588 9.16645261 -8.47171128 13.77842927 -16 19 C-16.73992187 19.58007812 -17.47984375 20.16015625 -18.2421875 20.7578125 C-20 22 -20 22 -22 22 C-20.80088591 19.27474071 -19.29215417 16.83212876 -17.625 14.375 C-17.22539063 13.78460938 -16.82578125 13.19421875 -16.4140625 12.5859375 C-14.75393355 10.72402492 -13.23585017 10.09803318 -11 9 C-9.05459685 7.4947579 -7.13962873 5.9496906 -5.25 4.375 C-4.26515625 3.55773437 -3.2803125 2.74046875 -2.265625 1.8984375 C-1.51796875 1.27195312 -0.7703125 0.64546875 0 0 Z " transform="translate(98,69)" style="fill: #878787;"/><path d="M0 0 C1.69271945 0.5974304 3.35380887 1.28426473 5 2 C6.010625 2.433125 7.02125 2.86625 8.0625 3.3125 C12.62934113 7.4906738 13.83168745 13.02146267 15 19 C14.67 19.66 14.34 20.32 14 21 C6.48754718 15.40933744 2.97396176 8.76536097 0 0 Z " transform="translate(39,61)" style="fill: #F0F0F0;"/><path d="M0 0 C3.69638666 2.62637999 5.8818514 4.52740559 7 9 C6.625 11.3125 6.625 11.3125 6 13 C4.68 13.33 3.36 13.66 2 14 C2 13.34 2 12.68 2 12 C1.51789063 12.3609375 1.03578125 12.721875 0.5390625 13.09375 C-0.09257813 13.5578125 -0.72421875 14.021875 -1.375 14.5 C-2.00148438 14.9640625 -2.62796875 15.428125 -3.2734375 15.90625 C-5 17 -5 17 -7 17 C-6.67437855 13.30962359 -5.95846094 11.9511916 -3.5 9.0625 C-0.86100341 5.82972917 -0.29202991 4.08841869 0 0 Z " transform="translate(91,170)" style="fill: #CBCBCB;"/><path d="M0 0 C0.33 0 0.66 0 1 0 C1.10957031 0.845625 1.21914063 1.69125 1.33203125 2.5625 C2.24752201 9.11235261 3.37843031 14.92272482 6 21 C6.66 20.67 7.32 20.34 8 20 C8 29.24 8 38.48 8 48 C7.34 48 6.68 48 6 48 C6.00112793 47.41734375 6.00225586 46.8346875 6.00341797 46.234375 C5.94922687 34.2463609 5.16521132 24.04461836 0.27734375 13.01953125 C-1.64569217 8.473639 -0.72311267 4.79062145 0 0 Z " transform="translate(59,219)" style="fill: #4C4C4C;"/><path d="M0 0 C1.1547958 3.46438739 0.80087028 4.35012557 -0.25 7.75 C-1.61932376 12.37377038 -2.51912777 16.93201735 -3.3125 21.6875 C-4.52091865 27.99313137 -6.28027235 32.5563567 -11 37 C-11.99 37.495 -11.99 37.495 -13 38 C-12.690625 37.4225 -12.38125 36.845 -12.0625 36.25 C-10.9327131 34.0661063 -10.9327131 34.0661063 -10.5 31.8125 C-10.335 31.214375 -10.17 30.61625 -10 30 C-9.34 29.67 -8.68 29.34 -8 29 C-7.26924352 26.6859378 -6.59861742 24.35171131 -6 22 C-6.99 22 -7.98 22 -9 22 C-8.38125 20.845 -7.7625 19.69 -7.125 18.5 C-5.05877782 14.39686375 -3.96064282 10.48299983 -3 6 C-3.99 5.34 -4.98 4.68 -6 4 C-4.02 2.68 -2.04 1.36 0 0 Z " transform="translate(122,67)" style="fill: #868686;"/><path d="M0 0 C0.73605469 0.47050781 1.47210938 0.94101563 2.23046875 1.42578125 C3.20628906 2.04839844 4.18210937 2.67101562 5.1875 3.3125 C6.15042969 3.92738281 7.11335938 4.54226562 8.10546875 5.17578125 C10.71634303 6.82123103 13.3469602 8.42369665 16 10 C15.67 8.02 15.34 6.04 15 4 C17.54184599 7.09764322 19.05849147 10.16919843 20.5625 13.875 C20.97628906 14.88304687 21.39007813 15.89109375 21.81640625 16.9296875 C22.97205061 19.92749763 24.01017748 22.94386594 25 26 C24.34 26 23.68 26 23 26 C22.68546875 25.24074219 22.3709375 24.48148438 22.046875 23.69921875 C21.61890625 22.70535156 21.1909375 21.71148437 20.75 20.6875 C20.33234375 19.70136719 19.9146875 18.71523437 19.484375 17.69921875 C17.22711615 13.59457174 14.82438674 12.34474355 10.5625 10.5625 C6.11549557 8.61205946 2.83632548 6.93705626 0.86328125 2.3671875 C0.57839844 1.58601562 0.29351562 0.80484375 0 0 Z " transform="translate(44,172)" style="fill: #797979;"/><path d="M0 0 C0.99 0 1.98 0 3 0 C1.44493196 3.33675403 -0.49985392 6.26805162 -2.5625 9.3125 C-5.40194206 13.70715514 -6.88409636 16.78433631 -7 22 C-9.5 19.6875 -9.5 19.6875 -12 17 C-12 16.01 -12 15.02 -12 14 C-12.66 14 -13.32 14 -14 14 C-14 13.34 -14 12.68 -14 12 C-13.01 12 -12.02 12 -11 12 C-10.67 11.34 -10.34 10.68 -10 10 C-9.67 10.66 -9.34 11.32 -9 12 C-8.34 10.02 -7.68 8.04 -7 6 C-6.34 6.66 -5.68 7.32 -5 8 C-4.67386719 7.4225 -4.34773438 6.845 -4.01171875 6.25 C-3.57472656 5.5075 -3.13773438 4.765 -2.6875 4 C-2.25824219 3.2575 -1.82898438 2.515 -1.38671875 1.75 C-0.92910156 1.1725 -0.47148438 0.595 0 0 Z " transform="translate(79,81)" style="fill: #3D3D3D;"/><path d="M0 0 C3.56354794 3.56354794 4.12587816 8.31128496 4.25 13.1875 C4.15048176 18.00584156 3.31743598 22.66878161 2.4375 27.3984375 C1.91708025 30.05339424 1.91708025 30.05339424 2 33 C1.67 33.99 1.34 34.98 1 36 C0.77820215 37.89212737 0.59385985 39.78884472 0.4375 41.6875 C0.31181641 43.17830078 0.31181641 43.17830078 0.18359375 44.69921875 C0.12300781 45.45847656 0.06242187 46.21773437 0 47 C-0.33 47 -0.66 47 -1 47 C-2.60150408 37.8021725 -1.96198265 27.88594795 1 19 C1.31823197 12.5979215 1.1468252 6.30753861 0 0 Z " transform="translate(68,198)" style="fill: #5C5C5C;"/><path d="M0 0 C0.66 0 1.32 0 2 0 C2.66 2.97 3.32 5.94 4 9 C3.34 9 2.68 9 2 9 C2 8.34 2 7.68 2 7 C1.34 7 0.68 7 0 7 C0.26393501 10.43230448 0.26393501 10.43230448 1 14 C1.99 14.66 2.98 15.32 4 16 C3.67 14.02 3.34 12.04 3 10 C7.25 16.375 7.25 16.375 7 21 C4.37098712 19.47793991 2.15634036 18.15634036 0 16 C0.33 16.763125 0.66 17.52625 1 18.3125 C2 21 2 21 2 24 C-1.69420621 20.0674579 -2.91408788 17.41246356 -3 12 C-2.19609832 7.93978772 -1.15484883 3.97346294 0 0 Z " transform="translate(45,189)" style="fill: #787878;"/><path d="M0 0 C0.5775 0.78375 1.155 1.5675 1.75 2.375 C3.82897637 4.80047244 5.09040333 5.85694417 8 7 C7.649375 6.401875 7.29875 5.80375 6.9375 5.1875 C6 3 6 3 7 0 C7 0.66 7 1.32 7 2 C7.66 2 8.32 2 9 2 C9.99 5.63 10.98 9.26 12 13 C11.01 13.66 10.02 14.32 9 15 C4.03006417 12.34936756 2.22795875 10.2400374 0.4453125 4.90234375 C0 3 0 3 0 0 Z " transform="translate(47,213)" style="fill: #8E8E8E;"/><path d="M0 0 C3.1875 2 3.1875 2 5 4 C0.8782921 5.99840383 -2.4402752 6.33775739 -7 6 C-7.99 5.34 -8.98 4.68 -10 4 C-11.9896995 3.60986284 -13.99019869 3.26797351 -16 3 C-11.7926186 -1.2073814 -5.58784767 -0.62812302 0 0 Z " transform="translate(76,7)" style="fill: #EAEAEA;"/><path d="M0 0 C1.796875 0.16015625 1.796875 0.16015625 4 1 C8.92026036 7.84999551 10.99675579 14.65678485 10 23 C5.27830218 16.81431207 3.49589372 11.69490255 3 4 C2.34 4 1.68 4 1 4 C0.67 2.68 0.34 1.36 0 0 Z " transform="translate(53,125)" style="fill: #8E8E8E;"/><path d="M0 0 C0.66 0.33 1.32 0.66 2 1 C2.60138941 9.03523069 1.19141145 15.88663379 -1.125 23.51953125 C-1.97028606 26.8818075 -2.32186714 29.55501576 -2 33 C-1.34 33.66 -0.68 34.32 0 35 C-1.65 35 -3.3 35 -5 35 C-5.38297533 29.35111387 -4.87358434 25.13094733 -3.0625 19.75 C-0.86327717 13.16787373 -0.22616131 6.90922796 0 0 Z " transform="translate(70,21)" style="fill: #525252;"/><path d="M0 0 C3.21311901 0.59778958 5.37837848 1.25630293 7.51171875 3.80859375 C11 9.25590974 11 9.25590974 11 13 C9.65686601 12.35330586 8.32608822 11.68096422 7 11 C6.13375 10.62875 5.2675 10.2575 4.375 9.875 C0.8383129 7.08287861 0.78761057 4.36765863 0 0 Z " transform="translate(34,112)" style="fill: #F3F3F3;"/><path d="M0 0 C0.66 0.33 1.32 0.66 2 1 C-3.11228579 5.64753254 -8.51858333 9.43010374 -14.328125 13.16796875 C-16.95616711 14.84921247 -16.95616711 14.84921247 -18.734375 16.73828125 C-20 18 -20 18 -22 18 C-22 15.69 -22 13.38 -22 11 C-21.34 10.67 -20.68 10.34 -20 10 C-19.67 10.66 -19.34 11.32 -19 12 C-15.21528255 10.63912664 -12.1993308 8.90678334 -8.9375 6.5625 C-7.68259766 5.66724609 -7.68259766 5.66724609 -6.40234375 4.75390625 C-4.25496766 3.18614712 -2.12169128 1.60229341 0 0 Z " transform="translate(107,105)" style="fill: #535353;"/><path d="M0 0 C1.99630791 2.99446186 3.35281493 5.90224575 4.8125 9.1875 C7.1995448 14.43078759 9.80739544 19.21109315 13 24 C12.34 24.66 11.68 25.32 11 26 C10.62488281 25.33613281 10.24976562 24.67226562 9.86328125 23.98828125 C6.61585807 18.28062327 6.61585807 18.28062327 2.125 13.5625 C-1.24581548 9.4976931 -0.39996762 5.07514473 0 0 Z " transform="translate(62,141)" style="fill: #636363;"/><path d="M0 0 C3 1 3 1 4.25 2.6875 C5.28092217 5.86617668 4.93165032 7.80577032 4 11 C2.1875 13.4375 2.1875 13.4375 0 15 C-2.25 14.75 -2.25 14.75 -4 14 C-3.50757812 13.61070313 -3.01515625 13.22140625 -2.5078125 12.8203125 C-0.49559301 10.3910527 -0.72107724 8.98061805 -0.875 5.875 C-0.94560869 4.25100015 -0.99417375 2.62552366 -1 1 C-0.67 0.67 -0.34 0.34 0 0 Z " transform="translate(92,9)" style="fill: #CCCCCC;"/><path d="M0 0 C0.66 0 1.32 0 2 0 C2 0.66 2 1.32 2 2 C2.99 1.67 3.98 1.34 5 1 C5.268125 1.7425 5.53625 2.485 5.8125 3.25 C6.82757513 6.00075334 6.82757513 6.00075334 8.625 7.8125 C10.74143127 11.17954975 10.1963519 14.07296204 10 18 C7.32046159 15.32046159 7.02952644 12.60334255 6 9 C5.34 8.34 4.68 7.68 4 7 C4.33 8.32 4.66 9.64 5 11 C2.5 9.4375 2.5 9.4375 0 7 C-0.3125 3.25 -0.3125 3.25 0 0 Z " transform="translate(45,196)" style="fill: #CECECE;"/><path d="M0 0 C0.33 0 0.66 0 1 0 C1.33 4.29 1.66 8.58 2 13 C2.33 13 2.66 13 3 13 C3 15.64 3 18.28 3 21 C3.66 21.33 4.32 21.66 5 22 C4.01 22.99 3.02 23.98 2 25 C-1.66438107 17.51855531 -1.52020519 10.18322784 -1 2 C-0.67 1.34 -0.34 0.68 0 0 Z " transform="translate(82,44)" style="fill: #CACACA;"/><path d="M0 0 C0.66 0 1.32 0 2 0 C1.3212313 6.51617956 0.27713519 13.59142073 -5 18 C-7.6875 18.6875 -7.6875 18.6875 -10 19 C-6.25 15.125 -6.25 15.125 -4 14 C-4.66 13.67 -5.32 13.34 -6 13 C-4.87548273 10.0280615 -3.77706209 7.66559313 -2 5 C-1.67 5.33 -1.34 5.66 -1 6 C-0.67 4.02 -0.34 2.04 0 0 Z " transform="translate(97,197)" style="fill: #B5B5B5;"/><path d="M0 0 C0.66 0.33 1.32 0.66 2 1 C1.38511719 1.43570313 0.77023438 1.87140625 0.13671875 2.3203125 C-4.61242872 5.81968432 -7.95229736 8.40294613 -10 14 C-10.66 13.01 -11.32 12.02 -12 11 C-15.3 14.63 -18.6 18.26 -22 22 C-22 17.78313779 -20.1680129 16.38454926 -17.4140625 13.3359375 C-12.35643644 8.44198866 -6.31218039 3.15609019 0 0 Z " transform="translate(114,72)" style="fill: #6F6F6F;"/><path d="M0 0 C6.25 -0.48076923 6.25 -0.48076923 9.4375 1.5625 C11.6232026 4.97219606 11.55004566 7.012169 11 11 C9.76117712 13.32279289 8.63504999 14.98313889 7 17 C5.98679687 18.28583984 5.98679687 18.28583984 4.953125 19.59765625 C2.98498518 22.07876869 0.99958212 24.54420254 -1 27 C-1.33 26.34 -1.66 25.68 -2 25 C-1.54109375 24.43152344 -1.0821875 23.86304687 -0.609375 23.27734375 C6.52526998 15.11106225 6.52526998 15.11106225 8.75 5.0625 C8.5025 4.051875 8.255 3.04125 8 2 C5.36 1.67 2.72 1.34 0 1 C0 0.67 0 0.34 0 0 Z " transform="translate(87,8)" style="fill: #585858;"/><path d="M0 0 C0.33 0 0.66 0 1 0 C1.2174147 11.57129344 -0.33333602 20.96589955 -4 32 C-4.33 32 -4.66 32 -5 32 C-4.49279908 21.17126036 -2.12424249 10.60054575 0 0 Z " transform="translate(76,181)" style="fill: #3F3F3F;"/><path d="M0 0 C0.66 0.66 1.32 1.32 2 2 C2.66 1.67 3.32 1.34 4 1 C4.70484044 5.07241141 5.06698038 8.04015028 4 12 C3.75051852 14.35621394 3.56062368 16.71189218 3.37890625 19.07421875 C3.25386719 19.70972656 3.12882812 20.34523438 3 21 C2.34 21.33 1.68 21.66 1 22 C0.02700844 17.14270355 -0.12038805 12.5499375 -0.0625 7.625 C-0.05798828 6.88894531 -0.05347656 6.15289062 -0.04882812 5.39453125 C-0.03715142 3.59631842 -0.01922011 1.79814803 0 0 Z " transform="translate(72,68)" style="fill: #AEAEAE;"/><path d="M0 0 C2 2 2 2 2.04345703 4.33837891 C1.94919434 5.29147949 1.85493164 6.24458008 1.7578125 7.2265625 C1.66113281 8.2578125 1.56445312 9.2890625 1.46484375 10.3515625 C1.35269531 11.43179688 1.24054688 12.51203125 1.125 13.625 C1.02058594 14.71296875 0.91617188 15.8009375 0.80859375 16.921875 C0.54866583 19.61567348 0.27873466 22.30809314 0 25 C-0.33 25 -0.66 25 -1 25 C-1.33 20.71 -1.66 16.42 -2 12 C-2.33 15.63 -2.66 19.26 -3 23 C-3.33 23 -3.66 23 -4 23 C-5.99352131 14.25613919 -3.62792048 8.00904244 0 0 Z " transform="translate(84,34)" style="fill: #747474;"/><path d="M0 0 C0.609375 1.80859375 0.609375 1.80859375 1 4 C-0.95939077 7.42893386 -3.08622767 10.33959918 -6 13 C-7.00246001 13.99753392 -8.00276624 14.9972414 -9 16 C-9.15816247 11.64064692 -9.07533404 8.25493529 -6.15234375 4.84375 C-4.15855334 3.12775402 -2.14601337 1.52029648 0 0 Z " transform="translate(101,85)" style="fill: #F1F1F1;"/><path d="M0 0 C0.66 0 1.32 0 2 0 C2 0.66 2 1.32 2 2 C2.99 2.33 3.98 2.66 5 3 C5.33 3.66 5.66 4.32 6 5 C6.33 3.35 6.66 1.7 7 0 C8.43763719 2.73894671 9.55017142 5.43259623 10.5 8.375 C10.75394531 9.15488281 11.00789063 9.93476563 11.26953125 10.73828125 C11.63111328 11.85783203 11.63111328 11.85783203 12 13 C12.391875 14.175625 12.78375 15.35125 13.1875 16.5625 C13.455625 17.366875 13.72375 18.17125 14 19 C10.17613653 15.47027988 6.73252491 11.43579877 4 7 C4 6.01 4 5.02 4 4 C3.01 3.67 2.02 3.34 1 3 C0.67 2.01 0.34 1.02 0 0 Z " transform="translate(48,129)" style="fill: #636363;"/><path d="M0 0 C0 0.66 0 1.32 0 2 C0.66 2.33 1.32 2.66 2 3 C0.42356682 4.01084265 -1.1614517 5.00830511 -2.75 6 C-3.63171875 6.556875 -4.5134375 7.11375 -5.421875 7.6875 C-8 9 -8 9 -12 9 C-10.6015209 5.5912072 -9.14993067 4.12606165 -6 2.25 C-5.29875 1.82203125 -4.5975 1.3940625 -3.875 0.953125 C-2 0 -2 0 0 0 Z " transform="translate(99,108)" style="fill: #D3D3D3;"/><path d="M0 0 C2.97 1.98 2.97 1.98 6 4 C6.66 3.01 7.32 2.02 8 1 C8.99 1.33 9.98 1.66 11 2 C11.8125 3.875 11.8125 3.875 12 6 C11.01 7.485 11.01 7.485 10 9 C8.68 9 7.36 9 6 9 C6 8.34 6 7.68 6 7 C5.38125 6.95875 4.7625 6.9175 4.125 6.875 C3.42375 6.58625 2.7225 6.2975 2 6 C0.75 2.9375 0.75 2.9375 0 0 Z " transform="translate(37,8)" style="fill: #9D9D9D;"/><path d="M0 0 C0.33 0 0.66 0 1 0 C1.33 5.28 1.66 10.56 2 16 C2.99 16.33 3.98 16.66 5 17 C5.33 20.63 5.66 24.26 6 28 C4.23355992 25.35033987 3.11028295 23.05918701 1.9375 20.125 C1.59589844 19.28195313 1.25429687 18.43890625 0.90234375 17.5703125 C-0.95492291 12.27991656 -1.18207953 7.55342556 -1 2 C-0.67 1.34 -0.34 0.68 0 0 Z " transform="translate(87,145)" style="fill: #545454;"/><path d="M0 0 C9.73063539 2.968423 17.94772401 7.7621799 24 16 C20.59787701 14.38617243 17.89675481 12.41396234 15 10 C14.01 11.485 14.01 11.485 13 13 C12.2884375 11.4221875 12.2884375 11.4221875 11.5625 9.8125 C8.91456708 5.07510729 4.7854022 3.21887239 0 1 C0 0.67 0 0.34 0 0 Z " transform="translate(31,109)" style="fill: #727272;"/><path d="M0 0 C0.33 0 0.66 0 1 0 C1.33 1.98 1.66 3.96 2 6 C2.33 5.34 2.66 4.68 3 4 C3.66 4 4.32 4 5 4 C5.93423645 7.01031744 6.04449911 7.86650268 5 11 C1.9375 12.1875 1.9375 12.1875 -1 13 C-2.51403812 8.15507803 -1.36602172 4.7408989 0 0 Z " transform="translate(73,42)" style="fill: #BDBDBD;"/><path d="M0 0 C0.33 0 0.66 0 1 0 C1.33 2.64 1.66 5.28 2 8 C0.87926138 8.83905565 -0.24674547 9.67107831 -1.375 10.5 C-2.00148438 10.9640625 -2.62796875 11.428125 -3.2734375 11.90625 C-5 13 -5 13 -7 13 C-6.66496985 7.63951758 -3.4126588 3.90710652 0 0 Z " transform="translate(91,174)" style="fill: #A0A0A0;"/><path d="M0 0 C2.84860129 2.84860129 2.98456984 4.81175199 3.3125 8.8125 C3.28760029 13.30274837 1.76331284 15.54585895 -1 19 C-2.45839897 15.04294544 -1.67906093 11.30168612 -1.0625 7.25 C-0.96259766 6.55261719 -0.86269531 5.85523438 -0.75976562 5.13671875 C-0.51334127 3.42348274 -0.25759045 1.71159275 0 0 Z " transform="translate(88,56)" style="fill: #F1F1F1;"/><path d="M0 0 C0.33 0 0.66 0 1 0 C1.66 3.96 2.32 7.92 3 12 C3.33 10.35 3.66 8.7 4 7 C4.99 7 5.98 7 7 7 C7.66 6.67 8.32 6.34 9 6 C8.34938905 7.67299959 7.67966676 9.33859237 7 11 C6.71125 11.7425 6.4225 12.485 6.125 13.25 C5 15 5 15 2.875 15.75 C1.946875 15.87375 1.946875 15.87375 1 16 C-0.14077657 12.57767028 -0.09815117 9.91326783 -0.0625 6.3125 C-0.05347656 5.13300781 -0.04445313 3.95351562 -0.03515625 2.73828125 C-0.02355469 1.83464844 -0.01195313 0.93101562 0 0 Z " transform="translate(88,145)" style="fill: #BFBFBF;"/><path d="M0 0 C14.11451348 0.60730102 14.11451348 0.60730102 19 4 C19.33 4.66 19.66 5.32 20 6 C13.08336373 4.90109517 6.57263201 3.43430815 0 1 C0 0.67 0 0.34 0 0 Z " transform="translate(46,90)" style="fill: #EAEAEA;"/><path d="M0 0 C2.36543716 2.36543716 3.27541323 4.57067205 4.625 7.625 C5.07101563 8.62789062 5.51703125 9.63078125 5.9765625 10.6640625 C6.31429687 11.43492188 6.65203125 12.20578125 7 13 C7 10.36 7 7.72 7 5 C9.7865517 7.7865517 9.65662895 10.15424427 10 14 C9 16 9 16 7.0625 16.75 C6.0415625 16.87375 6.0415625 16.87375 5 17 C4.34 16.34 3.68 15.68 3 15 C3.33 14.67 3.66 14.34 4 14 C3.71125 13.24074219 3.4225 12.48148438 3.125 11.69921875 C2.75375 10.70535156 2.3825 9.71148437 2 8.6875 C1.62875 7.70136719 1.2575 6.71523437 0.875 5.69921875 C0 3 0 3 0 0 Z " transform="translate(59,77)" style="fill: #7A7A7A;"/><path d="M0 0 C1 2 1 2 0.46875 3.83984375 C-1.29379074 7.65631301 -2.62904806 10.27532651 -6.5625 12.0625 C-10 13 -10 13 -13 12 C-12.48050781 11.63648437 -11.96101563 11.27296875 -11.42578125 10.8984375 C-6.90269987 7.63780582 -3.37935811 4.43540752 0 0 Z " transform="translate(117,79)" style="fill: #EFEFEF;"/><path d="M0 0 C0.33 0 0.66 0 1 0 C1.79793567 7.77248454 0.78346772 12.29827233 -3.59765625 18.76171875 C-5.28934764 21.46182785 -5.83312017 23.82928332 -6 27 C-6.33 27 -6.66 27 -7 27 C-7.33 24.69 -7.66 22.38 -8 20 C-7.34 20 -6.68 20 -6 20 C-4.77105172 17.10319335 -3.79726165 14.28445286 -2.9375 11.25 C-2 8 -2 8 -1 7 C-0.63239269 4.67182036 -0.29758419 2.3381615 0 0 Z " transform="translate(99,140)" style="fill: #707070;"/><path d="M0 0 C2.875 0.6875 2.875 0.6875 6 2 C7.4375 4.4375 7.4375 4.4375 8 7 C7.67 7.99 7.34 8.98 7 10 C4.0625 8.375 4.0625 8.375 1 6 C0.125 2.75 0.125 2.75 0 0 Z " transform="translate(26,108)" style="fill: #EBEBEB;"/><path d="M0 0 C-1.35384615 6.52307692 -1.35384615 6.52307692 -4.625 8.9375 C-5.40875 9.288125 -6.1925 9.63875 -7 10 C-7.6875 8.3125 -7.6875 8.3125 -8 6 C-4.93023256 0 -4.93023256 0 0 0 Z " transform="translate(120,72)" style="fill: #BABABA;"/><path d="M0 0 C0.33 0 0.66 0 1 0 C1 2.97 1 5.94 1 9 C0.34 8.34 -0.32 7.68 -1 7 C-1.99 7.66 -2.98 8.32 -4 9 C-6.04296875 9.1953125 -6.04296875 9.1953125 -8.1875 9.125 C-10.0746875 9.063125 -10.0746875 9.063125 -12 9 C-10.68 8.34 -9.36 7.68 -8 7 C-8 6.01 -8 5.02 -8 4 C-7.67 4.66 -7.34 5.32 -7 6 C-6.01 5.34 -5.02 4.68 -4 4 C-3.01 4 -2.02 4 -1 4 C-0.67 2.68 -0.34 1.36 0 0 Z " transform="translate(79,49)" style="fill: #404040;"/><path d="M0 0 C1.32 0 2.64 0 4 0 C5.04115841 1.30144802 6.03886134 2.63838689 7 4 C8.051875 4.4640625 8.051875 4.4640625 9.125 4.9375 C9.74375 5.288125 10.3625 5.63875 11 6 C11.6171875 8.56640625 11.6171875 8.56640625 12 11 C10.35153231 10.55123384 8.70626545 10.09069512 7.0625 9.625 C6.14597656 9.36976563 5.22945312 9.11453125 4.28515625 8.8515625 C2 8 2 8 1 6 C3.31 6.33 5.62 6.66 8 7 C7.4225 6.66226563 6.845 6.32453125 6.25 5.9765625 C5.5075 5.53054687 4.765 5.08453125 4 4.625 C3.2575 4.18414062 2.515 3.74328125 1.75 3.2890625 C1.1725 2.86367187 0.595 2.43828125 0 2 C0 1.34 0 0.68 0 0 Z " transform="translate(37,121)" style="fill: #9A9A9A;"/><path d="M0 0 C1.35949488 4.07848463 0.14486103 7.17680945 -0.9375 11.1875 C-1.13279297 11.93708984 -1.32808594 12.68667969 -1.52929688 13.45898438 C-2.01214375 15.30793459 -2.50510633 17.15423776 -3 19 C-3.33 19 -3.66 19 -4 19 C-4 14.66666667 -4 10.33333333 -4 6 C-4.66 5.34 -5.32 4.68 -6 4 C-4.02 2.68 -2.04 1.36 0 0 Z " transform="translate(122,67)" style="fill: #616161;"/><path d="M0 0 C0 0.66 0 1.32 0 2 C-1.65 2.66 -3.3 3.32 -5 4 C-4.67 4.66 -4.34 5.32 -4 6 C-5.29096781 6.81360995 -6.58279875 7.62585046 -7.875 8.4375 C-8.95394531 9.11619141 -8.95394531 9.11619141 -10.0546875 9.80859375 C-12 11 -12 11 -14 12 C-12.41352889 5.45580669 -6.66317845 0 0 0 Z " transform="translate(85,216)" style="fill: #5E5E5E;"/><path d="M0 0 C1.7936743 1.1217963 3.5848773 2.24754483 5.375 3.375 C6.37273438 4.00148437 7.37046875 4.62796875 8.3984375 5.2734375 C11 7 11 7 13 9 C12.67 9.66 12.34 10.32 12 11 C7.99546349 9.62701605 5.08314867 7.91649198 2 5 C1.28524606 3.35338255 0.61098287 1.68787504 0 0 Z " transform="translate(44,172)" style="fill: #898989;"/><path d="M0 0 C2.86867231 1.38264837 5.56024032 2.92148553 8.25 4.625 C8.95640625 5.07101563 9.6628125 5.51703125 10.390625 5.9765625 C10.92171875 6.31429687 11.4528125 6.65203125 12 7 C8.5945335 8.1351555 7.68276913 7.84899821 4.375 6.75 C3.57835937 6.49734375 2.78171875 6.2446875 1.9609375 5.984375 C0 5 0 5 -1 2 C-0.67 1.34 -0.34 0.68 0 0 Z " transform="translate(34,121)" style="fill: #E5E5E5;"/><path d="M0 0 C0.99 0 1.98 0 3 0 C1.62437236 2.80173703 0.19418207 5.55140664 -1.375 8.25 C-1.77460937 8.95640625 -2.17421875 9.6628125 -2.5859375 10.390625 C-3.05257812 10.92171875 -3.51921875 11.4528125 -4 12 C-5.32 12 -6.64 12 -8 12 C-7.67 10.02 -7.34 8.04 -7 6 C-6.34 6.66 -5.68 7.32 -5 8 C-4.67386719 7.4225 -4.34773438 6.845 -4.01171875 6.25 C-3.57472656 5.5075 -3.13773437 4.765 -2.6875 4 C-2.25824219 3.2575 -1.82898438 2.515 -1.38671875 1.75 C-0.70029297 0.88375 -0.70029297 0.88375 0 0 Z " transform="translate(79,81)" style="fill: #434343;"/><path d="M0 0 C0.33 0 0.66 0 1 0 C1 2.31 1 4.62 1 7 C1.66 7.33 2.32 7.66 3 8 C3 12.62 3 17.24 3 22 C2.34 22 1.68 22 1 22 C-0.17402193 14.66236293 -0.09377123 7.41834582 0 0 Z " transform="translate(84,43)" style="fill: #E5E5E5;"/><path d="M0 0 C2.9375 0.8125 2.9375 0.8125 6 2 C6.33 2.99 6.66 3.98 7 5 C7.99 5.33 8.98 5.66 10 6 C10 6.33 10 6.66 10 7 C6.6875 7.25 6.6875 7.25 3 7 C1.0625 5.1875 1.0625 5.1875 0 3 C0 2.01 0 1.02 0 0 Z " transform="translate(20,111)" style="fill: #E2E2E2;"/><path d="M0 0 C4.03046985 3.73693423 5.88683394 7.92528896 6.1875 13.4375 C6.125625 14.283125 6.06375 15.12875 6 16 C2.58718628 13.35196246 2.16804451 10.42726168 1.3125 6.3125 C1.06113281 5.13300781 0.80976562 3.95351562 0.55078125 2.73828125 C0.36902344 1.83464844 0.18726563 0.93101563 0 0 Z " transform="translate(55,127)" style="fill: #EAEAEA;"/><path d="M0 0 C3 0 3 0 5 1 C3.68 2.65 2.36 4.3 1 6 C1.99 5.67 2.98 5.34 4 5 C4.66 5.33 5.32 5.66 6 6 C3.03 7.98 0.06 9.96 -3 12 C-2.18079905 7.90399524 -1.17665969 4.00064296 0 0 Z " transform="translate(91,99)" style="fill: #656565;"/><path d="M0 0 C0.33 0 0.66 0 1 0 C0.61020794 6.55925943 -0.42113193 11.94526627 -3 18 C-3.33 18 -3.66 18 -4 18 C-4.51137226 11.09647445 -2.86964374 6.25172386 0 0 Z " transform="translate(90,96)" style="fill: #E3E3E3;"/><path d="M0 0 C0.33 0 0.66 0 1 0 C1.12117188 0.60328125 1.24234375 1.2065625 1.3671875 1.828125 C1.53476563 2.62734375 1.70234375 3.4265625 1.875 4.25 C2.03742188 5.03890625 2.19984375 5.8278125 2.3671875 6.640625 C2.90323338 9.0018501 2.90323338 9.0018501 4.0625 10.96875 C5.24156935 13.52340026 5.19865409 15.4511445 5.125 18.25 C5.10695313 19.14203125 5.08890625 20.0340625 5.0703125 20.953125 C5.03550781 21.96632813 5.03550781 21.96632813 5 23 C4.67 23 4.34 23 4 23 C3.85304688 22.07380859 3.85304688 22.07380859 3.703125 21.12890625 C2.72194411 15.57170068 1.29009498 10.98366945 -1.390625 6.0078125 C-2 4 -2 4 -1.109375 1.7421875 C-0.74328125 1.16726562 -0.3771875 0.59234375 0 0 Z " transform="translate(78,55)" style="fill: #E2E2E2;"/><path d="M0 0 C0 0.66 0 1.32 0 2 C-4.1196377 3.29243536 -7.66831683 4.26252625 -12 4 C-8.4913862 -1.17938228 -5.96187138 -1.19237428 0 0 Z " transform="translate(109,94)" style="fill: #D2D2D2;"/><path d="M0 0 C1.875 2.5 1.875 2.5 3 5 C-0.64160808 6.21386936 -1.33165469 5.6674695 -4.6875 4.0625 C-5.89986328 3.49208984 -5.89986328 3.49208984 -7.13671875 2.91015625 C-7.75160156 2.60980469 -8.36648437 2.30945313 -9 2 C-5.52648925 -0.31567384 -4.08600528 -0.59587577 0 0 Z " transform="translate(56,83)" style="fill: #868686;"/><path d="M0 0 C1.31223496 3.93670488 0.24296256 6.12488144 -1 10 C-1.66 10 -2.32 10 -3 10 C-3 8.68 -3 7.36 -3 6 C-3.99 6.33 -4.98 6.66 -6 7 C-4.60667426 3.63279613 -3.0210714 2.0140476 0 0 Z " transform="translate(112,75)" style="fill: #F4F4F4;"/><path d="M0 0 C1.8871875 0.0309375 1.8871875 0.0309375 3.8125 0.0625 C3.8125 0.7225 3.8125 1.3825 3.8125 2.0625 C-0.0237435 4.49523978 -1.51689745 5.20311021 -6.0625 4.25 C-7.09375 3.858125 -8.125 3.46625 -9.1875 3.0625 C-6.30623588 0.18123588 -3.90053134 -0.06394314 0 0 Z " transform="translate(69.1875,6.9375)" style="fill: #F3F3F3;"/><path d="M0 0 C3.59391114 1.33488128 6.75490696 2.96022723 10 5 C9.01 5.33 8.02 5.66 7 6 C6.01 5.34 5.02 4.68 4 4 C3.34 4.66 2.68 5.32 2 6 C2.33 6.99 2.66 7.98 3 9 C2.34 9.66 1.68 10.32 1 11 C-0.17571451 7.32589215 -0.07366746 3.83070817 0 0 Z " transform="translate(17,101)" style="fill: #626262;"/><path d="M0 0 C4.9240432 4.7652031 9.44259642 9.88657333 14 15 C13.67 15.66 13.34 16.32 13 17 C11.38957012 15.44395612 9.78690632 13.87987244 8.1875 12.3125 C7.29417969 11.44238281 6.40085937 10.57226562 5.48046875 9.67578125 C0 3.76377953 0 3.76377953 0 0 Z " transform="translate(24,43)" style="fill: #4B4B4B;"/><path d="M0 0 C2.06997885 1.78770901 2.98326179 2.95424891 3.9375 5.5625 C4.78929161 8.14871695 4.78929161 8.14871695 7.125 9.3125 C7.74375 9.539375 8.3625 9.76625 9 10 C8.67 10.66 8.34 11.32 8 12 C6.140625 11.7421875 6.140625 11.7421875 4 11 C2.734375 9.2578125 2.734375 9.2578125 1.75 7.125 C1.24726562 6.07699219 1.24726562 6.07699219 0.734375 5.0078125 C0 3 0 3 0 0 Z " transform="translate(33,65)" style="fill: #818181;"/><path d="M0 0 C0.33 0 0.66 0 1 0 C1.13277344 0.89203125 1.26554687 1.7840625 1.40234375 2.703125 C1.57894531 3.87359375 1.75554688 5.0440625 1.9375 6.25 C2.11152344 7.41015625 2.28554688 8.5703125 2.46484375 9.765625 C2.90776579 12.87121692 2.90776579 12.87121692 3.69140625 15.296875 C3.79324219 15.85890625 3.89507812 16.4209375 4 17 C3.34 17.66 2.68 18.32 2 19 C1.49440092 17.56445975 0.9957251 16.1264798 0.5 14.6875 C0.2215625 13.88699219 -0.056875 13.08648437 -0.34375 12.26171875 C-1.55085152 8.10152958 -0.63602701 4.21367892 0 0 Z " transform="translate(59,219)" style="fill: #5A5A5A;"/><path d="M0 0 C0.66 0 1.32 0 2 0 C1.63194444 7.23842593 1.63194444 7.23842593 -1.4375 10.9375 C-4 13 -4 13 -6 14 C-4.16508812 9.25981099 -2.08058541 4.63586749 0 0 Z " transform="translate(96,195)" style="fill: #6C6C6C;"/><path d="M0 0 C0.33 0.66 0.66 1.32 1 2 C1.66 2 2.32 2 3 2 C3.33 1.34 3.66 0.68 4 0 C7 5.625 7 5.625 7 9 C6.34 9 5.68 9 5 9 C5 8.34 5 7.68 5 7 C4.34 7 3.68 7 3 7 C2.67 6.34 2.34 5.68 2 5 C1.01 4.34 0.02 3.68 -1 3 C-0.67 2.01 -0.34 1.02 0 0 Z " transform="translate(45,122)" style="fill: #C9C9C9;"/><path d="M0 0 C0.66 0.33 1.32 0.66 2 1 C-2.99376231 5.56876126 -7.98106241 8.91546509 -14 12 C-12.52685552 8.13299575 -10.56422429 6.85397337 -7 4.875 C-3.24718308 2.77510616 -3.24718308 2.77510616 0 0 Z " transform="translate(107,105)" style="fill: #595959;"/><path d="M0 0 C0.66 0.33 1.32 0.66 2 1 C1.67 1.66 1.34 2.32 1 3 C1.66 3.33 2.32 3.66 3 4 C1.00383446 5.99616554 -2.81701963 5.40983427 -5.5625 5.5625 C-6.62887695 5.62727539 -6.62887695 5.62727539 -7.71679688 5.69335938 C-9.47761912 5.79971777 -11.2387832 5.90038846 -13 6 C-10.41834005 3.41834005 -8.4156989 3.6951184 -4.91015625 3.3515625 C-2.49182937 2.90647166 -1.3955029 2.00603542 0 0 Z " transform="translate(50,13)" style="fill: #323232;"/><path d="M0 0 C2 2 2 2 2.1953125 5.0390625 C2.17210937 6.22242188 2.14890625 7.40578125 2.125 8.625 C2.10695312 9.81351563 2.08890625 11.00203125 2.0703125 12.2265625 C2.04710937 13.14179688 2.02390625 14.05703125 2 15 C-0.67677955 9.91958167 -1.48875222 5.62417505 0 0 Z " transform="translate(57,210)" style="fill: #F2F2F2;"/><path d="M0 0 C1.1549921 0.73581742 2.29874185 1.48930039 3.4375 2.25 C4.39462891 2.87648437 4.39462891 2.87648437 5.37109375 3.515625 C7.29902057 5.27248877 7.61479436 6.46089803 8 9 C4.11980141 7.74155722 2.0588158 6.57583797 0 3 C0 2.01 0 1.02 0 0 Z " transform="translate(44,204)" style="fill: #EBEBEB;"/><path d="M0 0 C2.45976489 3.68964734 3.12465307 5.27428479 3.0625 9.625 C3.05347656 10.44226563 3.04445313 11.25953125 3.03515625 12.1015625 C3.02355469 12.72804687 3.01195313 13.35453125 3 14 C1 13 1 13 0.37890625 11.234375 C-0.02399618 8.85849677 -0.09791478 6.65820483 -0.0625 4.25 C-0.05347656 3.45078125 -0.04445313 2.6515625 -0.03515625 1.828125 C-0.02355469 1.22484375 -0.01195313 0.6215625 0 0 Z " transform="translate(89,144)" style="fill: #F5F5F5;"/><path d="M0 0 C0.66 0.33 1.32 0.66 2 1 C0.1875 4 0.1875 4 -2 7 C-2.99 7 -3.98 7 -5 7 C-7.15028304 7.94978897 -7.15028304 7.94978897 -9 9 C-8.06725891 7.87105124 -7.12859878 6.74699124 -6.1875 5.625 C-5.66542969 4.99851562 -5.14335938 4.37203125 -4.60546875 3.7265625 C-3 2 -3 2 0 0 Z " transform="translate(98,69)" style="fill: #808080;"/><path d="M0 0 C2 1 2 1 3 4 C3.66 3.67 4.32 3.34 5 3 C5 5.64 5 8.28 5 11 C4.34 11 3.68 11 3 11 C2.49384702 9.73160474 1.99530901 8.46016898 1.5 7.1875 C1.2215625 6.47980469 0.943125 5.77210938 0.65625 5.04296875 C0 3 0 3 0 0 Z " transform="translate(62,236)" style="fill: #3B3B3B;"/><path d="M0 0 C2.5625 0.9375 2.5625 0.9375 4.375 4 C4.766875 4.969375 5.15875 5.93875 5.5625 6.9375 C1.56749382 5.5677836 -1.23759492 3.68027578 -4.4375 0.9375 C-2.4375 -0.0625 -2.4375 -0.0625 0 0 Z " transform="translate(55.4375,141.0625)" style="fill: #C7C7C7;"/><path d="M0 0 C0.33 1.32 0.66 2.64 1 4 C-1.97903734 6.97903734 -4.80285329 8 -9 8 C-6.03 5.36 -3.06 2.72 0 0 Z " transform="translate(94,74)" style="fill: #BFBFBF;"/></svg>