<?xml version="1.0" encoding="UTF-8"?>
<!-- Generator: visioncortex VTracer -->
<svg id="svg" version="1.1" xmlns="http://www.w3.org/2000/svg" style="display: block;" viewBox="0 0 179 286"><path d="M0 0 C59.07 0 118.14 0 179 0 C179 94.38 179 188.76 179 286 C119.93 286 60.86 286 0 286 C0 191.62 0 97.24 0 0 Z " transform="translate(0,0)" style="fill: none;"/><path d="M0 0 C0.33 0 0.66 0 1 0 C1.59325159 39.51359845 1.59325159 39.51359845 -1.34375 54.5703125 C-2.12528968 58.07280307 -2.12528968 58.07280307 -2 62 C-1.43152344 61.27554688 -0.86304688 60.55109375 -0.27734375 59.8046875 C3.6598367 54.87499579 7.36704362 50.2379707 12.4921875 46.51171875 C16.86985312 42.12271202 17.37602425 37.15167235 17.4375 31.25 C17.66078484 24.50321899 18.86434305 19.06713159 22 13 C22.66 13 23.32 13 24 13 C26.48506151 32.6586116 26.48506151 32.6586116 23.5 39.375 C20.83868171 42.1693842 18.04115569 44.65938901 15.0859375 47.13671875 C12.30741102 49.61866094 9.9815165 52.39285371 7.5859375 55.23828125 C6 57 6 57 3.4375 58.875 C-3.51189302 64.9334452 -6.29467604 73.94490725 -8.6875 82.5625 C-9.25284312 84.52244239 -9.81923566 86.4820824 -10.38671875 88.44140625 C-10.65274902 89.37227051 -10.9187793 90.30313477 -11.19287109 91.26220703 C-12.35743861 95.21243695 -13.66883789 99.10303298 -15 103 C-9.75566222 99.56329183 -9.75566222 99.56329183 -7.18359375 94.05859375 C-6.99925781 92.96675781 -6.81492187 91.87492187 -6.625 90.75 C-5.27820904 83.31707775 -1.70461367 78.83652028 4 74 C4.99 73.67 5.98 73.34 7 73 C7 73.99 7 74.98 7 76 C10.465 75.01 10.465 75.01 14 74 C15.65 75.65 17.3 77.3 19 79 C18.401875 78.835 17.80375 78.67 17.1875 78.5 C14.88655664 77.8885876 14.88655664 77.8885876 12 78 C13.66924071 81.04134491 13.66924071 81.04134491 16 82 C15.195625 82.28875 14.39125 82.5775 13.5625 82.875 C10.8673532 83.73262568 10.8673532 83.73262568 10 86 C10.33 84.02 10.66 82.04 11 80 C9.824375 79.814375 9.824375 79.814375 8.625 79.625 C6 79 6 79 4 77 C-1.39339616 82.56307469 -1.39339616 82.56307469 -3 90 C-2.11785113 92.35355339 -2.11785113 92.35355339 1 93 C1.66 93.33 2.32 93.66 3 94 C7.78997731 94.27634484 11.58984436 93.94867342 16 92 C16.99 90.515 16.99 90.515 18 89 C18 91.3125 18 91.3125 17 94 C12.24901056 96.50995668 8.21034727 97.15449806 2.875 97.5 C-1.82770121 97.81233479 -4.98956207 98.35675682 -9 101 C-9.5878125 101.35304199 -10.175625 101.70608398 -10.78125 102.06982422 C-17.35886803 106.40433094 -20.26849672 112.02063384 -23.75 118.9375 C-24.8485528 121.05099209 -25.94750114 123.16427864 -27.046875 125.27734375 C-27.55283203 126.26460449 -28.05878906 127.25186523 -28.58007812 128.26904297 C-30.29666089 131.57057234 -32.11876055 134.79002104 -34 138 C-26.59558426 136.04251078 -21.64698223 134.24629844 -16.6015625 128.41796875 C-15 127 -15 127 -11.0625 126.5625 C-10.051875 126.706875 -9.04125 126.85125 -8 127 C-9.66666667 128.66666667 -11.33333333 130.33333333 -13 132 C-13.47203857 132.524729 -13.94407715 133.04945801 -14.43041992 133.59008789 C-17.60147494 136.43856242 -22.50312666 136.97383832 -26.57617188 138.01757812 C-34.60938324 140.1969129 -39.37755073 143.89160312 -44.1875 150.5625 C-48.79885109 156.82526058 -48.79885109 156.82526058 -50.62055969 158.40779114 C-52.44554601 160.51426821 -52.36377361 161.71094087 -52.34057617 164.47143555 C-52.34034958 165.37214279 -52.34012299 166.27285004 -52.33988953 167.20085144 C-52.32440567 168.16968765 -52.30892181 169.13852386 -52.29296875 170.13671875 C-52.28660149 171.62858452 -52.28660149 171.62858452 -52.28010559 173.15058899 C-52.26330153 176.32983375 -52.22564576 179.50844656 -52.1875 182.6875 C-52.17245541 184.84178773 -52.15876662 186.99608538 -52.14648438 189.15039062 C-52.11339244 194.43380967 -52.06317592 199.71685969 -52 205 C-50.33315766 203.33350902 -48.66651505 201.66681827 -47 200 C-46.47535156 199.47647949 -45.95070312 198.95295898 -45.41015625 198.41357422 C-36.03661123 188.96191633 -30.7236082 180.49248337 -27.7734375 167.3125 C-26.93513099 164.80604821 -26.00225378 163.68145069 -24 162 C-24 162.99 -24 163.98 -24 165 C-23.34 164.67 -22.68 164.34 -22 164 C-22.33 165.65 -22.66 167.3 -23 169 C-22.34 168.34 -21.68 167.68 -21 167 C-21.52268466 169.76276177 -22.10869587 172.3260876 -23 175 C-18.75177626 174.52797514 -16.80010291 172.03344482 -14 169 C-15.50654982 175.214518 -20.90424484 179.09142434 -26.12890625 182.3125 C-27.14791016 182.9003125 -27.14791016 182.9003125 -28.1875 183.5 C-32.36844645 185.96568637 -34.43673185 188.91479139 -37 193 C-36.03578125 192.72285156 -35.0715625 192.44570312 -34.078125 192.16015625 C-32.81484375 191.79792969 -31.5515625 191.43570313 -30.25 191.0625 C-28.99703125 190.70285156 -27.7440625 190.34320313 -26.453125 189.97265625 C-23.97438281 189.27445851 -21.50339838 188.60056274 -19 188 C-23.0428027 192.46574206 -28.46192216 193.68788841 -34.1875 195 C-41.60325355 196.94511569 -46.97022987 201.51156 -51 208 C-51.3836692 210.49616104 -51.05730287 212.33893935 -50.5703125 214.81640625 C-49.79972449 219.11797631 -49.63001685 223.3891279 -49.4375 227.75 C-49.39802246 228.61955322 -49.35854492 229.48910645 -49.31787109 230.38500977 C-49.242033 232.11331143 -49.16922477 233.841749 -49.09960938 235.5703125 C-49.0370352 237.09663163 -48.96886289 238.62274217 -48.89257812 240.1484375 C-48.47612378 248.74949469 -48.6770998 254.90806634 -54.44921875 261.70703125 C-56 263 -56 263 -59 263 C-59 260.36 -59 257.72 -59 255 C-57.9375 256.875 -57.9375 256.875 -57 259 C-57.33 259.66 -57.66 260.32 -58 261 C-56.02 259.02 -56.02 259.02 -54 257 C-54.66 256.67 -55.32 256.34 -56 256 C-55.34 255.67 -54.68 255.34 -54 255 C-53.97282308 252.93757383 -53.9535242 250.87504297 -53.9375 248.8125 C-53.92589844 247.66394531 -53.91429687 246.51539063 -53.90234375 245.33203125 C-53.91593898 241.69531625 -53.91593898 241.69531625 -55 237 C-55.66 241.95 -56.32 246.9 -57 252 C-57.33 252 -57.66 252 -58 252 C-57.95810547 251.23969482 -57.91621094 250.47938965 -57.87304688 249.69604492 C-56.22237253 233.41990061 -56.22237253 233.41990061 -61.4375 218.75 C-62.94694907 217.15580993 -64.46822927 215.57275456 -66 214 C-67.52456347 211.81017247 -68.943387 209.65644543 -70.3125 207.375 C-70.85982788 206.47068237 -70.85982788 206.47068237 -71.41821289 205.5480957 C-76.24758393 197.25514235 -79.8575514 188.33948514 -83.6171875 179.52734375 C-87.14495553 170.99359596 -87.14495553 170.99359596 -93 164 C-92.34 164 -91.68 164 -91 164 C-91.144375 163.319375 -91.28875 162.63875 -91.4375 161.9375 C-92.06945909 158.63726918 -92.54313941 155.32855574 -93 152 C-90.68853311 154.83236084 -89.35051496 157.35531854 -88.1875 160.8125 C-86.49939533 165.66005349 -84.66823496 170.4277701 -82.75 175.1875 C-82.47953857 175.85950439 -82.20907715 176.53150879 -81.93041992 177.22387695 C-81.28837247 178.81649353 -80.64439936 180.40833359 -80 182 C-79.83334144 175.57612253 -79.83334144 175.57612253 -81.5 169.4375 C-85.49113478 156.95094977 -82.41027383 143.52481581 -80 131 C-79.01 131.66 -78.02 132.32 -77 133 C-76.8125 136.125 -76.8125 136.125 -77 139 C-77.33 139 -77.66 139 -78 139 C-78.85695967 144.88400655 -79.12539234 150.55909292 -79.0625 156.5 C-79.05798828 157.32242188 -79.05347656 158.14484375 -79.04882812 158.9921875 C-79.03718489 160.99482396 -79.01925556 162.99742227 -79 165 C-78.34 165 -77.68 165 -77 165 C-76.67 163.68 -76.34 162.36 -76 161 C-75.67 161 -75.34 161 -75 161 C-74.67 158.69 -74.34 156.38 -74 154 C-73.67 154 -73.34 154 -73 154 C-72.505 151.03 -72.505 151.03 -72 148 C-71.67 148 -71.34 148 -71 148 C-70.20303003 156.10252805 -72.16800249 162.50150329 -74.86572266 170.04614258 C-77.93298992 178.88435565 -77.62070121 186.33087628 -74 195 C-69.33686419 204.35870649 -63.74753705 213.27704988 -58 222 C-56.8081501 221.02686827 -56.8081501 221.02686827 -56.87695217 219.23712826 C-56.87787396 218.46374394 -56.87879576 217.69035963 -56.87974548 216.89353943 C-56.87837082 216.00867859 -56.87699615 215.12381775 -56.87557983 214.21214294 C-56.87917511 213.23391068 -56.88277039 212.25567841 -56.88647461 211.24780273 C-56.88632858 210.2235318 -56.88618256 209.19926086 -56.8860321 208.14395142 C-56.88673172 204.74047771 -56.89452637 201.33705796 -56.90234375 197.93359375 C-56.90420776 195.58089732 -56.90563174 193.2282005 -56.90663147 190.87550354 C-56.91045801 184.66943295 -56.92028945 178.4633856 -56.93133545 172.25732422 C-56.94154666 165.93001622 -56.94612846 159.60270448 -56.95117188 153.27539062 C-56.9619116 140.85025018 -56.97898964 128.42512702 -57 116 C-57.66 116 -58.32 116 -59 116 C-59.03758423 115.07102905 -59.03758423 115.07102905 -59.07592773 114.12329102 C-59.19322658 111.26955112 -59.31533586 108.41603559 -59.4375 105.5625 C-59.47681641 104.58861328 -59.51613281 103.61472656 -59.55664062 102.61132812 C-59.68151778 99.73915358 -59.8337949 96.87005989 -60 94 C-60.0402832 93.16621826 -60.08056641 92.33243652 -60.12207031 91.47338867 C-60.49887402 86.33001803 -61.57168917 83.31966354 -64.875 79.1875 C-65.57367188 78.29417969 -66.27234375 77.40085937 -66.9921875 76.48046875 C-67.65476562 75.66191406 -68.31734375 74.84335938 -69 74 C-70.0053538 72.67069886 -71.0075063 71.33893018 -72 70 C-71.67 69.34 -71.34 68.68 -71 68 C-69.68527053 69.62319675 -68.37328338 71.248615 -67.0625 72.875 C-66.33160156 73.77992187 -65.60070312 74.68484375 -64.84765625 75.6171875 C-63 78 -63 78 -62 80 C-61.56554352 69.81440924 -62.46130411 60.11503757 -63.93286133 50.03491211 C-64.66539097 44.95856437 -65.17098974 40.12969223 -65 35 C-64.67 35 -64.34 35 -64 35 C-61.08866291 52.01219035 -58.35466594 68.89027313 -57.21777344 86.13183594 C-57.03810262 88.22611857 -57.03810262 88.22611857 -56 91 C-54.68 90.01 -53.36 89.02 -52 88 C-51.01 88.495 -51.01 88.495 -50 89 C-51.010625 89.53625 -52.02125 90.0725 -53.0625 90.625 C-54.83289591 91.96342816 -54.83289591 91.96342816 -56 94 C-56.28494387 97.94700027 -55.78242846 101.69115764 -55.27270508 105.60229492 C-53.91563723 117.53404363 -53.87156064 129.45022235 -53.9375 141.4375 C-53.94253291 143.05533713 -53.9470926 144.67317581 -53.95117188 146.29101562 C-53.96201754 150.19404967 -53.97917977 154.09700695 -54 158 C-42.4484726 146.80536603 -42.4484726 146.80536603 -36.5 132.375 C-37.20893548 127.58968551 -39.34698311 125.26711038 -43.125 122.37109375 C-45.79303628 118.99713954 -45.43839213 115.85115176 -45.25 111.75 C-45.23195312 111.00492187 -45.21390625 110.25984375 -45.1953125 109.4921875 C-45.14835649 107.66090299 -45.07661652 105.83028351 -45 104 C-44.34 104 -43.68 104 -43 104 C-43 105.32 -43 106.64 -43 108 C-42.484375 107.690625 -41.96875 107.38125 -41.4375 107.0625 C-38.33696186 105.71098337 -35.34141171 105.43314596 -32 105 C-31.34 104.67 -30.68 104.34 -30 104 C-28.76112452 106.47775095 -28.83258331 108.23653707 -28.8125 111 C-28.79832031 111.886875 -28.78414063 112.77375 -28.76953125 113.6875 C-29 116 -29 116 -31 118 C-31 118.33 -31 118.66 -31 119 C-31.84848485 123.84848485 -31.84848485 123.84848485 -33 125 C-33.04080783 126.99958364 -33.04254356 129.00045254 -33 131 C-21.32890887 111.02946629 -13.0393054 94.70540685 -18.44140625 71.3203125 C-18.94392648 68.33330417 -19.05398873 66.77806301 -18 64 C-14.78556091 72.18220858 -13.90504172 80.32224704 -13 89 C-3.54203096 59.74066601 -0.89397432 30.5659268 0 0 Z " transform="translate(149,15)" style="fill: #6C6C6B;"/><path d="M0 0 C0.33 0 0.66 0 1 0 C1.59325159 39.51359845 1.59325159 39.51359845 -1.34375 54.5703125 C-2.12528968 58.07280307 -2.12528968 58.07280307 -2 62 C-1.43152344 61.27554688 -0.86304688 60.55109375 -0.27734375 59.8046875 C3.6598367 54.87499579 7.36704362 50.2379707 12.4921875 46.51171875 C16.86985312 42.12271202 17.37602425 37.15167235 17.4375 31.25 C17.66078484 24.50321899 18.86434305 19.06713159 22 13 C22.66 13 23.32 13 24 13 C26.48506151 32.6586116 26.48506151 32.6586116 23.5 39.375 C20.83868171 42.1693842 18.04115569 44.65938901 15.0859375 47.13671875 C12.30741102 49.61866094 9.9815165 52.39285371 7.5859375 55.23828125 C6 57 6 57 3.4375 58.875 C-3.51189302 64.9334452 -6.29467604 73.94490725 -8.6875 82.5625 C-9.25284312 84.52244239 -9.81923566 86.4820824 -10.38671875 88.44140625 C-10.78576416 89.83770264 -10.78576416 89.83770264 -11.19287109 91.26220703 C-12.35743861 95.21243695 -13.66883789 99.10303298 -15 103 C-9.75566222 99.56329183 -9.75566222 99.56329183 -7.18359375 94.05859375 C-6.99925781 92.96675781 -6.81492188 91.87492187 -6.625 90.75 C-5.27820904 83.31707775 -1.70461367 78.83652028 4 74 C4.99 73.67 5.98 73.34 7 73 C7 73.99 7 74.98 7 76 C10.465 75.01 10.465 75.01 14 74 C15.65 75.65 17.3 77.3 19 79 C18.401875 78.835 17.80375 78.67 17.1875 78.5 C14.88655664 77.8885876 14.88655664 77.8885876 12 78 C13.66924071 81.04134491 13.66924071 81.04134491 16 82 C15.195625 82.28875 14.39125 82.5775 13.5625 82.875 C10.8673532 83.73262568 10.8673532 83.73262568 10 86 C10.33 84.02 10.66 82.04 11 80 C10.21625 79.87625 9.4325 79.7525 8.625 79.625 C6 79 6 79 4 77 C-1.39339616 82.56307469 -1.39339616 82.56307469 -3 90 C-2.11785113 92.35355339 -2.11785113 92.35355339 1 93 C1.99 93.495 1.99 93.495 3 94 C7.78997731 94.27634484 11.58984436 93.94867342 16 92 C16.99 90.515 16.99 90.515 18 89 C18 91.3125 18 91.3125 17 94 C12.24901056 96.50995668 8.21034727 97.15449806 2.875 97.5 C-1.82770121 97.81233479 -4.98956207 98.35675682 -9 101 C-9.5878125 101.35304199 -10.175625 101.70608398 -10.78125 102.06982422 C-17.35886803 106.40433094 -20.26849672 112.02063384 -23.75 118.9375 C-24.8485528 121.05099209 -25.94750114 123.16427864 -27.046875 125.27734375 C-27.55283203 126.26460449 -28.05878906 127.25186523 -28.58007812 128.26904297 C-30.29666089 131.57057234 -32.11876055 134.79002104 -34 138 C-26.59558426 136.04251078 -21.64698223 134.24629844 -16.6015625 128.41796875 C-15 127 -15 127 -11.0625 126.5625 C-9.5465625 126.7790625 -9.5465625 126.7790625 -8 127 C-9.66666667 128.66666667 -11.33333333 130.33333333 -13 132 C-13.47203857 132.524729 -13.94407715 133.04945801 -14.43041992 133.59008789 C-17.60147494 136.43856242 -22.50312666 136.97383832 -26.57617188 138.01757812 C-34.47328235 140.15999001 -39.05043123 143.52484354 -43.875 150.25 C-44.2771875 150.80429688 -44.679375 151.35859375 -45.09375 151.9296875 C-46.0715348 153.27996175 -47.03708578 154.63908124 -48 156 C-48.66 155.34 -49.32 154.68 -50 154 C-48.7315625 152.6078125 -48.7315625 152.6078125 -47.4375 151.1875 C-42.62430721 145.52424452 -37.63213251 139.5629287 -36.3125 132.125 C-37.31233191 127.58030951 -39.47751842 125.1670493 -43.125 122.37109375 C-45.79303628 118.99713954 -45.43839213 115.85115176 -45.25 111.75 C-45.23195313 111.00492187 -45.21390625 110.25984375 -45.1953125 109.4921875 C-45.14835649 107.66090299 -45.07661652 105.83028351 -45 104 C-44.34 104 -43.68 104 -43 104 C-43 105.32 -43 106.64 -43 108 C-42.484375 107.690625 -41.96875 107.38125 -41.4375 107.0625 C-38.33696186 105.71098337 -35.34141171 105.43314596 -32 105 C-31.01 104.505 -31.01 104.505 -30 104 C-28.76112452 106.47775095 -28.83258331 108.23653707 -28.8125 111 C-28.79832031 111.886875 -28.78414062 112.77375 -28.76953125 113.6875 C-29 116 -29 116 -31 118 C-31 118.33 -31 118.66 -31 119 C-31.84848485 123.84848485 -31.84848485 123.84848485 -33 125 C-33.04080783 126.99958364 -33.04254356 129.00045254 -33 131 C-21.32890887 111.02946629 -13.0393054 94.70540685 -18.44140625 71.3203125 C-18.94392648 68.33330417 -19.05398873 66.77806301 -18 64 C-14.78556091 72.18220858 -13.90504172 80.32224704 -13 89 C-3.54203096 59.74066601 -0.89397432 30.5659268 0 0 Z " transform="translate(149,15)" style="fill: #6C6C6C;"/><path d="M0 0 C2.38488177 3.57732265 3.19769841 7.1457252 4.25 11.25 C11.06261931 36.61640586 23.76208164 61.0721823 40.9362793 80.96289062 C41.46648682 81.58228516 41.99669434 82.20167969 42.54296875 82.83984375 C43.01758545 83.37988037 43.49220215 83.91991699 43.98120117 84.47631836 C45 86 45 86 45 89 C40.70309131 85.06564298 37.26032578 81.02704608 34 76.1875 C31.04903822 72.04055837 31.04903822 72.04055837 26.75 69.4375 C24.53696434 69.17931251 22.32248668 68.9323401 20.10546875 68.7109375 C10.77494127 67.53743096 10.77494127 67.53743096 7.5 63.6875 C6.63613506 62.47959582 5.7998939 61.25118539 5 60 C1.44009997 55.10513746 -1.76366876 53.18959848 -7.43359375 51.10546875 C-16.73284836 47.63724749 -16.73284836 47.63724749 -20 43 C-20.67192471 40.26648811 -20.85581159 37.83570532 -21 35 C-19.10751181 34.32389577 -17.2108398 33.65949561 -15.3125 33 C-14.25675781 32.62875 -13.20101563 32.2575 -12.11328125 31.875 C-9.21637944 31.0608143 -6.98299377 30.82290204 -4 31 C-7.26737303 34.26737303 -10.83168198 34.95672896 -15.375 35.125 C-16.24125 35.08375 -17.1075 35.0425 -18 35 C-17.67 35.66 -17.34 36.32 -17 37 C-16.32195313 36.98839844 -15.64390625 36.97679687 -14.9453125 36.96484375 C-9.23374928 36.90946848 -3.67106655 37.12749313 2.00390625 37.78125 C3.99667551 38.03631228 3.99667551 38.03631228 6 38 C5.67 36.68 5.34 35.36 5 34 C8.42003203 37.10912003 9.8942111 39.5279206 10.23046875 44.20703125 C10.08639122 56.29644611 10.08639122 56.29644611 9 62 C12.49227431 65.2188892 15.60839611 65.62878842 20.25 66.1875 C22.14492187 66.42533203 22.14492187 66.42533203 24.078125 66.66796875 C25.04234375 66.77753906 26.0065625 66.88710937 27 67 C26.46632812 66.16082031 25.93265625 65.32164063 25.3828125 64.45703125 C14.0102228 46.23454197 -0.38811927 22.16161032 0 0 Z " transform="translate(44,40)" style="fill: #636363;"/><path d="M0 0 C0.66 0.99 1.32 1.98 2 3 C1.6596875 3.54785156 1.319375 4.09570312 0.96875 4.66015625 C-2.61184648 10.51671698 -5.91543389 16.48306468 -9.10742188 22.55688477 C-11.3181713 26.75809343 -13.62523862 30.88902419 -16 35 C-8.59558426 33.04251078 -3.64698223 31.24629844 1.3984375 25.41796875 C3 24 3 24 6.9375 23.5625 C8.4534375 23.7790625 8.4534375 23.7790625 10 24 C8.33333333 25.66666667 6.66666667 27.33333333 5 29 C4.52796143 29.524729 4.05592285 30.04945801 3.56958008 30.59008789 C0.39852506 33.43856242 -4.50312666 33.97383832 -8.57617188 35.01757812 C-16.47328235 37.15999001 -21.05043123 40.52484354 -25.875 47.25 C-26.47828125 48.08144531 -26.47828125 48.08144531 -27.09375 48.9296875 C-28.0715348 50.27996175 -29.03708578 51.63908124 -30 53 C-30.66 52.34 -31.32 51.68 -32 51 C-31.154375 50.071875 -30.30875 49.14375 -29.4375 48.1875 C-24.62430721 42.52424452 -19.63213251 36.5629287 -18.3125 29.125 C-19.31233191 24.58030951 -21.47751842 22.1670493 -25.125 19.37109375 C-27.79303628 15.99713954 -27.43839213 12.85115176 -27.25 8.75 C-27.23195313 8.00492188 -27.21390625 7.25984375 -27.1953125 6.4921875 C-27.14835649 4.66090299 -27.07661652 2.83028351 -27 1 C-26.34 1 -25.68 1 -25 1 C-25 2.32 -25 3.64 -25 5 C-24.484375 4.690625 -23.96875 4.38125 -23.4375 4.0625 C-20.33696186 2.71098337 -17.34141171 2.43314596 -14 2 C-13.34 1.67 -12.68 1.34 -12 1 C-10.76112452 3.47775095 -10.83258331 5.23653707 -10.8125 8 C-10.79832031 8.886875 -10.78414062 9.77375 -10.76953125 10.6875 C-11 13 -11 13 -13 15 C-13 15.33 -13 15.66 -13 16 C-13.84848485 20.84848485 -13.84848485 20.84848485 -15 22 C-15.04080783 23.99958364 -15.04254356 26.00045254 -15 28 C-9.73701036 18.78392036 -4.61734843 9.56062735 0 0 Z " transform="translate(131,118)" style="fill: #434343;"/><path d="M0 0 C0.33 0 0.66 0 1 0 C3.91133709 17.01219035 6.64533406 33.89027313 7.78222656 51.13183594 C7.96189738 53.22611857 7.96189738 53.22611857 9 56 C10.32 55.01 11.64 54.02 13 53 C13.66 53.33 14.32 53.66 15 54 C13.989375 54.53625 12.97875 55.0725 11.9375 55.625 C10.16710409 56.96342816 10.16710409 56.96342816 9 59 C8.71505613 62.94700027 9.21757154 66.69115764 9.72729492 70.60229492 C11.08436277 82.53404363 11.12843936 94.45022235 11.0625 106.4375 C11.05746709 108.05533713 11.0529074 109.67317581 11.04882812 111.29101562 C11.03798246 115.19404967 11.02082023 119.09700695 11 123 C12.65 122.01 14.3 121.02 16 120 C14.84826645 122.46800047 13.95216435 124.04783565 12 126 C11.6706462 127.9368613 11.6706462 127.9368613 11.68115234 130.17431641 C11.66128265 131.03505768 11.64141296 131.89579895 11.62094116 132.78262329 C11.60361435 134.1779982 11.60361435 134.1779982 11.5859375 135.6015625 C11.56657135 136.55316254 11.5472052 137.50476257 11.5272522 138.48519897 C11.46735868 141.53170747 11.42103205 144.57825354 11.375 147.625 C11.33682921 149.6875167 11.29777802 151.7500173 11.2578125 153.8125 C11.16164914 158.87486966 11.07765437 163.93731395 11 169 C10.67 169 10.34 169 10 169 C9.97494385 167.90349121 9.9498877 166.80698242 9.92407227 165.67724609 C9.80658813 160.57642398 9.68526913 155.47569746 9.5625 150.375 C9.54043488 149.45475037 9.51836975 148.53450073 9.49563599 147.58636475 C9.24924709 137.4260737 8.9807336 127.27457907 8.4375 117.125 C7.79813687 105.08964765 7.9061647 93.04845231 8 81 C7.34 81 6.68 81 6 81 C5.97494385 80.38068604 5.9498877 79.76137207 5.92407227 79.12329102 C5.80677342 76.26955112 5.68466414 73.41603559 5.5625 70.5625 C5.52318359 69.58861328 5.48386719 68.61472656 5.44335938 67.61132812 C5.31848222 64.73915358 5.1662051 61.87005989 5 59 C4.9395752 57.74932739 4.9395752 57.74932739 4.87792969 56.47338867 C4.50112598 51.33001803 3.42831083 48.31966354 0.125 44.1875 C-0.57367188 43.29417969 -1.27234375 42.40085938 -1.9921875 41.48046875 C-2.65476562 40.66191406 -3.31734375 39.84335938 -4 39 C-5.0053538 37.67069886 -6.0075063 36.33893018 -7 35 C-6.67 34.34 -6.34 33.68 -6 33 C-4.68527053 34.62319675 -3.37328338 36.248615 -2.0625 37.875 C-1.33160156 38.77992187 -0.60070312 39.68484375 0.15234375 40.6171875 C2 43 2 43 3 45 C3.43445648 34.81440924 2.53869589 25.11503757 1.06713867 15.03491211 C0.33460903 9.95856437 -0.17098974 5.12969223 0 0 Z " transform="translate(84,50)" style="fill: #2E2F2D;"/><path d="M0 0 C3.62389766 5.43584649 4.42470626 11.02643548 5.125 17.375 C5.21136719 18.11105469 5.29773438 18.84710938 5.38671875 19.60546875 C5.59681885 21.40299182 5.79920767 23.20141342 6 25 C6.33773437 23.84242187 6.67546875 22.68484375 7.0234375 21.4921875 C7.47389983 19.95310788 7.92442394 18.41404633 8.375 16.875 C8.59671875 16.11445312 8.8184375 15.35390625 9.046875 14.5703125 C10.28382784 10.35012047 11.57708693 6.16235318 13 2 C13.66 2.33 14.32 2.66 15 3 C13.76529763 8.12721702 12.162879 13.14490914 10.625 18.1875 C10.16867188 19.69280273 10.16867188 19.69280273 9.703125 21.22851562 C7.88967067 27.18424064 5.99628046 33.10301202 4 39 C9.24433778 35.56329183 9.24433778 35.56329183 11.81640625 30.05859375 C12.00074219 28.96675781 12.18507812 27.87492187 12.375 26.75 C13.72179096 19.31707775 17.29538633 14.83652028 23 10 C23.99 9.67 24.98 9.34 26 9 C26 9.99 26 10.98 26 12 C28.31 11.34 30.62 10.68 33 10 C35.475 12.475 35.475 12.475 38 15 C37.401875 14.835 36.80375 14.67 36.1875 14.5 C33.88655664 13.8885876 33.88655664 13.8885876 31 14 C32.66924071 17.04134491 32.66924071 17.04134491 35 18 C34.195625 18.28875 33.39125 18.5775 32.5625 18.875 C29.8673532 19.73262568 29.8673532 19.73262568 29 22 C29.33 20.02 29.66 18.04 30 16 C29.21625 15.87625 28.4325 15.7525 27.625 15.625 C25 15 25 15 23 13 C17.60660384 18.56307469 17.60660384 18.56307469 16 26 C16.88214887 28.35355339 16.88214887 28.35355339 20 29 C20.66 29.33 21.32 29.66 22 30 C26.78997731 30.27634484 30.58984436 29.94867342 35 28 C35.66 27.01 36.32 26.02 37 25 C37 27.3125 37 27.3125 36 30 C31.24901056 32.50995668 27.21034727 33.15449806 21.875 33.5 C13.96052504 34.01637729 9.21595306 37.40019473 3 42 C1.07742996 38.58209771 0.95162669 37.20385894 1.875 33.3125 C2.07222656 32.61898437 2.26945313 31.92546875 2.47265625 31.2109375 C4.39191204 23.16427991 2.4076592 15.21787065 0.65625 7.3203125 C0 4 0 4 0 0 Z " transform="translate(130,79)" style="fill: #6D6D6D;"/><path d="M0 0 C1.62283808 3.24567617 0.54725234 6.63839624 0.0625 10.125 C-0.03740234 10.87910156 -0.13730469 11.63320312 -0.24023438 12.41015625 C-0.48798404 14.27417753 -0.74328057 16.13719288 -1 18 C-1.66 18 -2.32 18 -3 18 C-3 18.66 -3 19.32 -3 20 C-5.52892721 22.73397536 -7.89595133 24.93063422 -11 27 C-11.66 27 -12.32 27 -13 27 C-13.66 27.33 -14.32 27.66 -15 28 C-14.34 26.35 -13.68 24.7 -13 23 C-13.33 23.33 -13.66 23.66 -14 24 C-15 21 -15 21 -14 18 C-14.33 17.01 -14.66 16.02 -15 15 C-13.91221582 9.40568137 -9.27966064 6.31407755 -5 3 C-2 1.0625 -2 1.0625 0 0 Z " transform="translate(139,164)" style="fill: #F1F1F1;"/><path d="M0 0 C0.66 0.33 1.32 0.66 2 1 C2 1.66 2 2.32 2 3 C3.65 3.33 5.3 3.66 7 4 C6.67 5.98 6.34 7.96 6 10 C6.99 10.33 7.98 10.66 9 11 C9 12.32 9 13.64 9 15 C9.66 15.33 10.32 15.66 11 16 C10.34 16 9.68 16 9 16 C9 16.66 9 17.32 9 18 C4.85327295 19.38224235 0.8867771 19.73374665 -3.25 18.125 C-4.84425268 17.10012328 -6.42304761 16.05130159 -8 15 C-7.09801147 8.00181313 -5.39999239 4.57825441 0 0 Z " transform="translate(153,91)" style="fill: #F5F5F5;"/><path d="M0 0 C0.33 0.99 0.66 1.98 1 3 C1.66 2.67 2.32 2.34 3 2 C2.67 3.65 2.34 5.3 2 7 C2.66 6.34 3.32 5.68 4 5 C3.47731534 7.76276177 2.89130413 10.3260876 2 13 C6.24822374 12.52797514 8.19989709 10.03344482 11 7 C9.49345018 13.214518 4.09575516 17.09142434 -1.12890625 20.3125 C-1.80824219 20.704375 -2.48757812 21.09625 -3.1875 21.5 C-7.36844645 23.96568637 -9.43673185 26.91479139 -12 31 C-10.55367187 30.58427734 -10.55367187 30.58427734 -9.078125 30.16015625 C-7.18320313 29.61681641 -7.18320313 29.61681641 -5.25 29.0625 C-3.99703125 28.70285156 -2.7440625 28.34320313 -1.453125 27.97265625 C1.02561719 27.27445851 3.49660162 26.60056274 6 26 C1.9571973 30.46574206 -3.46192216 31.68788841 -9.1875 33 C-15.99406447 34.78532839 -19.06958605 37.97877886 -23.3515625 43.35546875 C-25 45 -25 45 -28 45 C-26.54960752 42.09921504 -24.31361317 40.26862624 -22 38 C-11.96980366 28.01698872 -5.99640901 19.32840124 -2.67578125 5.3125 C-2 3 -2 3 0 0 Z " transform="translate(124,177)" style="fill: #979797;"/><path d="M0 0 C0 0.33 0 0.66 0 1 C-1.65 1 -3.3 1 -5 1 C-5.12375 1.804375 -5.2475 2.60875 -5.375 3.4375 C-5.58125 4.283125 -5.7875 5.12875 -6 6 C-6.99 6.495 -6.99 6.495 -8 7 C-8.84947478 11.71072376 -9.17156754 14.31372982 -8 19 C-6.68 16.36 -5.36 13.72 -4 11 C-3.67 11.99 -3.34 12.98 -3 14 C-2.34 14 -1.68 14 -1 14 C-0.01 12.02 0.98 10.04 2 8 C3.36539987 12.09619961 2.2163009 13.9237367 0.4296875 17.71875 C-3.55817823 24.08190187 -11.45652232 27.72826116 -18 31 C-17.02793674 28.83155119 -16.25012072 27.22703265 -14.4765625 25.6171875 C-11.76108687 22.64309514 -11.97615055 18.88149794 -12 15 C-12.38408838 12.40740341 -12.89966851 9.90333027 -13.52734375 7.359375 C-14.03002098 4.85014323 -14.07693253 2.55234988 -14 0 C-11.98177083 0.03255208 -9.96354167 0.06510417 -7.9453125 0.09765625 C-0.86009174 -0.25802752 -0.86009174 -0.25802752 0 0 Z " transform="translate(111,58)" style="fill: #8C8C8C;"/><path d="M0 0 C1.65 0.33 3.3 0.66 5 1 C5.32686477 6.80184966 5.62655835 12.60382828 5.88427734 18.40917969 C5.95550304 20.00379383 6.03051212 21.59825077 6.11181641 23.19238281 C6.52629838 31.775348 6.30990619 37.92337195 0.55078125 44.70703125 C-1 46 -1 46 -4 46 C-4 43.36 -4 40.72 -4 38 C-2.9375 39.875 -2.9375 39.875 -2 42 C-2.33 42.66 -2.66 43.32 -3 44 C-1.68 42.68 -0.36 41.36 1 40 C0.34 39.67 -0.32 39.34 -1 39 C-0.01 38.505 -0.01 38.505 1 38 C1.02717692 35.93757383 1.0464758 33.87504297 1.0625 31.8125 C1.07410156 30.66394531 1.08570312 29.51539063 1.09765625 28.33203125 C1.01192832 25.40699414 0.67849023 22.83683709 0 20 C-0.33 20 -0.66 20 -1 20 C-0.67 13.4 -0.34 6.8 0 0 Z " transform="translate(94,232)" style="fill: #E4E4E4;"/><path d="M0 0 C1.051875 0.185625 2.10375 0.37125 3.1875 0.5625 C6.60938035 0.95517479 8.71785136 0.7502054 12 0 C12.66 0.33 13.32 0.66 14 1 C15.70363822 1.22622081 17.41328701 1.40888473 19.125 1.5625 C20.03507812 1.64628906 20.94515625 1.73007813 21.8828125 1.81640625 C22.58148438 1.87699219 23.28015625 1.93757813 24 2 C24.77029774 5.08119095 25.0472231 7.90445531 25 11.0625 C25 14.06590318 25.06848109 16.20544327 26 19 C23.7522025 16.94766315 22.9977758 15.99332739 22 13 C21.01 13.33 20.02 13.66 19 14 C18.01 11.69 17.02 9.38 16 7 C16 8.32 16 9.64 16 11 C13.0280615 9.87548273 10.66559313 8.77706209 8 7 C8.99 8.485 8.99 8.485 10 10 C7.35337395 9.84876423 5.55721506 9.49998757 3.5546875 7.703125 C0 3.6 0 3.6 0 0 Z " transform="translate(25,78)" style="fill: #F3F3F3;"/><path d="M0 0 C-3.26737303 3.26737303 -6.83168198 3.95672896 -11.375 4.125 C-12.24125 4.08375 -13.1075 4.0425 -14 4 C-13.67 4.66 -13.34 5.32 -13 6 C-11.98292969 5.98259766 -11.98292969 5.98259766 -10.9453125 5.96484375 C-5.23374928 5.90946848 0.32893345 6.12749313 6.00390625 6.78125 C7.99667551 7.03631228 7.99667551 7.03631228 10 7 C9.67 5.68 9.34 4.36 9 3 C11.37132247 5.1557477 12.86201479 6.99246765 14 10 C13.9765625 13.234375 13.9765625 13.234375 13.625 16.75 C13.51414062 17.92046875 13.40328125 19.0909375 13.2890625 20.296875 C13.14597656 21.63492188 13.14597656 21.63492188 13 23 C12.34 23 11.68 23 11 23 C9.63578969 20.27157939 10.12192789 18.39046682 10.4375 15.375 C10.53933594 14.37210938 10.64117187 13.36921875 10.74609375 12.3359375 C10.82988281 11.56507812 10.91367187 10.79421875 11 10 C10.19175781 9.93941406 9.38351563 9.87882812 8.55078125 9.81640625 C7.48214844 9.73261719 6.41351563 9.64882812 5.3125 9.5625 C4.25675781 9.48128906 3.20101562 9.40007812 2.11328125 9.31640625 C-1 9 -1 9 -3.6953125 8.43359375 C-6.64357566 7.87892051 -9.06783 8.47872533 -12 9 C-12.66 8.67 -13.32 8.34 -14 8 C-12.73058503 11.91402949 -11.48832306 13.79072873 -8 16 C-6.64644661 14.88214887 -6.64644661 14.88214887 -7 12 C-4.36 13.98 -1.72 15.96 1 18 C0.67 16.02 0.34 14.04 0 12 C2.46278801 14.46278801 2.99771255 16.70676982 4 20 C-1.85774121 21.61087883 -5.76720117 19.69802764 -11 17 C-13.93741239 14.8419011 -15.63485506 13.48547602 -16.515625 9.90234375 C-16.77788047 7.94577988 -16.89975348 5.97151483 -17 4 C-15.10751181 3.32389577 -13.2108398 2.65949561 -11.3125 2 C-10.25675781 1.62875 -9.20101563 1.2575 -8.11328125 0.875 C-5.21637944 0.0608143 -2.98299377 -0.17709796 0 0 Z " transform="translate(40,71)" style="fill: #8F8F8F;"/><path d="M0 0 C0.66 0 1.32 0 2 0 C1.67 5.94 1.34 11.88 1 18 C1.33 18 1.66 18 2 18 C2 13.38 2 8.76 2 4 C4 6 4 6 4.23950195 8.51513672 C4.23889771 10.08158936 4.23889771 10.08158936 4.23828125 11.6796875 C4.25439453 12.83726563 4.27050781 13.99484375 4.28710938 15.1875 C4.30376713 17.60671909 4.30935163 20.02604511 4.30273438 22.4453125 C4.44903944 31.01595776 6.28834839 37.32165953 10 45 C10.67957776 46.66144404 11.35048417 48.32657495 12 50 C3.64872874 42.41472901 -2.31475029 29.98805377 -3.2734375 18.8125 C-3.48234057 11.8704902 -2.61322003 6.42416591 0 0 Z " transform="translate(65,33)" style="fill: #A5A5A5;"/><path d="M0 0 C4.28476669 3.63483017 5.07851374 8.64966503 6 14 C6.06661121 18.8922232 5.32679926 22.69408413 3 27 C2.62875 27.7425 2.2575 28.485 1.875 29.25 C1.441875 30.11625 1.441875 30.11625 1 31 C0.01 31 -0.98 31 -2 31 C-4.10372752 21.95063241 -3.76000315 11.11548802 -2 2 C-1.34 1.34 -0.68 0.68 0 0 Z " transform="translate(72,149)" style="fill: #9B9B9B;"/><path d="M0 0 C0.33 0 0.66 0 1 0 C3.91133709 17.01219035 6.64533406 33.89027313 7.78222656 51.13183594 C7.96189738 53.22611857 7.96189738 53.22611857 9 56 C10.32 55.01 11.64 54.02 13 53 C13.66 53.33 14.32 53.66 15 54 C10.375 58 10.375 58 7 58 C7 62.95 7 67.9 7 73 C6.67 73 6.34 73 6 73 C5.98130859 72.3608667 5.96261719 71.7217334 5.94335938 71.06323242 C5.43883574 53.35199832 5.43883574 53.35199832 -4 39 C-5.01914377 37.68124158 -6.02607836 36.35249933 -7 35 C-6.67 34.34 -6.34 33.68 -6 33 C-4.68527053 34.62319675 -3.37328338 36.248615 -2.0625 37.875 C-1.33160156 38.77992187 -0.60070312 39.68484375 0.15234375 40.6171875 C2 43 2 43 3 45 C3.43445648 34.81440924 2.53869589 25.11503757 1.06713867 15.03491211 C0.33460903 9.95856437 -0.17098974 5.12969223 0 0 Z " transform="translate(84,50)" style="fill: #6B6B6B;"/><path d="M0 0 C3.63 0 7.26 0 11 0 C10 5 10 5 9 7 C8.34 7 7.68 7 7 7 C6.34 9.31 5.68 11.62 5 14 C2 13 2 13 1 11 C-0.32 13.64 -1.64 16.28 -3 19 C-3.33 19 -3.66 19 -4 19 C-4.92067036 13.66011194 -5.35171342 10.07475 -3 5 C-2.34 4.67 -1.68 4.34 -1 4 C-0.67 2.68 -0.34 1.36 0 0 Z " transform="translate(106,59)" style="fill: #EDEDED;"/><path d="M0 0 C2.25 -0.0625 2.25 -0.0625 5 1 C6.78217572 3.83377008 8.08957414 6.77803836 9 10 C8.67 10.66 8.34 11.32 8 12 C7.34 11.67 6.68 11.34 6 11 C3.58736857 10.76624026 1.16931915 10.58692854 -1.25 10.4375 C-3.20679688 10.31181641 -3.20679688 10.31181641 -5.203125 10.18359375 C-8.47781291 10.02524979 -11.72253069 9.96437533 -15 10 C-15.33 9.01 -15.66 8.02 -16 7 C-15.01257813 6.82984375 -14.02515625 6.6596875 -13.0078125 6.484375 C-11.72648437 6.24203125 -10.44515625 5.9996875 -9.125 5.75 C-7.84882812 5.51796875 -6.57265625 5.2859375 -5.2578125 5.046875 C-1.91662203 4.34008964 -1.91662203 4.34008964 -0.5546875 1.890625 C-0.37164062 1.26671875 -0.18859375 0.6428125 0 0 Z " transform="translate(42,68)" style="fill: #EAEAEA;"/><path d="M0 0 C2.64 0 5.28 0 8 0 C8 2.31 8 4.62 8 7 C7.67 6.01 7.34 5.02 7 4 C5.5783681 7.3171411 4.60990891 10.44219804 4 14 C3.34 14 2.68 14 2 14 C2 15.65 2 17.3 2 19 C-0.52588702 16.63707344 -1.88820837 15.33537489 -3 12 C-3.99 12.495 -3.99 12.495 -5 13 C-5 10.03 -5 7.06 -5 4 C-3.68 3.34 -2.36 2.68 -1 2 C-0.67 1.34 -0.34 0.68 0 0 Z " transform="translate(111,122)" style="fill: #F2F2F2;"/><path d="M0 0 C3.62389766 5.43584649 4.42470626 11.02643548 5.125 17.375 C5.21136719 18.11105469 5.29773438 18.84710938 5.38671875 19.60546875 C5.59681885 21.40299182 5.79920767 23.20141342 6 25 C6.33773437 23.84242187 6.67546875 22.68484375 7.0234375 21.4921875 C7.47389983 19.95310788 7.92442394 18.41404633 8.375 16.875 C8.59671875 16.11445312 8.8184375 15.35390625 9.046875 14.5703125 C10.28382784 10.35012047 11.57708693 6.16235318 13 2 C13.66 2.33 14.32 2.66 15 3 C13.76529763 8.12721702 12.162879 13.14490914 10.625 18.1875 C10.16867188 19.69280273 10.16867188 19.69280273 9.703125 21.22851562 C7.88967067 27.18424064 5.99628046 33.10301202 4 39 C5.65 37.68 7.3 36.36 9 35 C9.66 35.33 10.32 35.66 11 36 C8.36 37.98 5.72 39.96 3 42 C1.07742996 38.58209771 0.95162669 37.20385894 1.875 33.3125 C2.07222656 32.61898437 2.26945313 31.92546875 2.47265625 31.2109375 C4.39191204 23.16427991 2.4076592 15.21787065 0.65625 7.3203125 C0 4 0 4 0 0 Z " transform="translate(130,79)" style="fill: #6A6A6A;"/><path d="M0 0 C0.66 0 1.32 0 2 0 C2.97159933 7.68604474 3.10920422 15.25863399 3 23 C1.02 23.66 -0.96 24.32 -3 25 C-4.1560149 15.57596549 -4.70218374 8.57694459 0 0 Z " transform="translate(171,28)" style="fill: #C2C2C2;"/><path d="M0 0 C0.66 0 1.32 0 2 0 C2.22171875 0.63421875 2.4434375 1.2684375 2.671875 1.921875 C7.17234329 13.72745124 14.00984004 24.51476006 21 35 C21.99 34.505 21.99 34.505 23 34 C23.89531615 39.85964378 24.02101865 45.28187195 23.625 51.1875 C23.58117187 51.96802734 23.53734375 52.74855469 23.4921875 53.55273438 C23.25419582 57.44984819 22.90143175 61.1880132 22 65 C21.67 65 21.34 65 21 65 C21.04189453 64.23969482 21.08378906 63.47938965 21.12695312 62.69604492 C22.77762747 46.41990061 22.77762747 46.41990061 17.5625 31.75 C16.47388672 30.61691406 16.47388672 30.61691406 15.36328125 29.4609375 C12.40677678 26.38226342 10.39580381 23.04481728 8.25 19.375 C7.86924316 18.73304688 7.48848633 18.09109375 7.09619141 17.4296875 C0 5.32018855 0 5.32018855 0 0 Z " transform="translate(70,202)" style="fill: #5B5B5B;"/><path d="M0 0 C0.66 0 1.32 0 2 0 C2 1.32 2 2.64 2 4 C2.515625 3.690625 3.03125 3.38125 3.5625 3.0625 C6.66303814 1.71098337 9.65858829 1.43314596 13 1 C13.66 0.67 14.32 0.34 15 0 C16.23887548 2.47775095 16.16741669 4.23653707 16.1875 7 C16.20167969 7.886875 16.21585938 8.77375 16.23046875 9.6875 C16 12 16 12 14 14 C14 14.33 14 14.66 14 15 C13.625 17.5 13.625 17.5 13 20 C12.34 20.33 11.68 20.66 11 21 C10.34 19.68 9.68 18.36 9 17 C9.66 17 10.32 17 11 17 C11.33 13.7 11.66 10.4 12 7 C12.66 7 13.32 7 14 7 C14.33 5.68 14.66 4.36 15 3 C11.18186553 3.27540704 11.18186553 3.27540704 8 5 C6 7 6 7 2 7 C2.55728913 10.34373475 3.35173889 13.03312999 5 16 C4.01 16.99 3.02 17.98 2 19 C-0.52775351 15.20836973 -0.22443035 12.19125969 -0.125 7.8125 C-0.11597656 7.06291016 -0.10695313 6.31332031 -0.09765625 5.54101562 C-0.07412578 3.69387346 -0.03825561 1.84689588 0 0 Z " transform="translate(104,119)" style="fill: #848484;"/><path d="M0 0 C0.99 0.66 1.98 1.32 3 2 C3.1875 5.125 3.1875 5.125 3 8 C2.67 8 2.34 8 2 8 C1.14304033 13.88400655 0.87460766 19.55909292 0.9375 25.5 C0.94201172 26.32242188 0.94652344 27.14484375 0.95117188 27.9921875 C0.96281511 29.99482396 0.98074444 31.99742227 1 34 C1.66 34.33 2.32 34.66 3 35 C2.34 35 1.68 35 1 35 C0.67 36.32 0.34 37.64 0 39 C-3.59520666 35.40479334 -3.18579705 31.28652558 -3.25 26.375 C-3.21475635 17.39668021 -1.69264298 8.79569834 0 0 Z " transform="translate(69,146)" style="fill: #A9A9A9;"/><path d="M0 0 C0.33 0 0.66 0 1 0 C1.41277905 23.99516389 1.41277905 23.99516389 -1 33 C-1.33 33 -1.66 33 -2 33 C-5.15140779 21.57614678 -5.52491142 10.70451588 0 0 Z " transform="translate(133,43)" style="fill: #969696;"/><path d="M0 0 C0.66 0.33 1.32 0.66 2 1 C2.37890625 3.31640625 2.37890625 3.31640625 2.5625 6.5625 C2.6346875 7.80386719 2.706875 9.04523438 2.78125 10.32421875 C3.2433338 19.8803684 3.63356743 29.43976255 4 39 C3.67 39 3.34 39 3 39 C2.505 43.95 2.505 43.95 2 49 C1.67 49 1.34 49 1 49 C1 40.42 1 31.84 1 23 C0.34 23 -0.32 23 -1 23 C-0.67 15.41 -0.34 7.82 0 0 Z " transform="translate(91,108)" style="fill: #333333;"/><path d="M0 0 C2 2 2 2 2 3 C2.33 3.66 2.66 4.32 3 5 C3 5.99 3 6.98 3 8 C4.00836062 9.23267348 4.00836062 9.23267348 6.06640625 9.09765625 C6.89011719 9.08605469 7.71382812 9.07445313 8.5625 9.0625 C9.38878906 9.05347656 10.21507812 9.04445313 11.06640625 9.03515625 C11.70449219 9.02355469 12.34257812 9.01195313 13 9 C12.67 7.68 12.34 6.36 12 5 C12.66 5.33 13.32 5.66 14 6 C14 7.32 14 8.64 14 10 C14.66 10.33 15.32 10.66 16 11 C15.34 11 14.68 11 14 11 C14 11.66 14 12.32 14 13 C9.85327295 14.38224235 5.8867771 14.73374665 1.75 13.125 C0.15574732 12.10012328 -1.42304761 11.05130159 -3 10 C-2.69201674 8.51988629 -2.378482 7.04092675 -2.0625 5.5625 C-1.80146484 4.32693359 -1.80146484 4.32693359 -1.53515625 3.06640625 C-1 1 -1 1 0 0 Z " transform="translate(148,96)" style="fill: #C0C0C0;"/><path d="M0 0 C0.26554688 0.59425781 0.53109375 1.18851563 0.8046875 1.80078125 C2.02435581 4.0448115 3.3103943 5.41234225 5.125 7.1875 C7.75815911 10.12743493 8.3998221 11.99078534 8.375 15.9375 C8.27987996 17.29409299 8.16528674 18.65015829 8 20 C3.81748595 17.49049157 0.87602638 15.58584227 -1 11 C-1.40931659 7.13423216 -1.23919037 3.71757111 0 0 Z " transform="translate(137,18)" style="fill: #888888;"/><path d="M0 0 C2.10618396 0.55751928 3.81884536 1 6 1 C3.45 11.625 3.45 11.625 1 16 C0.01 15.67 -0.98 15.34 -2 15 C-2.73046875 13.15234375 -2.73046875 13.15234375 -3.1875 10.9375 C-3.34605469 10.20402344 -3.50460938 9.47054687 -3.66796875 8.71484375 C-3.83232422 7.86599609 -3.83232422 7.86599609 -4 7 C-3.01 6.34 -2.02 5.68 -1 5 C-3.0072908 1.9890638 -3.83884224 1.36983503 -7 0 C-3.77167035 -1.07610988 -3.0998653 -0.93935312 0 0 Z " transform="translate(164,92)" style="fill: #CACACA;"/><path d="M0 0 C0.33 0 0.66 0 1 0 C3.72742829 20.11478363 3.72742829 20.11478363 0 27 C-0.99 27.33 -1.98 27.66 -3 28 C-3.22142255 26.04310341 -3.4267568 24.08438048 -3.625 22.125 C-3.74101563 21.03445313 -3.85703125 19.94390625 -3.9765625 18.8203125 C-3.98429687 17.88960938 -3.99203125 16.95890625 -4 16 C-3.34 15.34 -2.68 14.68 -2 14 C-1.54152311 11.63969304 -1.17856869 9.2601826 -0.875 6.875 C-0.70742187 5.59367188 -0.53984375 4.31234375 -0.3671875 2.9921875 C-0.24601562 2.00476563 -0.12484375 1.01734375 0 0 Z " transform="translate(94,248)" style="fill: #E7E7E7;"/><path d="M0 0 C2.37132247 2.1557477 3.86201479 3.99246765 5 7 C4.9765625 10.234375 4.9765625 10.234375 4.625 13.75 C4.45871094 15.50570312 4.45871094 15.50570312 4.2890625 17.296875 C4.14597656 18.63492188 4.14597656 18.63492188 4 20 C3.34 20 2.68 20 2 20 C0.63578969 17.27157939 1.12192789 15.39046682 1.4375 12.375 C1.53933594 11.37210938 1.64117187 10.36921875 1.74609375 9.3359375 C1.82988281 8.56507812 1.91367187 7.79421875 2 7 C1.19175781 6.93941406 0.38351563 6.87882812 -0.44921875 6.81640625 C-1.51785156 6.73261719 -2.58648437 6.64882812 -3.6875 6.5625 C-4.74324219 6.48128906 -5.79898438 6.40007812 -6.88671875 6.31640625 C-10 6 -10 6 -12.6875 5.4375 C-15.6512605 4.87678855 -18.070724 5.38689572 -21 6 C-21.33 5.34 -21.66 4.68 -22 4 C-14.78655704 3.10860496 -8.20033562 3.08410604 -1 4 C-0.34 4 0.32 4 1 4 C0.67 2.68 0.34 1.36 0 0 Z " transform="translate(49,74)" style="fill: #A3A3A3;"/><path d="M0 0 C0.99 0.33 1.98 0.66 3 1 C0.69 3.97 -1.62 6.94 -4 10 C-3.03578125 9.72285156 -2.0715625 9.44570312 -1.078125 9.16015625 C0.18515625 8.79792969 1.4484375 8.43570313 2.75 8.0625 C4.62945312 7.52302734 4.62945312 7.52302734 6.546875 6.97265625 C9.02561719 6.27445851 11.49660162 5.60056274 14 5 C9.9571973 9.46574206 4.53807784 10.68788841 -1.1875 12 C-7.99406447 13.78532839 -11.06958605 16.97877886 -15.3515625 22.35546875 C-17 24 -17 24 -20 24 C-18.55148152 21.10296304 -16.30525456 19.27336998 -14 17 C-11.91411538 14.83407168 -9.86141065 12.63836941 -7.8125 10.4375 C-7.27947266 9.87353516 -6.74644531 9.30957031 -6.19726562 8.72851562 C-3.63996305 5.97820908 -1.41178267 3.54244854 0 0 Z " transform="translate(116,198)" style="fill: #858585;"/><path d="M0 0 C4.61124256 8.82884247 3.44576598 19.42180039 2 29 C1.34 29 0.68 29 0 29 C-2.19256772 19.56847856 -1.06997568 9.53424757 0 0 Z " transform="translate(70,151)" style="fill: #E6E6E6;"/><path d="M0 0 C0.33 0 0.66 0 1 0 C1.38403454 5.66450945 1.7142542 11.32969413 2 17 C2.06832031 18.30839844 2.13664062 19.61679688 2.20703125 20.96484375 C2.4420189 28.98053361 1.89495053 34.41214722 -3.44921875 40.70703125 C-5 42 -5 42 -8 42 C-8 39.36 -8 36.72 -8 34 C-6.9375 35.875 -6.9375 35.875 -6 38 C-6.33 38.66 -6.66 39.32 -7 40 C-5.68 38.68 -4.36 37.36 -3 36 C-3.66 35.67 -4.32 35.34 -5 35 C-3.02 34.505 -3.02 34.505 -1 34 C-0.17777446 29.70394268 0.11770795 25.66033397 0.09765625 21.2890625 C0.09443359 20.04511719 0.09121094 18.80117187 0.08789062 17.51953125 C0.07951172 16.23433594 0.07113281 14.94914063 0.0625 13.625 C0.05798828 12.31660156 0.05347656 11.00820312 0.04882812 9.66015625 C0.03707594 6.44005719 0.02064543 3.2200523 0 0 Z " transform="translate(98,236)" style="fill: #6B6B6B;"/><path d="M0 0 C1.18826921 3.56480762 0.76813843 4.19969907 -0.75 7.5 C-1.09546875 8.2734375 -1.4409375 9.046875 -1.796875 9.84375 C-3.00953563 12.01708983 -4.02795844 13.48266476 -6 15 C-9.1875 14.6875 -9.1875 14.6875 -12 14 C-12 11.69 -12 9.38 -12 7 C-11.34 8.32 -10.68 9.64 -10 11 C-8.68 8.36 -7.36 5.72 -6 3 C-5.67 3.99 -5.34 4.98 -5 6 C-4.34 6 -3.68 6 -3 6 C-2.01 4.02 -1.02 2.04 0 0 Z " transform="translate(113,66)" style="fill: #CACACA;"/><path d="M0 0 C0.33 0 0.66 0 1 0 C1.98025171 10.12926764 -1.57173349 18.63348614 -5 28 C-5.66 28 -6.32 28 -7 28 C-8.21676146 25.42332866 -9.05184833 23.62217997 -8.8125 20.75 C-8.544375 20.1725 -8.27625 19.595 -8 19 C-7.01 18.67 -6.02 18.34 -5 18 C-5 16.35 -5 14.7 -5 13 C-4.34 13.66 -3.68 14.32 -3 15 C-2.67 12.03 -2.34 9.06 -2 6 C-1.67 6 -1.34 6 -1 6 C-0.67 4.02 -0.34 2.04 0 0 Z " transform="translate(77,163)" style="fill: #626262;"/><path d="M0 0 C2.52259061 1.97420135 2.9929808 2.96745642 3.6875 6.1875 C3.790625 7.115625 3.89375 8.04375 4 9 C4.66 9 5.32 9 6 9 C6.24234375 9.85722656 6.4846875 10.71445312 6.734375 11.59765625 C8.87898758 19.16084519 8.87898758 19.16084519 12.3125 26.1875 C12.869375 27.115625 13.42625 28.04375 14 29 C13.67 29.66 13.34 30.32 13 31 C5.94134116 21.62235814 -0.22661604 12.01064997 0 0 Z " transform="translate(63,52)" style="fill: #5C5C5C;"/><path d="M0 0 C1.010625 0.144375 2.02125 0.28875 3.0625 0.4375 C1.39583333 2.10416667 -0.27083333 3.77083333 -1.9375 5.4375 C-2.40736328 5.96005371 -2.87722656 6.48260742 -3.36132812 7.02099609 C-5.16924895 8.64577252 -6.51267973 9.1441922 -8.84375 9.7890625 C-9.95943359 10.10617188 -9.95943359 10.10617188 -11.09765625 10.4296875 C-11.86980469 10.63851562 -12.64195313 10.84734375 -13.4375 11.0625 C-14.96880767 11.49198195 -16.50005989 11.92166164 -18.03125 12.3515625 C-18.70865234 12.5367041 -19.38605469 12.7218457 -20.08398438 12.91259766 C-21.71562852 13.37466759 -23.32871347 13.90123782 -24.9375 14.4375 C-24.6075 13.4475 -24.2775 12.4575 -23.9375 11.4375 C-21.2421875 10.515625 -21.2421875 10.515625 -17.8125 9.6875 C-12.07526022 8.08407928 -9.30203091 6.31993107 -5.50390625 1.85546875 C-3.9375 0.4375 -3.9375 0.4375 0 0 Z " transform="translate(137.9375,141.5625)" style="fill: #A8A8A8;"/><path d="M0 0 C0.66 0.99 1.32 1.98 2 3 C1.6596875 3.54785156 1.319375 4.09570312 0.96875 4.66015625 C-2.64078129 10.56404387 -5.9567326 16.5745718 -9.10742188 22.73266602 C-11.07141814 26.50479373 -13.23261702 29.77138652 -16 33 C-17 32 -17 32 -17.09765625 30.15234375 C-17.06510417 28.1015625 -17.03255208 26.05078125 -17 24 C-16.34 25.32 -15.68 26.64 -15 28 C-9.73701036 18.78392036 -4.61734843 9.56062735 0 0 Z " transform="translate(131,118)" style="fill: #606060;"/><path d="M0 0 C1.33738519 2.67477039 0.95141191 4.47144523 0.6875 7.4375 C0.56955078 8.88962891 0.56955078 8.88962891 0.44921875 10.37109375 C0 13 0 13 -2 16 C-2 13.36 -2 10.72 -2 8 C-4.9719385 9.12451727 -7.33440687 10.22293791 -10 12 C-10.66 12 -11.32 12 -12 12 C-12.99 12.495 -12.99 12.495 -14 13 C-11.31285342 6.87118785 -5.75523724 3.13922031 0 0 Z " transform="translate(139,164)" style="fill: #8E8E8E;"/><path d="M0 0 C0.66 0.33 1.32 0.66 2 1 C-1.23185596 7.85215615 -5.00770801 12.37567541 -11 17 C-11.66 16.67 -12.32 16.34 -13 16 C-12.31357422 15.39478516 -12.31357422 15.39478516 -11.61328125 14.77734375 C-9.79775123 12.77718356 -9.11908563 11.0850127 -8.1875 8.5625 C-6.27116296 3.98416949 -4.35556458 2.2767724 0 0 Z " transform="translate(112,86)" style="fill: #969696;"/><path d="M0 0 C0.33 0 0.66 0 1 0 C1 3.96 1 7.92 1 12 C0.34 12 -0.32 12 -1 12 C-1 12.66 -1 13.32 -1 14 C-3.52892721 16.73397536 -5.89595133 18.93063422 -9 21 C-8.32956226 17.75955093 -7.1481344 15.11837982 -5.625 12.1875 C-3.57650735 8.17957959 -1.71792025 4.15917535 0 0 Z " transform="translate(137,170)" style="fill: #C4C4C4;"/><path d="M0 0 C0.66 0 1.32 0 2 0 C2.07347656 1.26457031 2.07347656 1.26457031 2.1484375 2.5546875 C2.22320312 3.65039062 2.29796875 4.74609375 2.375 5.875 C2.44460937 6.96554688 2.51421875 8.05609375 2.5859375 9.1796875 C2.73253491 12.13046474 2.73253491 12.13046474 5 14 C5.34916177 19.23742659 4.97346879 23.06632803 3 28 C2.67 28 2.34 28 2 28 C1.34 22.06 0.68 16.12 0 10 C-0.33 10 -0.66 10 -1 10 C-1.125 2.25 -1.125 2.25 0 0 Z " transform="translate(94,242)" style="fill: #ACACAC;"/><path d="M0 0 C0.66 0 1.32 0 2 0 C2.91160286 7.35793733 3.11459026 14.58982977 3 22 C2.67 22 2.34 22 2 22 C1.93941406 21.37351562 1.87882813 20.74703125 1.81640625 20.1015625 C1.73261719 19.28429687 1.64882812 18.46703125 1.5625 17.625 C1.48128906 16.81289063 1.40007812 16.00078125 1.31640625 15.1640625 C1.10909886 12.95727195 1.10909886 12.95727195 0 11 C-0.99 11 -1.98 11 -3 11 C-2.53199289 6.94393835 -2.12046792 3.53411321 0 0 Z " transform="translate(171,28)" style="fill: #878787;"/><path d="M0 0 C0.66 0 1.32 0 2 0 C2 1.65 2 3.3 2 5 C3.98 5 5.96 5 8 5 C6 7 6 7 2 7 C2.55728913 10.34373475 3.35173889 13.03312999 5 16 C4.01 16.99 3.02 17.98 2 19 C-0.52775351 15.20836973 -0.22443035 12.19125969 -0.125 7.8125 C-0.11597656 7.06291016 -0.10695313 6.31332031 -0.09765625 5.54101562 C-0.07412578 3.69387346 -0.03825561 1.84689588 0 0 Z " transform="translate(104,119)" style="fill: #727272;"/><path d="M0 0 C1.32 0.33 2.64 0.66 4 1 C2.9375 2.0625 1.875 3.125 0.8125 4.1875 C-0.14269531 5.14462891 -0.14269531 5.14462891 -1.1171875 6.12109375 C-2.67287632 7.673555 -4.2410618 9.21348264 -5.8125 10.75 C-8.12877476 12.99568449 -8.12877476 12.99568449 -10 16 C-10.99 15.67 -11.98 15.34 -13 15 C-12.67 13.68 -12.34 12.36 -12 11 C-11.01 11 -10.02 11 -9 11 C-6.62913207 8.54943886 -6.62913207 8.54943886 -4.3125 5.5 C-3.50425781 4.4790625 -2.69601563 3.458125 -1.86328125 2.40625 C-1.24839844 1.6121875 -0.63351563 0.818125 0 0 Z " transform="translate(156,66)" style="fill: #A8A7A8;"/><path d="M0 0 C5.17226615 4.6873662 8.98925493 10.31728181 13 16 C8.94015323 16 7.59447377 14.41396497 4.65234375 11.7890625 C1.48795175 8.36284137 0 4.70796061 0 0 Z " transform="translate(43,162)" style="fill: #777777;"/><path d="M0 0 C0.33 0.99 0.66 1.98 1 3 C1.66 2.67 2.32 2.34 3 2 C2.67 3.65 2.34 5.3 2 7 C2.66 6.34 3.32 5.68 4 5 C3.58578031 9.83256305 1.53586014 11.82679218 -2 15 C-3.42614143 10.36504036 -3.78169686 6.49825231 -1.5 2.125 C-1.005 1.42375 -0.51 0.7225 0 0 Z " transform="translate(124,177)" style="fill: #ABABAB;"/><path d="M0 0 C0.66 0.33 1.32 0.66 2 1 C1.071875 2.36125 1.071875 2.36125 0.125 3.75 C-1.93864024 6.74203202 -1.93864024 6.74203202 -3 9.125 C-4.28367603 11.53189255 -6.01713123 13.14932248 -8 15 C-7.835 14.195625 -7.67 13.39125 -7.5 12.5625 C-6.85229417 9.30948297 -6.85229417 9.30948297 -8 6 C-6.37660195 4.29115995 -4.70680947 2.62553283 -3 1 C-2.34 1 -1.68 1 -1 1 C-0.67 0.67 -0.34 0.34 0 0 Z " transform="translate(132,173)" style="fill: #CECECE;"/><path d="M0 0 C1.84942763 1.29459934 3.35827305 2.64410036 4.875 4.3125 C4.276875 4.1475 3.67875 3.9825 3.0625 3.8125 C0.76155664 3.2010876 0.76155664 3.2010876 -2.125 3.3125 C-0.45575929 6.35384491 -0.45575929 6.35384491 1.875 7.3125 C1.070625 7.60125 0.26625 7.89 -0.5625 8.1875 C-3.2576468 9.04512568 -3.2576468 9.04512568 -4.125 11.3125 C-3.795 9.3325 -3.465 7.3525 -3.125 5.3125 C-4.775 4.9825 -6.425 4.6525 -8.125 4.3125 C-7.125 1.3125 -7.125 1.3125 -4.8125 0 C-2.125 -0.6875 -2.125 -0.6875 0 0 Z " transform="translate(163.125,89.6875)" style="fill: #8B8B8B;"/><path d="M0 0 C0.33 0 0.66 0 1 0 C1.33 7.92 1.66 15.84 2 24 C1.67 24 1.34 24 1 24 C0.67 27.3 0.34 30.6 0 34 C-0.33 34 -0.66 34 -1 34 C-1.13947228 22.62526092 -0.73570866 11.35093354 0 0 Z " transform="translate(93,123)" style="fill: #6B6B6B;"/><path d="M0 0 C0.66 0.33 1.32 0.66 2 1 C2.33333333 3.33333333 2.66666667 5.66666667 3 8 C3.66 8.33 4.32 8.66 5 9 C5 9.99 5 10.98 5 12 C4.45730469 12.26554687 3.91460937 12.53109375 3.35546875 12.8046875 C2.64003906 13.15789062 1.92460938 13.51109375 1.1875 13.875 C0.12595703 14.39707031 0.12595703 14.39707031 -0.95703125 14.9296875 C-3.21246418 16.0656486 -3.21246418 16.0656486 -6 18 C-5.0266964 15.82878427 -4.26801853 14.23656738 -2.46875 12.6484375 C-0.59852502 10.5494084 -0.51815976 9.21162171 -0.3125 6.4375 C-0.24675781 5.65246094 -0.18101563 4.86742188 -0.11328125 4.05859375 C-0.0389187 2.70724678 0 1.35339145 0 0 Z " transform="translate(99,71)" style="fill: #666666;"/><path d="M0 0 C2.97 1.98 5.94 3.96 9 6 C8.67 4.02 8.34 2.04 8 0 C10.46278801 2.46278801 10.99771255 4.70676982 12 8 C7.70700357 9.26264601 5.12168689 8.62950412 1 7 C1.33 6.01 1.66 5.02 2 4 C1.34 2.68 0.68 1.36 0 0 Z " transform="translate(32,83)" style="fill: #A09FA0;"/><path d="M0 0 C2.05078125 0.03255208 4.1015625 0.06510417 6.15234375 0.09765625 C6.15234375 2.40765625 6.15234375 4.71765625 6.15234375 7.09765625 C5.82234375 6.10765625 5.49234375 5.11765625 5.15234375 4.09765625 C4.16234375 5.58265625 4.16234375 5.58265625 3.15234375 7.09765625 C1.27734375 6.91015625 1.27734375 6.91015625 -0.84765625 6.09765625 C-2.09765625 3.53515625 -2.09765625 3.53515625 -2.84765625 1.09765625 C-1.84765625 0.09765625 -1.84765625 0.09765625 0 0 Z " transform="translate(112.84765625,121.90234375)" style="fill: #D1D1D1;"/><path d="M0 0 C3.9252025 3.70090521 6.94580156 7.54959656 10 12 C10.66 10.68 11.32 9.36 12 8 C14 10 14 10 14.3125 12.5 C14.1578125 13.7375 14.1578125 13.7375 14 15 C13.01 15.66 12.02 16.32 11 17 C10.45730469 16.25234375 9.91460937 15.5046875 9.35546875 14.734375 C8.64003906 13.74953125 7.92460938 12.7646875 7.1875 11.75 C6.47980469 10.77546875 5.77210937 9.8009375 5.04296875 8.796875 C3.80274443 7.09897708 2.54012838 5.41674819 1.23828125 3.765625 C0 2 0 2 0 0 Z " transform="translate(77,83)" style="fill: #959595;"/><path d="M0 0 C0.99 0.66 1.98 1.32 3 2 C3.1875 5.125 3.1875 5.125 3 8 C2.67 8 2.34 8 2 8 C1.67 9.98 1.34 11.96 1 14 C0.34 14 -0.32 14 -1 14 C-1.33 15.32 -1.66 16.64 -2 18 C-2.23268915 11.71739294 -1.40454548 6.11980533 0 0 Z " transform="translate(69,146)" style="fill: #808080;"/><path d="M0 0 C0 3.3 0 6.6 0 10 C-1.32 10.33 -2.64 10.66 -4 11 C-4.66 8.03 -5.32 5.06 -6 2 C-2 0 -2 0 0 0 Z " transform="translate(166,97)" style="fill: #EEEEEE;"/><path d="M0 0 C0.33 0 0.66 0 1 0 C1.07347656 0.92619141 1.07347656 0.92619141 1.1484375 1.87109375 C1.60714251 7.06711425 2.33868306 12.02638225 3.59765625 17.08984375 C4 19 4 19 4 22 C3.34 22 2.68 22 2 22 C-0.11536025 14.26758147 -1.47957572 7.93590615 0 0 Z " transform="translate(128,57)" style="fill: #ECECEC;"/><path d="M0 0 C0.33 0.99 0.66 1.98 1 3 C-0.77442409 5.99816485 -2.53540571 8.53540571 -5 11 C-5.99 11 -6.98 11 -8 11 C-8 8.36 -8 5.72 -8 3 C-6.9375 4.875 -6.9375 4.875 -6 7 C-6.33 7.66 -6.66 8.32 -7 9 C-5.68 7.68 -4.36 6.36 -3 5 C-3.66 4.67 -4.32 4.34 -5 4 C-4.360625 3.896875 -3.72125 3.79375 -3.0625 3.6875 C-2.381875 3.460625 -1.70125 3.23375 -1 3 C-0.67 2.01 -0.34 1.02 0 0 Z " transform="translate(98,267)" style="fill: #656565;"/><path d="M0 0 C0.33 0.66 0.66 1.32 1 2 C1.66 2 2.32 2 3 2 C2.67 5.63 2.34 9.26 2 13 C1.01 13.33 0.02 13.66 -1 14 C-1.02685938 11.85423363 -1.04633088 9.70837355 -1.0625 7.5625 C-1.07410156 6.36753906 -1.08570312 5.17257813 -1.09765625 3.94140625 C-1 1 -1 1 0 0 Z " transform="translate(75,159)" style="fill: #CBCBCB;"/><path d="M0 0 C0.33 1.32 0.66 2.64 1 4 C-5.2638737 6.57616518 -11.54646385 8.94235079 -18 11 C-17.67 10.01 -17.34 9.02 -17 8 C-13.77971279 6.81877889 -10.51883027 6.01886875 -7.19921875 5.16015625 C-3.84238907 3.94284439 -2.27974049 2.69628566 0 0 Z " transform="translate(131,145)" style="fill: #909090;"/><path d="M0 0 C1 3 1 3 0 6 C2.0745356 6.1490712 2.0745356 6.1490712 4 5 C3.3125 6.9375 3.3125 6.9375 2 9 C-0.87939419 9.93580311 -2.25509788 10.37245106 -5 9 C-5 6.69 -5 4.38 -5 2 C-4.34 3.32 -3.68 4.64 -3 6 C-2.01 4.02 -1.02 2.04 0 0 Z " transform="translate(106,71)" style="fill: #A4A4A4;"/><path d="M0 0 C1.17426264 2.34852528 1.11508173 3.73774065 1.09765625 6.3515625 C1.09443359 7.20234375 1.09121094 8.053125 1.08789062 8.9296875 C1.07951172 9.81914063 1.07113281 10.70859375 1.0625 11.625 C1.05798828 12.5221875 1.05347656 13.419375 1.04882812 14.34375 C1.03702591 16.56256648 1.02056155 18.78125018 1 21 C-0.49316406 19.74853516 -0.49316406 19.74853516 -2 18 C-2.08180672 15.02574124 -2.00747039 12.31890673 -1.75 9.375 C-1.69714844 8.58609375 -1.64429687 7.7971875 -1.58984375 6.984375 C-1.15948226 1.15948226 -1.15948226 1.15948226 0 0 Z " transform="translate(67,35)" style="fill: #CCCCCC;"/><path d="M0 0 C0.66 0.66 1.32 1.32 2 2 C-1.63 6.62 -5.26 11.24 -9 16 C-9.66 15.34 -10.32 14.68 -11 14 C-10.62488281 13.57589844 -10.24976562 13.15179688 -9.86328125 12.71484375 C-6.30335421 8.63482662 -3.08682003 4.4486524 0 0 Z " transform="translate(110,155)" style="fill: #5D5D5D;"/><path d="M0 0 C0.66 0.99 1.32 1.98 2 3 C1.0653305 4.58500588 0.12713737 6.16793416 -0.8125 7.75 C-1.33457031 8.63171875 -1.85664063 9.5134375 -2.39453125 10.421875 C-3.82546696 12.71972797 -5.33894423 14.86506946 -7 17 C-6.37954537 12.76677156 -4.89476441 9.47709705 -2.9375 5.6875 C-2.38964844 4.61886719 -1.84179688 3.55023438 -1.27734375 2.44921875 C-0.64505859 1.23685547 -0.64505859 1.23685547 0 0 Z " transform="translate(131,118)" style="fill: #484848;"/><path d="M0 0 C0.99 0.33 1.98 0.66 3 1 C3 1.66 3 2.32 3 3 C4.65 3.33 6.3 3.66 8 4 C8 4.33 8 4.66 8 5 C4.04 5.66 0.08 6.32 -4 7 C-2.68 4.69 -1.36 2.38 0 0 Z " transform="translate(144,107)" style="fill: #3D3D3D;"/><path d="M0 0 C1.50433594 0.01353516 1.50433594 0.01353516 3.0390625 0.02734375 C3.80992187 0.03894531 4.58078125 0.05054687 5.375 0.0625 C5.705 0.7225 6.035 1.3825 6.375 2.0625 C2.11699462 3.48183513 -1.85411538 3.78901677 -6.0625 2.0625 C-6.578125 1.7325 -7.09375 1.4025 -7.625 1.0625 C-4.98041621 -0.25979189 -2.94738699 -0.03427194 0 0 Z " transform="translate(155.625,106.9375)" style="fill: #CECECE;"/><path d="M0 0 C2.31 0.33 4.62 0.66 7 1 C6 4 6 4 3 6 C2.27034634 8.56282742 2.27034634 8.56282742 2 11 C1.67 11 1.34 11 1 11 C0.67 7.37 0.34 3.74 0 0 Z " transform="translate(98,59)" style="fill: #F3F3F3;"/><path d="M0 0 C0.68707555 2.49064888 1 4.37886292 1 7 C1.66 6.67 2.32 6.34 3 6 C2.8125 8.375 2.8125 8.375 2 11 C-0.5625 12.3125 -0.5625 12.3125 -3 13 C-2.68991116 11.39536551 -2.37683713 9.79130769 -2.0625 8.1875 C-1.88847656 7.29417969 -1.71445313 6.40085938 -1.53515625 5.48046875 C-1 3 -1 3 0 0 Z " transform="translate(121,184)" style="fill: #6F6F6F;"/><path d="M0 0 C0.66 0.33 1.32 0.66 2 1 C1.19429304 4.49422385 0.08208283 7.85317353 -1.0625 11.25 C-1.42472656 12.32765625 -1.78695312 13.4053125 -2.16015625 14.515625 C-2.43730469 15.33546875 -2.71445313 16.1553125 -3 17 C-3.33 17 -3.66 17 -4 17 C-3.45018084 10.95198929 -2.09570426 5.69398894 0 0 Z " transform="translate(143,81)" style="fill: #4E4E4E;"/><path d="M0 0 C0.66 0.33 1.32 0.66 2 1 C2 2.32 2 3.64 2 5 C2.66 5.33 3.32 5.66 4 6 C0.6888987 7.10370043 -1.24748949 6.92673641 -4.6875 6.5625 C-5.68136719 6.46066406 -6.67523438 6.35882813 -7.69921875 6.25390625 C-8.45847656 6.17011719 -9.21773437 6.08632812 -10 6 C-8 4 -8 4 -5.8359375 3.8046875 C-4.61777344 3.83949219 -4.61777344 3.83949219 -3.375 3.875 C-2.14910156 3.90207031 -2.14910156 3.90207031 -0.8984375 3.9296875 C0.04128906 3.96449219 0.04128906 3.96449219 1 4 C0.67 2.68 0.34 1.36 0 0 Z " transform="translate(160,101)" style="fill: #939393;"/><path d="M0 0 C0.66 0.33 1.32 0.66 2 1 C0.7934375 1.8971875 0.7934375 1.8971875 -0.4375 2.8125 C-4.35490427 6.61924313 -3.90072123 11.84652934 -4 17 C-4.33 17 -4.66 17 -5 17 C-5.33 11.72 -5.66 6.44 -6 1 C-5.67 1.66 -5.34 2.32 -5 3 C-4.21625 2.484375 -3.4325 1.96875 -2.625 1.4375 C-1.75875 0.963125 -0.8925 0.48875 0 0 Z " transform="translate(96,86)" style="fill: #D2D2D2;"/><path d="M0 0 C0.33 0 0.66 0 1 0 C1.66 3.96 2.32 7.92 3 12 C2.01 12.33 1.02 12.66 0 13 C-3.1875 11.0625 -3.1875 11.0625 -6 9 C-2.25 7.875 -2.25 7.875 0 9 C0 6.03 0 3.06 0 0 Z " transform="translate(46,83)" style="fill: #787878;"/><path d="M0 0 C4.25209792 4.12324647 8.13635705 8.51282966 12 13 C11.67 13.66 11.34 14.32 11 15 C6.74460664 10.95976698 2.96017642 7.09150344 0 2 C0 1.34 0 0.68 0 0 Z " transform="translate(78,114)" style="fill: #666666;"/><path d="M0 0 C2.20914 3.31371 2.22481553 4.3446021 2.125 8.1875 C2.10695312 9.08855469 2.08890625 9.98960938 2.0703125 10.91796875 C2.03550781 11.94857422 2.03550781 11.94857422 2 13 C1.34 13 0.68 13 0 13 C-1.36421031 10.27157939 -0.87807211 8.39046682 -0.5625 5.375 C-0.40974609 3.87066406 -0.40974609 3.87066406 -0.25390625 2.3359375 C-0.17011719 1.56507812 -0.08632813 0.79421875 0 0 Z " transform="translate(51,81)" style="fill: #DFDFDF;"/><path d="M0 0 C2.52259061 1.97420135 2.9929808 2.96745642 3.6875 6.1875 C3.790625 7.115625 3.89375 8.04375 4 9 C4.66 9 5.32 9 6 9 C5.67 10.65 5.34 12.3 5 14 C4.34 12.68 3.68 11.36 3 10 C2.34 10 1.68 10 1 10 C-0.1577506 6.52674819 -0.06866652 3.63932552 0 0 Z " transform="translate(63,52)" style="fill: #6C6C6C;"/><path d="M0 0 C2.1385485 2.1385485 2.42655063 3.13275314 3 6 C2.34 6 1.68 6 1 6 C1 7.65 1 9.3 1 11 C-0.32 9.68 -1.64 8.36 -3 7 C-2.01 4.69 -1.02 2.38 0 0 Z " transform="translate(112,130)" style="fill: #C2C2C2;"/><path d="M0 0 C0.66 0 1.32 0 2 0 C1.67 3.63 1.34 7.26 1 11 C0.34 11 -0.32 11 -1 11 C-2.0257259 6.58937864 -2.03684712 4.07369424 0 0 Z " transform="translate(65,33)" style="fill: #7C7C7C;"/><path d="M0 0 C4.875 4.625 4.875 4.625 6 8 C5.34 8.66 4.68 9.32 4 10 C0.38860104 6.12435233 0.38860104 6.12435233 -1 4 C-0.8125 1.625 -0.8125 1.625 0 0 Z " transform="translate(137,24)" style="fill: #C1C1C1;"/></svg>