<?xml version="1.0" encoding="UTF-8"?>
<!-- Generator: visioncortex VTracer -->
<svg id="svg" version="1.1" xmlns="http://www.w3.org/2000/svg" style="display: block;" viewBox="0 0 164 251"><path d="M0 0 C54.12 0 108.24 0 164 0 C164 82.83 164 165.66 164 251 C109.88 251 55.76 251 0 251 C0 168.17 0 85.34 0 0 Z " transform="translate(0,0)" style="fill: none;"/><path d="M0 0 C0.33 0 0.66 0 1 0 C1.495 2.475 1.495 2.475 2 5 C3.32 5 4.64 5 6 5 C6.12375 5.78375 6.2475 6.5675 6.375 7.375 C6.79117993 10.14057822 6.79117993 10.14057822 9 12 C7.68 13.65 6.36 15.3 5 17 C5.66 17.33 6.32 17.66 7 18 C7 18.99 7 19.98 7 21 C7.99 21.99 7.99 21.99 9 23 C6.36 24.98 3.72 26.96 1 29 C2.86265132 29 4.71370324 28.70831513 6.5625 28.5 C7.38878906 28.4071875 8.21507813 28.314375 9.06640625 28.21875 C9.70449219 28.1465625 10.34257813 28.074375 11 28 C9.68 28.99 8.36 29.98 7 31 C7.99 30.505 7.99 30.505 9 30 C10.76957735 30.00417846 12.53948899 30.0144087 14.30834961 30.06494141 C21.82706751 30.2770277 28.97627435 30.08082936 36 27 C36.33 26.34 36.66 25.68 37 25 C36.11699219 25.2165625 35.23398438 25.433125 34.32421875 25.65625 C26.73823039 27.41626448 19.78424711 28.4289279 12 28 C15.40256498 25.13350653 17.0757224 24.96427863 21.50390625 25.1484375 C26.82169963 24.8321994 32.11518688 23.06878063 37 21 C37.99 19.515 37.99 19.515 39 18 C38.22398438 18.25394531 37.44796875 18.50789063 36.6484375 18.76953125 C14.48932276 25.82977425 14.48932276 25.82977425 9 24 C9.90363281 23.72285156 10.80726562 23.44570313 11.73828125 23.16015625 C12.91777344 22.79792969 14.09726563 22.43570312 15.3125 22.0625 C16.48425781 21.70285156 17.65601562 21.34320312 18.86328125 20.97265625 C23.1463715 20.01263428 23.1463715 20.01263428 26.0625 17.1875 C26.5265625 16.1046875 26.5265625 16.1046875 27 15 C27.66666667 13.66666667 28.33333333 12.33333333 29 11 C29.125 15.75 29.125 15.75 28 18 C28.70125 17.855625 29.4025 17.71125 30.125 17.5625 C33.07556141 16.98521625 36.03270151 16.48304859 39 16 C39.625 18.3125 39.625 18.3125 40 21 C39.01 22.485 39.01 22.485 38 24 C37.61500109 25.65549531 37.27206865 27.3222433 37 29 C36.443125 29.18175781 35.88625 29.36351563 35.3125 29.55078125 C34.549375 29.80214844 33.78625 30.05351563 33 30.3125 C32.16597656 30.58449219 31.33195312 30.85648438 30.47265625 31.13671875 C27.78100869 32.03395908 27.78100869 32.03395908 24.4375 33.625 C19.66841165 35.49580092 14.60765826 35.48191176 9.54663086 35.62158203 C5.84768447 35.74850449 4.15840875 35.89439417 1 38 C-0.17248904 41.88517079 -0.48544023 45.98133075 -1 50 C-1.18691406 51.26972656 -1.37382813 52.53945313 -1.56640625 53.84765625 C-2.86948313 63.3168311 -3.18110282 72.69452511 -3.1875 82.25 C-3.18830566 83.41668213 -3.18911133 84.58336426 -3.18994141 85.78540039 C-3.1558532 90.99066969 -2.95347717 95.8697697 -2 101 C-1.82984375 99.90042969 -1.6596875 98.80085938 -1.484375 97.66796875 C0.59088069 84.77215451 2.92874032 73.90834391 12 64 C12.48065918 63.4740625 12.96131836 62.948125 13.45654297 62.40625 C18.68093103 56.91616362 24.64566748 53.00257609 30.97265625 48.89453125 C38.40714239 43.96605167 44.33944531 38.64330969 49 31 C49.495 31.99 49.495 31.99 50 33 C44.78464722 41.91351203 38.21737234 47.10188603 30 53 C15.73792414 63.55305304 4.98016597 74.86356141 2 93 C2 93.99 2 94.98 2 96 C2.391875 95.13375 2.78375 94.2675 3.1875 93.375 C7.28742867 85.74065006 13.20396963 81.19929314 20 76 C20.66 76.33 21.32 76.66 22 77 C21.01 78.98 20.02 80.96 19 83 C18.67 82.34 18.34 81.68 18 81 C11.01870336 85.90779187 6.13684428 89.78946371 4.25 98.4375 C4.1675 99.283125 4.085 100.12875 4 101 C7.51716303 101 8.37121748 100.17554415 11 98 C9.47038014 101.44164469 7.37270934 104.09151758 5 107 C3.40452503 110.19094994 3.81547715 113.62387263 3.8125 117.125 C3.80025391 117.85976562 3.78800781 118.59453125 3.77539062 119.3515625 C3.75292858 127.85719018 6.2680647 135.11683552 9.25 143 C9.7140625 144.2389502 9.7140625 144.2389502 10.1875 145.50292969 C10.82080475 147.19325639 11.45556108 148.88303998 12.09179688 150.57226562 C12.92460764 152.7984673 13.73984878 155.02997273 14.546875 157.265625 C17.87575049 166.42945814 21.74134462 175.2306978 26 184 C26.51698139 181.16891145 27.01339301 178.33634885 27.5 175.5 C27.64308594 174.72785156 27.78617187 173.95570313 27.93359375 173.16015625 C30.41089553 158.4143123 28.71515591 145.63097578 25 131.375 C22.21942798 120.65393539 20.35960135 111.16472791 21 100 C21.33 100 21.66 100 22 100 C22.11214844 101.18916016 22.11214844 101.18916016 22.2265625 102.40234375 C23.4426638 113.19226213 25.93779557 123.55578629 28.5625 134.08203125 C29.87213698 139.35935133 30.99156012 144.65749315 32 150 C32.12528076 149.34104736 32.25056152 148.68209473 32.37963867 148.00317383 C38.23151682 117.60790835 38.23151682 117.60790835 43.6484375 110.984375 C45.40111125 108.41108521 45.46425192 107.06027285 45 104 C43.71378109 101.71546997 43.71378109 101.71546997 41.875 99.625 C41.23949219 98.84769531 40.60398437 98.07039063 39.94921875 97.26953125 C38.73726278 95.85841618 37.51280674 94.45781879 36.26953125 93.07421875 C33.06574037 89.50654051 31.21762392 86.75980261 30 82 C29.67 81.34 29.34 80.68 29 80 C29.08780403 77.95501575 29.24241538 75.91255052 29.4375 73.875 C29.53933594 72.77929688 29.64117187 71.68359375 29.74609375 70.5546875 C29.87177734 69.29011719 29.87177734 69.29011719 30 68 C30.804375 67.71125 31.60875 67.4225 32.4375 67.125 C35.1326468 66.26737432 35.1326468 66.26737432 36 64 C36.99 64 37.98 64 39 64 C39.33 63.01 39.66 62.02 40 61 C40.53625 61.144375 41.0725 61.28875 41.625 61.4375 C45.80930031 62.4285185 49.69124118 63 54 63 C54.33 64.32 54.66 65.64 55 67 C55.99 67 56.98 67 58 67 C58 67.66 58 68.32 58 69 C58.99 68.34 59.98 67.68 61 67 C62.32 67 63.64 67 65 67 C65.33 67.66 65.66 68.32 66 69 C68.30965848 70.05352843 70.6429774 71.05719096 73 72 C73 72.66 73 73.32 73 74 C73.99 74.33 74.98 74.66 76 75 C75.67 76.32 75.34 77.64 75 79 C75 78.01 75 77.02 75 76 C74.01 76 73.02 76 72 76 C70.83901311 81.12453604 70.83901311 81.12453604 72 86 C70.3789897 86.69685498 68.75303934 87.38222861 67.125 88.0625 C66.22007812 88.44535156 65.31515625 88.82820313 64.3828125 89.22265625 C62 90 62 90 60 89 C60.48210937 88.69707031 60.96421875 88.39414063 61.4609375 88.08203125 C65.36943637 85.48965955 67.77751371 83.75411335 69 79 C62.72135278 83.15858452 58.35452911 87.87644344 54 94 C54.66 93.34 55.32 92.68 56 92 C57.67795566 92.27083885 59.34287891 92.6220601 61 93 C63.76604053 93.26731538 66.53795423 93.4112513 69.3125 93.5625 C70.42334961 93.62727539 70.42334961 93.62727539 71.55664062 93.69335938 C73.37091464 93.79870432 75.1854355 93.89978316 77 94 C77 94.66 77 95.32 77 96 C79.31 96.33 81.62 96.66 84 97 C84 95.68 84 94.36 84 93 C84.66 93 85.32 93 86 93 C85.67 94.65 85.34 96.3 85 98 C85.99 98.33 86.98 98.66 88 99 C86.02 99.99 86.02 99.99 84 101 C84.66 101.66 85.32 102.32 86 103 C79.85845775 102.41509121 73.99320151 101.45933748 68 100 C69.65 100.66 71.3 101.32 73 102 C73 102.66 73 103.32 73 104 C79.96156852 105.62436599 86.94090922 106.87723429 94 108 C93.67 107.01 93.34 106.02 93 105 C90.03 104.505 90.03 104.505 87 104 C87 103.67 87 103.34 87 103 C90.375 102.875 90.375 102.875 94 103 C94.66 103.66 95.32 104.32 96 105 C95.625 107.125 95.625 107.125 95 109 C93.68 109 92.36 109 91 109 C90.7834375 110.2065625 90.7834375 110.2065625 90.5625 111.4375 C90 114 90 114 89 115 C87.43220113 114.82580013 85.86518575 114.63456273 84.30859375 114.37890625 C82.53434445 114.0877012 80.75436621 113.83123671 78.97265625 113.58984375 C77.37744141 113.35974609 77.37744141 113.35974609 75.75 113.125 C74.73421875 112.98320313 73.7184375 112.84140625 72.671875 112.6953125 C69.84917547 111.96075034 68.79176238 111.24583915 67 109 C68.1446875 109.2784375 68.1446875 109.2784375 69.3125 109.5625 C72.08967375 110.22819173 72.08967375 110.22819173 75 109 C76.83203125 109.5234375 76.83203125 109.5234375 78.8125 110.375 C82.19689055 111.74502131 85.35860937 112.54482617 89 113 C88.67 112.01 88.34 111.02 88 110 C85.27821182 109.10682536 85.27821182 109.10682536 82 108.5625 C77.73494146 107.68426232 73.98131123 106.71496562 70.0625 104.8125 C66.5678378 103.11675063 63.9414169 102.59575211 60 103 C61.65 103.66 63.3 104.32 65 105 C61.9355782 106.02147393 60.28879046 105.96156046 57.125 105.75 C53.49839482 105.74472877 52.27528237 105.82645242 49.125 107.8125 C46.15321954 112.2701707 44.61481817 116.91786662 43 122 C42.48067221 123.56300104 41.95995727 125.12554225 41.4375 126.6875 C41.20160156 127.41066406 40.96570313 128.13382813 40.72265625 128.87890625 C40.00324489 130.99047581 39.19856313 133.05216719 38.375 135.125 C36.98484802 138.74958474 36.40161304 142.14451482 36 146 C36.76183594 145.41992188 36.76183594 145.41992188 37.5390625 144.828125 C38.22742188 144.30734375 38.91578125 143.7865625 39.625 143.25 C40.72521484 142.41275391 40.72521484 142.41275391 41.84765625 141.55859375 C44 140 44 140 47.0625 138.3125 C50.12913208 135.89834283 51.39157044 133.94265532 53.375 130.625 C56.43070461 125.55253035 59.6749403 121.74356337 65 119 C65.99 119 66.98 119 68 119 C67.43022658 121.52458117 66.8447278 124.04378339 66.25 126.5625 C66.09273437 127.26697266 65.93546875 127.97144531 65.7734375 128.69726562 C64.31068861 134.80142924 62.2107307 139.9026401 57.5625 144.3125 C53.11869927 146.41745824 48.98522762 146.90025293 44.12109375 147.41015625 C40.7175348 148.05338203 38.73056867 148.87940129 36 151 C34.59277712 153.21145754 34.59277712 153.21145754 33.75 155.75 C33.43546875 156.56984375 33.1209375 157.3896875 32.796875 158.234375 C30.97032609 164.57357416 30.8436669 170.83682625 30.875 177.375 C30.87113281 178.17421875 30.86726563 178.9734375 30.86328125 179.796875 C30.87213612 185.26918398 31.31453343 190.57066954 32 196 C32.268125 195.195625 32.53625 194.39125 32.8125 193.5625 C33.204375 192.386875 33.59625 191.21125 34 190 C34.27457031 189.00226563 34.27457031 189.00226563 34.5546875 187.984375 C38.29676719 175.14118791 46.97860991 166.5181464 56.39941406 157.54003906 C57.87231832 156.12285175 59.30917309 154.66844789 60.7421875 153.2109375 C63 151 63 151 66 149 C64.01452152 153.87344718 60.10660764 156.95215029 56.3515625 160.5078125 C44.38578047 171.99359182 35.58246971 185.82657045 34.8828125 202.8515625 C34.87608839 205.23862093 34.90865497 207.6148797 35 210 C41.27339352 204.02803079 45.23489474 196.68568541 48.875 188.9375 C55.37169108 175.3913085 65.76005577 168.73536439 79.08984375 162.56640625 C81 162 81 162 84 163 C79.25 167 79.25 167 77 167 C76.71406982 167.57202148 76.42813965 168.14404297 76.13354492 168.73339844 C75.7594751 169.48137695 75.38540527 170.22935547 75 171 C74.65880127 171.68352539 74.31760254 172.36705078 73.96606445 173.07128906 C72.76032102 175.47049693 71.53684116 177.86023335 70.3125 180.25 C69.69858398 181.48169922 69.69858398 181.48169922 69.07226562 182.73828125 C64.32774745 191.93579575 58.49803798 198.18799352 49.8125 203.75 C47.18217357 205.4646911 44.57842446 207.20824462 42 209 C40.78763672 209.82951172 40.78763672 209.82951172 39.55078125 210.67578125 C36.95077614 214.57251434 37.39995409 218.86154415 37.375 223.4375 C37.21919526 234.81903613 37.21919526 234.81903613 35 239 C34.34 239 33.68 239 33 239 C33.02320312 237.70964844 33.04640625 236.41929687 33.0703125 235.08984375 C33.08908236 233.37240166 33.10728125 231.65495326 33.125 229.9375 C33.15013672 228.66616211 33.15013672 228.66616211 33.17578125 227.36914062 C33.23716561 219.4198665 32.07430178 213.40964435 27 207 C21.4259489 201.53786749 15.18159677 197.36530088 8.625 193.1875 C-7.73316301 182.48921315 -17.58551916 171.16900879 -23 152 C-23.56941947 148.6588475 -23.91414865 145.38722616 -24 142 C-23.34 142 -22.68 142 -22 142 C-21.79697266 143.27230469 -21.79697266 143.27230469 -21.58984375 144.5703125 C-18.4554425 161.64998401 -10.03361 176.51383672 4 187 C7.08326682 189.09432877 10.21129908 191.12046807 13.33862305 193.14819336 C19.46917856 197.18001402 24.80646071 201.80646071 30 207 C29.17772763 201.01688656 28.35095333 195.89465829 25.05859375 190.78125 C23.83945339 188.72985515 23.03166215 186.66927632 22.1875 184.4375 C20.49460516 180.10900026 18.63273795 175.8783026 16.625 171.6875 C16.08101563 170.53636719 15.53703125 169.38523438 14.9765625 168.19921875 C12.68514773 164.49038734 10.46045436 162.59777771 7 160 C7.99 160 8.98 160 10 160 C9.67 159.01 9.34 158.02 9 157 C8.54560547 155.39705078 8.54560547 155.39705078 8.08203125 153.76171875 C4.3153087 141.32624663 -2.17818002 131.21149957 -9.36132812 120.47021484 C-12.721568 115.40482345 -15.85438176 110.20054473 -19 105 C-19.45117188 104.27554688 -19.90234375 103.55109375 -20.3671875 102.8046875 C-22.38735383 99.47489611 -23 98.02772655 -23 94 C-24.010625 94.061875 -25.02125 94.12375 -26.0625 94.1875 C-32.83728986 93.86489096 -36.97653052 91.48936527 -41.47631836 86.67114258 C-41.9585083 86.14029053 -42.44069824 85.60943848 -42.9375 85.0625 C-48.52911742 79.19449417 -53.59617769 75.05047779 -62 74 C-62 73.34 -62 72.68 -62 72 C-54.23336362 69.41112121 -45.66636854 70.35965556 -38.30078125 73.7109375 C-34.5868811 75.79173045 -31.25857469 78.26935082 -28 81 C-27.95101562 79.96359375 -27.90203125 78.9271875 -27.8515625 77.859375 C-27.77650403 76.48955792 -27.70095753 75.11976752 -27.625 73.75 C-27.57859375 72.72712891 -27.57859375 72.72712891 -27.53125 71.68359375 C-27.3128958 67.93517998 -26.79957477 65.27080607 -25 62 C-24.99589111 62.66418945 -24.99178223 63.32837891 -24.98754883 64.01269531 C-25.01907732 81.67788429 -25.01907732 81.67788429 -19 98 C-18.60167969 98.79664062 -18.20335937 99.59328125 -17.79296875 100.4140625 C-12.55515845 110.6364959 -6.09285053 120.27284134 0 130 C-0.14099121 129.32122803 -0.28198242 128.64245605 -0.42724609 127.94311523 C-1.08191405 124.77566973 -1.72846421 121.60661504 -2.375 118.4375 C-2.59671875 117.37080078 -2.8184375 116.30410156 -3.046875 115.20507812 C-5.76961657 101.79157185 -7.35700693 88.67329198 -7.31567383 75.0012207 C-7.3124863 72.80305498 -7.33619832 70.60620684 -7.36132812 68.40820312 C-7.39854943 59.86657267 -6.42252023 52.22446811 -4 44 C-3.09387421 40.44179872 -2.84698825 39.40266249 -4.1875 35.875 C-5.92049355 33.12611367 -7.27011148 31.69441357 -10 30 C-8.68 30 -7.36 30 -6 30 C-7.65 27.69 -9.3 25.38 -11 23 C-10.67 22.34 -10.34 21.68 -10 21 C-10 19.68 -10 18.36 -10 17 C-9.34 16.01 -8.68 15.02 -8 14 C-7.34 16.64 -6.68 19.28 -6 22 C-5.34 20.68 -4.68 19.36 -4 18 C-3.34 19.98 -2.68 21.96 -2 24 C-1.15238178 22.29870914 -0.3225132 20.58856916 0.5 18.875 C0.9640625 17.92367188 1.428125 16.97234375 1.90625 15.9921875 C3.07748116 12.78803369 3.20076124 10.38282687 3 7 C1.68 8.65 0.36 10.3 -1 12 C-0.67 8.04 -0.34 4.08 0 0 Z " transform="translate(65,6)" style="fill: #3A3A3A;"/><path d="M0 0 C0.53625 0.144375 1.0725 0.28875 1.625 0.4375 C5.80930031 1.4285185 9.69124118 2 14 2 C14.495 3.98 14.495 3.98 15 6 C15.99 6 16.98 6 18 6 C18 6.66 18 7.32 18 8 C18.99 7.34 19.98 6.68 21 6 C22.32 6 23.64 6 25 6 C25.495 6.99 25.495 6.99 26 8 C28.30965848 9.05352843 30.6429774 10.05719096 33 11 C33 11.66 33 12.32 33 13 C33.99 13.33 34.98 13.66 36 14 C35.67 15.32 35.34 16.64 35 18 C35 17.01 35 16.02 35 15 C34.01 15 33.02 15 32 15 C30.83901311 20.12453604 30.83901311 20.12453604 32 25 C30.3789897 25.69685498 28.75303934 26.38222861 27.125 27.0625 C26.22007812 27.44535156 25.31515625 27.82820313 24.3828125 28.22265625 C22 29 22 29 20 28 C20.48210937 27.69707031 20.96421875 27.39414063 21.4609375 27.08203125 C25.36943637 24.48965955 27.77751371 22.75411335 29 18 C22.72135278 22.15858452 18.35452911 26.87644344 14 33 C14.66 32.34 15.32 31.68 16 31 C17.67795566 31.27083885 19.34287891 31.6220601 21 32 C23.76604053 32.26731538 26.53795423 32.4112513 29.3125 32.5625 C30.42334961 32.62727539 30.42334961 32.62727539 31.55664062 32.69335938 C33.37091464 32.79870432 35.1854355 32.89978316 37 33 C37 33.66 37 34.32 37 35 C39.31 35.33 41.62 35.66 44 36 C44 34.68 44 33.36 44 32 C44.66 32 45.32 32 46 32 C45.67 33.65 45.34 35.3 45 37 C46.485 37.495 46.485 37.495 48 38 C46.02 38.99 46.02 38.99 44 40 C44.66 40.66 45.32 41.32 46 42 C39.85845775 41.41509121 33.99320151 40.45933748 28 39 C29.65 39.66 31.3 40.32 33 41 C33 41.66 33 42.32 33 43 C39.96156852 44.62436599 46.94090922 45.87723429 54 47 C53.67 46.01 53.34 45.02 53 44 C51.02 43.67 49.04 43.34 47 43 C47 42.67 47 42.34 47 42 C50.375 41.875 50.375 41.875 54 42 C54.66 42.66 55.32 43.32 56 44 C55.625 46.125 55.625 46.125 55 48 C53.68 48 52.36 48 51 48 C50.855625 48.804375 50.71125 49.60875 50.5625 50.4375 C50 53 50 53 49 54 C47.43220113 53.82580013 45.86518575 53.63456273 44.30859375 53.37890625 C42.53434445 53.0877012 40.75436621 52.83123671 38.97265625 52.58984375 C37.37744141 52.35974609 37.37744141 52.35974609 35.75 52.125 C34.73421875 51.98320313 33.7184375 51.84140625 32.671875 51.6953125 C29.84917547 50.96075034 28.79176238 50.24583915 27 48 C28.1446875 48.2784375 28.1446875 48.2784375 29.3125 48.5625 C32.08967375 49.22819173 32.08967375 49.22819173 35 48 C36.83203125 48.5234375 36.83203125 48.5234375 38.8125 49.375 C42.19689055 50.74502131 45.35860937 51.54482617 49 52 C48.67 51.01 48.34 50.02 48 49 C45.27821182 48.10682536 45.27821182 48.10682536 42 47.5625 C37.73494146 46.68426232 33.98131123 45.71496562 30.0625 43.8125 C26.5678378 42.11675063 23.9414169 41.59575211 20 42 C21.65 42.66 23.3 43.32 25 44 C21.9355782 45.02147393 20.28879046 44.96156046 17.125 44.75 C13.49839482 44.74472877 12.27528237 44.82645242 9.125 46.8125 C6.15321954 51.2701707 4.61481817 55.91786662 3 61 C2.48067221 62.56300104 1.95995727 64.12554225 1.4375 65.6875 C1.20160156 66.41066406 0.96570313 67.13382812 0.72265625 67.87890625 C0.00324489 69.99047581 -0.80143687 72.05216719 -1.625 74.125 C-3.01515198 77.74958474 -3.59838696 81.14451482 -4 85 C-3.49210937 84.61328125 -2.98421875 84.2265625 -2.4609375 83.828125 C-1.77257812 83.30734375 -1.08421875 82.7865625 -0.375 82.25 C0.35847656 81.69183594 1.09195313 81.13367188 1.84765625 80.55859375 C4 79 4 79 7.0625 77.3125 C10.12913208 74.89834283 11.39157044 72.94265532 13.375 69.625 C16.43070461 64.55253035 19.6749403 60.74356337 25 58 C25.99 58 26.98 58 28 58 C27.43022658 60.52458117 26.8447278 63.04378339 26.25 65.5625 C26.09273437 66.26697266 25.93546875 66.97144531 25.7734375 67.69726562 C24.31068861 73.80142924 22.2107307 78.9026401 17.5625 83.3125 C13.11869927 85.41745824 8.98522762 85.90025293 4.12109375 86.41015625 C0.7175348 87.05338203 -1.26943133 87.87940129 -4 90 C-5.40722288 92.21145754 -5.40722288 92.21145754 -6.25 94.75 C-6.56453125 95.56984375 -6.8790625 96.3896875 -7.203125 97.234375 C-9.01107288 103.50901763 -9.24380101 109.95380411 -9.5625 116.4375 C-9.60568359 117.26443359 -9.64886719 118.09136719 -9.69335938 118.94335938 C-9.79838033 120.96209549 -9.89958559 122.98102951 -10 125 C-10.33 125 -10.66 125 -11 125 C-11.1963696 122.62543835 -11.38231294 120.25079981 -11.5625 117.875 C-11.61857422 117.20984375 -11.67464844 116.5446875 -11.73242188 115.859375 C-11.9513649 112.88174988 -12.02754461 110.16233832 -11.52709961 107.21289062 C-9.42266874 94.38551207 -11.77904018 82.73462268 -15 70.375 C-17.78057202 59.65393539 -19.64039865 50.16472791 -19 39 C-18.67 39 -18.34 39 -18 39 C-17.92523438 39.79277344 -17.85046875 40.58554688 -17.7734375 41.40234375 C-16.5573362 52.19226213 -14.06220443 62.55578629 -11.4375 73.08203125 C-10.12786302 78.35935133 -9.00843988 83.65749315 -8 89 C-7.87471924 88.34104736 -7.74943848 87.68209473 -7.62036133 87.00317383 C-1.76848318 56.60790835 -1.76848318 56.60790835 3.6484375 49.984375 C5.40111125 47.41108521 5.46425192 46.06027285 5 43 C3.71378109 40.71546997 3.71378109 40.71546997 1.875 38.625 C0.92173828 37.45904297 0.92173828 37.45904297 -0.05078125 36.26953125 C-1.26273722 34.85841618 -2.48719326 33.45781879 -3.73046875 32.07421875 C-6.93425963 28.50654051 -8.78237608 25.75980261 -10 21 C-10.33 20.34 -10.66 19.68 -11 19 C-10.91219597 16.95501575 -10.75758462 14.91255052 -10.5625 12.875 C-10.40974609 11.23144531 -10.40974609 11.23144531 -10.25390625 9.5546875 C-10.17011719 8.71164063 -10.08632812 7.86859375 -10 7 C-9.195625 6.71125 -8.39125 6.4225 -7.5625 6.125 C-4.8673532 5.26737432 -4.8673532 5.26737432 -4 3 C-3.01 3 -2.02 3 -1 3 C-0.67 2.01 -0.34 1.02 0 0 Z " transform="translate(105,67)" style="fill: #3E3E3E;"/><path d="M0 0 C0.680625 0.165 1.36125 0.33 2.0625 0.5 C5.07843746 1.09788295 5.07843746 1.09788295 8.5 1 C11.53460795 1 14.06710459 1.28899505 17 2 C17.495 3.98 17.495 3.98 18 6 C19.98 5.67 21.96 5.34 24 5 C24 5.66 24 6.32 24 7 C25.32 7 26.64 7 28 7 C28 8.65 28 10.3 28 12 C28.66 11.67 29.32 11.34 30 11 C31.99960012 10.960008 34.00047242 10.95653201 36 11 C37 13 37 13 36.375 15.3125 C34.66550248 18.65379061 32.90348674 20.61268868 30 23 C27.68301671 23.72144113 25.35013076 24.39520724 23 25 C25.41820683 24.54884201 27.83432863 24.08938045 30.25 23.625 C30.93191406 23.49867187 31.61382812 23.37234375 32.31640625 23.2421875 C35.85767793 22.55456193 38.82923048 21.70282067 42 20 C44.75 19.875 44.75 19.875 47 20 C46.38671875 21.859375 46.38671875 21.859375 45 24 C38.69760195 26.85591184 31.9229549 28.6439958 25 28 C25 28.33 25 28.66 25 29 C25.60585937 28.93941406 26.21171875 28.87882812 26.8359375 28.81640625 C28.09277344 28.69072266 28.09277344 28.69072266 29.375 28.5625 C30.27734375 28.47226562 31.1796875 28.38203125 32.109375 28.2890625 C36.40625 27.859375 40.703125 27.4296875 45 27 C44.505 28.485 44.505 28.485 44 30 C36.69681646 33.329594 28.86794293 33.37074077 21 33 C21 33.33 21 33.66 21 34 C19.02 34 17.04 34 15 34 C14 32 14 32 14 31 C12.02 31.66 10.04 32.32 8 33 C9.49097658 29.2047869 11.75700849 27.38957269 15 25 C14.34 23.68 13.68 22.36 13 21 C12.34 21 11.68 21 11 21 C12.37154504 18.04590299 13.98863724 15.55991624 16 13 C15.34 13 14.68 13 14 13 C13.505 10.03 13.505 10.03 13 7 C11.35 7.66 9.7 8.32 8 9 C8 9.99 8 10.98 8 12 C9.32 10.68 10.64 9.36 12 8 C12.7714862 14.9433758 10.08690376 19.89167225 7 26 C6.61585937 26.76957031 6.23171875 27.53914063 5.8359375 28.33203125 C5.56007812 28.88246094 5.28421875 29.43289062 5 30 C4.67 27.69 4.34 25.38 4 23 C3.67 24.98 3.34 26.96 3 29 C2.67 29 2.34 29 2 29 C1.34 25.37 0.68 21.74 0 18 C0 19.32 0 20.64 0 22 C-0.33 22.99 -0.66 23.98 -1 25 C-0.1500831 27.03327085 -0.1500831 27.03327085 1 29 C1.33 29.99 1.66 30.98 2 32 C1.01 32.495 1.01 32.495 0 33 C0.61875 33.53625 1.2375 34.0725 1.875 34.625 C4.2782902 37.31103023 5.06022153 39.55414562 6 43 C2.61621303 43 1.3168856 42.27051463 -1.625 40.6875 C-5.00935569 38.92110383 -8.20714095 37.55056228 -11.875 36.5 C-15.95212619 35.23394502 -17.56350975 33.56771786 -20 30 C-20.86625 29.360625 -21.7325 28.72125 -22.625 28.0625 C-25.53811457 25.53268998 -26.16231632 23.73150005 -27 20 C-27.125 17.125 -27.125 17.125 -27 15 C-26.01 14.67 -25.02 14.34 -24 14 C-23.67 12.35 -23.34 10.7 -23 9 C-22.01 9.33 -21.02 9.66 -20 10 C-20.99 10.33 -21.98 10.66 -23 11 C-19.74435579 17.30781066 -16.30781066 20.74435579 -10 24 C-10.66 23.38125 -11.32 22.7625 -12 22.125 C-14 20 -14 20 -14 18 C-14.66 17.46375 -15.32 16.9275 -16 16.375 C-18.9345109 12.8902683 -18.29763151 10.46447272 -18 6 C-16 5 -16 5 -13 6 C-12.67 4.35 -12.34 2.7 -12 1 C-8.85262818 1.69941596 -5.97411124 2.76078698 -3 4 C-2.01 2.68 -1.02 1.36 0 0 Z " transform="translate(57,4)" style="fill: #888888;"/><path d="M0 0 C0.53625 0.144375 1.0725 0.28875 1.625 0.4375 C5.80930031 1.4285185 9.69124118 2 14 2 C14.33 3.32 14.66 4.64 15 6 C15.99 6 16.98 6 18 6 C18 6.66 18 7.32 18 8 C18.99 7.34 19.98 6.68 21 6 C22.32 6 23.64 6 25 6 C25.495 6.99 25.495 6.99 26 8 C27.97888961 8.72693904 29.97954558 9.39816251 32 10 C31.875 12.3125 31.875 12.3125 31 15 C28.125 16.6875 28.125 16.6875 25 18 C24.01 18.66 23.02 19.32 22 20 C21.34 20 20.68 20 20 20 C18.41544134 21.78723941 18.41544134 21.78723941 16.875 24 C16.33617188 24.7425 15.79734375 25.485 15.2421875 26.25 C14.83226563 26.8275 14.42234375 27.405 14 28 C13.67 27.01 13.34 26.02 13 25 C14.4375 22.3125 14.4375 22.3125 16 20 C15.01 20.33 14.02 20.66 13 21 C12.67 22.98 12.34 24.96 12 27 C9.8614515 24.8614515 9.57344937 23.86724686 9 21 C8.34 21.33 7.68 21.66 7 22 C5.35 18.04 3.7 14.08 2 10 C3.15380684 15.76903421 5.53189385 19.63727777 8.50390625 24.6484375 C10.16836897 28.37718166 10.2810908 30.96251403 10 35 C8.68 34.01 7.36 33.02 6 32 C6.33 32.86625 6.66 33.7325 7 34.625 C7.98731341 37.95718275 8.16420974 40.55159538 8 44 C4.740455 42.62203784 3.13638725 41.2045794 1.125 38.3125 C-0.87218835 35.5093397 -2.92948175 32.91625048 -5.25 30.375 C-7.81749337 27.44551017 -9.02483218 24.81201968 -10 21 C-10.33 20.34 -10.66 19.68 -11 19 C-10.91219597 16.95501575 -10.75758462 14.91255052 -10.5625 12.875 C-10.46066406 11.77929688 -10.35882813 10.68359375 -10.25390625 9.5546875 C-10.17011719 8.71164063 -10.08632812 7.86859375 -10 7 C-9.195625 6.71125 -8.39125 6.4225 -7.5625 6.125 C-4.8673532 5.26737432 -4.8673532 5.26737432 -4 3 C-3.01 3 -2.02 3 -1 3 C-0.67 2.01 -0.34 1.02 0 0 Z " transform="translate(105,67)" style="fill: #838383;"/><path d="M0 0 C0.33 0 0.66 0 1 0 C1.33 1.65 1.66 3.3 2 5 C3.32 5 4.64 5 6 5 C6.12375 5.78375 6.2475 6.5675 6.375 7.375 C6.79117993 10.14057822 6.79117993 10.14057822 9 12 C7.68 13.65 6.36 15.3 5 17 C5.66 17.33 6.32 17.66 7 18 C7 18.99 7 19.98 7 21 C7.66 21.66 8.32 22.32 9 23 C6.36 24.98 3.72 26.96 1 29 C2.86265132 29 4.71370324 28.70831513 6.5625 28.5 C7.38878906 28.4071875 8.21507813 28.314375 9.06640625 28.21875 C9.70449219 28.1465625 10.34257813 28.074375 11 28 C9.68 28.99 8.36 29.98 7 31 C7.66 30.67 8.32 30.34 9 30 C10.76957735 30.00417846 12.53948899 30.0144087 14.30834961 30.06494141 C21.82706751 30.2770277 28.97627435 30.08082936 36 27 C36.33 26.34 36.66 25.68 37 25 C36.11699219 25.2165625 35.23398438 25.433125 34.32421875 25.65625 C26.73823039 27.41626448 19.78424711 28.4289279 12 28 C15.40256498 25.13350653 17.0757224 24.96427863 21.50390625 25.1484375 C26.82169963 24.8321994 32.11518688 23.06878063 37 21 C37.66 20.01 38.32 19.02 39 18 C38.22398438 18.25394531 37.44796875 18.50789063 36.6484375 18.76953125 C14.48932276 25.82977425 14.48932276 25.82977425 9 24 C9.90363281 23.72285156 10.80726562 23.44570313 11.73828125 23.16015625 C12.91777344 22.79792969 14.09726563 22.43570312 15.3125 22.0625 C17.07013672 21.52302734 17.07013672 21.52302734 18.86328125 20.97265625 C23.1463715 20.01263428 23.1463715 20.01263428 26.0625 17.1875 C26.371875 16.465625 26.68125 15.74375 27 15 C27.66666667 13.66666667 28.33333333 12.33333333 29 11 C29.125 15.75 29.125 15.75 28 18 C28.70125 17.855625 29.4025 17.71125 30.125 17.5625 C33.07556141 16.98521625 36.03270151 16.48304859 39 16 C39.625 18.3125 39.625 18.3125 40 21 C39.34 21.99 38.68 22.98 38 24 C37.61500109 25.65549531 37.27206865 27.3222433 37 29 C36.443125 29.18175781 35.88625 29.36351563 35.3125 29.55078125 C34.549375 29.80214844 33.78625 30.05351563 33 30.3125 C32.16597656 30.58449219 31.33195312 30.85648438 30.47265625 31.13671875 C27.78100869 32.03395908 27.78100869 32.03395908 24.4375 33.625 C19.66841165 35.49580092 14.60765826 35.48191176 9.54663086 35.62158203 C5.84768447 35.74850449 4.15840875 35.89439417 1 38 C0.28902985 40.05953586 0.28902985 40.05953586 0 42.625 C-0.15339844 43.69234375 -0.30679688 44.7596875 -0.46484375 45.859375 C-0.64419835 47.23945773 -0.82245271 48.6196836 -1 50 C-1.11875488 50.88751953 -1.23750977 51.77503906 -1.35986328 52.68945312 C-2.92855145 64.43809167 -4.39530845 76.15638618 -5 88 C-5.33 88 -5.66 88 -6 88 C-6.0250466 83.92896481 -6.04302089 79.85796054 -6.05493164 75.78686523 C-6.05990624 74.40697446 -6.06668832 73.02708879 -6.07543945 71.6472168 C-6.20452096 50.74360527 -6.20452096 50.74360527 -3.75 42.6875 C-2.68210626 39.02249607 -2.68210626 39.02249607 -4.125 35.6875 C-5.90207251 33.14036274 -7.37960415 31.62645259 -10 30 C-8.68 30 -7.36 30 -6 30 C-7.65 27.69 -9.3 25.38 -11 23 C-10.67 22.34 -10.34 21.68 -10 21 C-10 19.68 -10 18.36 -10 17 C-9.34 16.01 -8.68 15.02 -8 14 C-7.34 16.64 -6.68 19.28 -6 22 C-5.34 20.68 -4.68 19.36 -4 18 C-3.34 19.98 -2.68 21.96 -2 24 C-1.15238178 22.29870914 -0.3225132 20.58856916 0.5 18.875 C1.19609375 17.44800781 1.19609375 17.44800781 1.90625 15.9921875 C3.07748116 12.78803369 3.20076124 10.38282687 3 7 C1.68 8.65 0.36 10.3 -1 12 C-0.67 8.04 -0.34 4.08 0 0 Z " transform="translate(65,6)" style="fill: #2C2C2C;"/><path d="M0 0 C-4.75 4 -4.75 4 -7 4 C-7.28593018 4.57202148 -7.57186035 5.14404297 -7.86645508 5.73339844 C-8.42755981 6.85536621 -8.42755981 6.85536621 -9 8 C-9.34119873 8.68352539 -9.68239746 9.36705078 -10.03393555 10.07128906 C-11.23967898 12.47049693 -12.46315884 14.86023335 -13.6875 17.25 C-14.09677734 18.07113281 -14.50605469 18.89226562 -14.92773438 19.73828125 C-19.67225255 28.93579575 -25.50196202 35.18799352 -34.1875 40.75 C-36.81783706 42.46469803 -39.4209555 44.20913971 -42 46 C-42.80566406 46.5465625 -43.61132812 47.093125 -44.44140625 47.65625 C-47.08786217 51.63588296 -46.6816041 56.08042563 -46.75 60.75 C-46.77964844 61.73355469 -46.80929688 62.71710938 -46.83984375 63.73046875 C-46.91042411 66.15372776 -46.96317701 68.57603154 -47 71 C-47.33 71 -47.66 71 -48 71 C-48 64.4 -48 57.8 -48 51 C-48.66 51 -49.32 51 -50 51 C-49.41690036 47.61802209 -48.40508428 46.35970533 -46 44 C-41.47427547 38.37435254 -38.17736707 32.43464892 -35.125 25.9375 C-28.62830892 12.3913085 -18.23994423 5.73536439 -4.91015625 -0.43359375 C-3 -1 -3 -1 0 0 Z " transform="translate(149,169)" style="fill: #5C5C5C;"/><path d="M0 0 C0.33 0 0.66 0 1 0 C1.00410889 0.66418945 1.00821777 1.32837891 1.01245117 2.01269531 C0.98092268 19.67788429 0.98092268 19.67788429 7 36 C7.39832031 36.79664063 7.79664063 37.59328125 8.20703125 38.4140625 C11.6787993 45.18977899 15.77372985 51.63748711 19.75 58.125 C20.32943359 59.0749585 20.90886719 60.02491699 21.50585938 61.00366211 C22.05564453 61.89190674 22.60542969 62.78015137 23.171875 63.6953125 C23.6678418 64.49984863 24.16380859 65.30438477 24.67480469 66.13330078 C25.87447138 68.13325636 25.87447138 68.13325636 28 69 C27.505 70.485 27.505 70.485 27 72 C21.81272204 67.44148301 18.57523918 61.85574153 15 56 C14.31164063 54.89140625 13.62328125 53.7828125 12.9140625 52.640625 C10.92776711 49.43596999 8.96102313 46.22016162 7 43 C6.53980469 42.26136719 6.07960937 41.52273437 5.60546875 40.76171875 C3.59680103 37.44706213 3 36.00936166 3 32 C1.989375 32.061875 0.97875 32.12375 -0.0625 32.1875 C-6.83728986 31.86489096 -10.97653052 29.48936527 -15.47631836 24.67114258 C-15.9585083 24.14029053 -16.44069824 23.60943848 -16.9375 23.0625 C-22.52911742 17.19449417 -27.59617769 13.05047779 -36 12 C-36 11.34 -36 10.68 -36 10 C-28.23336362 7.41112121 -19.66636854 8.35965556 -12.30078125 11.7109375 C-8.5868811 13.79173045 -5.25857469 16.26935082 -2 19 C-1.90912109 17.44539063 -1.90912109 17.44539063 -1.81640625 15.859375 C-1.73196629 14.48957127 -1.64732003 13.11978025 -1.5625 11.75 C-1.52318359 11.06808594 -1.48386719 10.38617188 -1.44335938 9.68359375 C-1.23333528 6.35551959 -0.98065998 3.19744598 0 0 Z " transform="translate(39,68)" style="fill: #5E5E5E;"/><path d="M0 0 C0.33 0 0.66 0 1 0 C1.07476562 0.79277344 1.14953125 1.58554688 1.2265625 2.40234375 C2.4426638 13.19226213 4.93779557 23.55578629 7.5625 34.08203125 C8.87279992 39.36202269 9.97580635 44.65745138 11 50 C11.99 44.72 12.98 39.44 14 34 C16.49388574 38.98777148 15.88836125 40.66983248 15 46 C15.50789063 45.61328125 16.01578125 45.2265625 16.5390625 44.828125 C17.22742188 44.30734375 17.91578125 43.7865625 18.625 43.25 C19.35847656 42.69183594 20.09195313 42.13367188 20.84765625 41.55859375 C23 40 23 40 26.0625 38.3125 C29.12913208 35.89834283 30.39157044 33.94265532 32.375 30.625 C35.43070461 25.55253035 38.6749403 21.74356337 44 19 C44.99 19 45.98 19 47 19 C46.43022658 21.52458117 45.8447278 24.04378339 45.25 26.5625 C45.01410156 27.61920898 45.01410156 27.61920898 44.7734375 28.69726562 C43.31068861 34.80142924 41.2107307 39.9026401 36.5625 44.3125 C32.11869927 46.41745824 27.98522762 46.90025293 23.12109375 47.41015625 C19.7175348 48.05338203 17.73056867 48.87940129 15 51 C13.59277712 53.21145754 13.59277712 53.21145754 12.75 55.75 C12.43546875 56.56984375 12.1209375 57.3896875 11.796875 58.234375 C9.98892712 64.50901763 9.75619899 70.95380411 9.4375 77.4375 C9.39431641 78.26443359 9.35113281 79.09136719 9.30664062 79.94335938 C9.20161967 81.96209549 9.10041441 83.98102951 9 86 C8.67 86 8.34 86 8 86 C7.8036304 83.62543835 7.61768706 81.25079981 7.4375 78.875 C7.38142578 78.20984375 7.32535156 77.5446875 7.26757812 76.859375 C7.0486351 73.88174988 6.97245539 71.16233832 7.47290039 68.21289062 C9.57733126 55.38551207 7.22095982 43.73462268 4 31.375 C1.21942798 20.65393539 -0.64039865 11.16472791 0 0 Z " transform="translate(86,106)" style="fill: #616161;"/><path d="M0 0 C3.69900008 0.88776002 7.34550461 1.94581864 11 3 C11 5.31 11 7.62 11 10 C10.731875 9.360625 10.46375 8.72125 10.1875 8.0625 C9.11332248 5.66868314 9.11332248 5.66868314 6 5 C5.67 6.65 5.34 8.3 5 10 C3.5393715 7.35261084 3 6.10551666 3 3 C2.01 2.67 1.02 2.34 0 2 C0 4.31 0 6.62 0 9 C0.66 9 1.32 9 2 9 C2.33 10.65 2.66 12.3 3 14 C0.33333333 11.33333333 -2.33333333 8.66666667 -5 6 C-3.86699663 12.93964566 -0.47101802 15.81403505 5 20 C5.66 19.34 6.32 18.68 7 18 C10.20663788 22.08117548 12.12489152 26.17829247 14 31 C13.34 31.33 12.68 31.66 12 32 C12.61875 32.53625 13.2375 33.0725 13.875 33.625 C16.2782902 36.31103023 17.06022153 38.55414562 18 42 C14.61621303 42 13.3168856 41.27051463 10.375 39.6875 C6.99064431 37.92110383 3.79285905 36.55056228 0.125 35.5 C-3.95212619 34.23394502 -5.56350975 32.56771786 -8 29 C-8.86625 28.360625 -9.7325 27.72125 -10.625 27.0625 C-13.53811457 24.53268998 -14.16231632 22.73150005 -15 19 C-15.125 16.125 -15.125 16.125 -15 14 C-14.01 13.67 -13.02 13.34 -12 13 C-11.67 11.35 -11.34 9.7 -11 8 C-10.01 8.33 -9.02 8.66 -8 9 C-8.99 9.33 -9.98 9.66 -11 10 C-7.74435579 16.30781066 -4.30781066 19.74435579 2 23 C1.34 22.38125 0.68 21.7625 0 21.125 C-2 19 -2 19 -2 17 C-2.66 16.46375 -3.32 15.9275 -4 15.375 C-6.9345109 11.8902683 -6.29763151 9.46447272 -6 5 C-4 4 -4 4 -1 5 C-0.67 3.35 -0.34 1.7 0 0 Z " transform="translate(45,5)" style="fill: #737373;"/><path d="M0 0 C-0.33 2.31 -0.66 4.62 -1 7 C-0.34 7 0.32 7 1 7 C1.66 5.68 2.32 4.36 3 3 C4.98 3 6.96 3 9 3 C10 5 10 5 9.375 7.3125 C7.66550248 10.65379061 5.90348674 12.61268868 3 15 C0.68301671 15.72144113 -1.64986924 16.39520724 -4 17 C-1.58179317 16.54884201 0.83432863 16.08938045 3.25 15.625 C3.93191406 15.49867187 4.61382812 15.37234375 5.31640625 15.2421875 C8.85767793 14.55456193 11.82923048 13.70282067 15 12 C17.75 11.875 17.75 11.875 20 12 C19.38671875 13.859375 19.38671875 13.859375 18 16 C11.69760195 18.85591184 4.9229549 20.6439958 -2 20 C-2 20.33 -2 20.66 -2 21 C-1.39414063 20.93941406 -0.78828125 20.87882812 -0.1640625 20.81640625 C1.09277344 20.69072266 1.09277344 20.69072266 2.375 20.5625 C3.27734375 20.47226562 4.1796875 20.38203125 5.109375 20.2890625 C9.40625 19.859375 13.703125 19.4296875 18 19 C17.505 20.485 17.505 20.485 17 22 C9.69681646 25.329594 1.86794293 25.37074077 -6 25 C-6 25.33 -6 25.66 -6 26 C-7.98 26 -9.96 26 -12 26 C-13 24 -13 24 -13 23 C-14.98 23.66 -16.96 24.32 -19 25 C-17.50902342 21.2047869 -15.24299151 19.38957269 -12 17 C-12.66 15.68 -13.32 14.36 -14 13 C-14.66 13 -15.32 13 -16 13 C-14.53642507 9.408308 -12.64906849 7.67598866 -9.5625 5.375 C-8.78003906 4.78460937 -7.99757813 4.19421875 -7.19140625 3.5859375 C-2.2364532 0 -2.2364532 0 0 0 Z " transform="translate(84,12)" style="fill: #AAAAAA;"/><path d="M0 0 C0.66 0 1.32 0 2 0 C2.20302734 1.27230469 2.20302734 1.27230469 2.41015625 2.5703125 C5.5445575 19.64998401 13.96639 34.51383672 28 45 C31.08326682 47.09432877 34.21129908 49.12046807 37.33862305 51.14819336 C43.46917856 55.18001402 48.80646071 59.80646071 54 65 C53.86722656 64.27554688 53.73445313 63.55109375 53.59765625 62.8046875 C53.42105469 61.83789062 53.24445313 60.87109375 53.0625 59.875 C52.88847656 58.92367187 52.71445313 57.97234375 52.53515625 56.9921875 C52.35855469 56.00476563 52.18195313 55.01734375 52 54 C51.70609375 52.6078125 51.70609375 52.6078125 51.40625 51.1875 C50.88491793 47.09704835 51.13515159 43.22581757 51.4375 39.125 C51.48970703 38.34125 51.54191406 37.5575 51.59570312 36.75 C51.72428851 34.8329088 51.86128617 32.91638497 52 31 C52.33 31 52.66 31 53 31 C53.06058594 31.92683594 53.12117188 32.85367188 53.18359375 33.80859375 C53.26738281 35.00613281 53.35117188 36.20367187 53.4375 37.4375 C53.51871094 38.63246094 53.59992188 39.82742187 53.68359375 41.05859375 C53.67656114 43.88570244 53.67656114 43.88570244 55 45 C55.23192865 46.51469448 55.41215238 48.03754562 55.5625 49.5625 C55.64628906 50.38878906 55.73007813 51.21507812 55.81640625 52.06640625 C55.87699219 52.70449219 55.93757813 53.34257812 56 54 C56.268125 53.195625 56.53625 52.39125 56.8125 51.5625 C57.4003125 49.7990625 57.4003125 49.7990625 58 48 C58.18304688 47.33484375 58.36609375 46.6696875 58.5546875 45.984375 C62.29676719 33.14118791 70.97860991 24.5181464 80.39941406 15.54003906 C81.87231832 14.12285175 83.30917309 12.66844789 84.7421875 11.2109375 C87 9 87 9 90 7 C88.01452152 11.87344718 84.10660764 14.95215029 80.3515625 18.5078125 C64.2943864 33.92086119 59.19571849 50.16240437 58 72 C58.66 72 59.32 72 60 72 C60.02900455 75.6041498 60.04680018 79.20826962 60.0625 82.8125 C60.07087891 83.83666016 60.07925781 84.86082031 60.08789062 85.91601562 C60.09111328 86.89892578 60.09433594 87.88183594 60.09765625 88.89453125 C60.10289307 89.80050049 60.10812988 90.70646973 60.11352539 91.63989258 C60 94 60 94 59 97 C58.34 97 57.68 97 57 97 C57.02320313 95.70964844 57.04640625 94.41929687 57.0703125 93.08984375 C57.08908236 91.37240166 57.10728125 89.65495326 57.125 87.9375 C57.14175781 87.08994141 57.15851563 86.24238281 57.17578125 85.36914062 C57.23716561 77.4198665 56.07430178 71.40964435 51 65 C45.4259489 59.53786749 39.18159677 55.36530088 32.625 51.1875 C16.26683699 40.48921315 6.41448084 29.16900879 1 10 C0.43058053 6.6588475 0.08585135 3.38722616 0 0 Z " transform="translate(41,148)" style="fill: #292929;"/><path d="M0 0 C0.99 0 1.98 0 3 0 C3.33 0.99 3.66 1.98 4 3 C4.969375 3.309375 5.93875 3.61875 6.9375 3.9375 C10 5 10 5 11.4375 6.8125 C12.13195116 9.51314341 11.7393623 11.33829573 11 14 C13.475 14.495 13.475 14.495 16 15 C16 15.99 16 16.98 16 18 C14.68 17.34 13.36 16.68 12 16 C12 17.65 12 19.3 12 21 C7.05 20.67 2.1 20.34 -3 20 C-3 19.67 -3 19.34 -3 19 C-5.10018513 18.58355816 -7.20541042 18.19246697 -9.3125 17.8125 C-11.07013672 17.48185547 -11.07013672 17.48185547 -12.86328125 17.14453125 C-15.98268126 16.66605919 -15.98268126 16.66605919 -17.91796875 18.44921875 C-18.27503906 18.96097656 -18.63210937 19.47273438 -19 20 C-17.6034669 15.85497089 -15.66619972 13.11852826 -12.75 9.875 C-12.00234375 9.02679688 -11.2546875 8.17859375 -10.484375 7.3046875 C-7.83000947 4.84230438 -5.29707212 3.45795386 -2 2 C-2.47346835 6.26121515 -4.96139438 8.18373138 -8 11 C-8.66 11.66 -9.32 12.32 -10 13 C-7.03 11.68 -4.06 10.36 -1 9 C-1.66 8.34 -2.32 7.68 -3 7 C-2.01 4.69 -1.02 2.38 0 0 Z " transform="translate(137,82)" style="fill: #ABABAB;"/><path d="M0 0 C0.495 0.99 0.495 0.99 1 2 C-4.21535278 10.91351203 -10.78262766 16.10188603 -19 22 C-33.26207586 32.55305304 -44.01983403 43.86356141 -47 62 C-47 62.99 -47 63.98 -47 65 C-46.608125 64.13375 -46.21625 63.2675 -45.8125 62.375 C-41.71257133 54.74065006 -35.79603037 50.19929314 -29 45 C-28.34 45.33 -27.68 45.66 -27 46 C-27.99 47.98 -28.98 49.96 -30 52 C-30.33 51.34 -30.66 50.68 -31 50 C-37.98129664 54.90779187 -42.86315572 58.78946371 -44.75 67.4375 C-44.8325 68.283125 -44.915 69.12875 -45 70 C-41.48283697 70 -40.62878252 69.17554415 -38 67 C-39.52961986 70.44164469 -41.62729066 73.09151758 -44 76 C-45.52106634 79.04213267 -45.37429338 82.28047572 -45.5625 85.625 C-45.60568359 86.33140625 -45.64886719 87.0378125 -45.69335938 87.765625 C-45.79944751 89.51018537 -45.90022889 91.25506697 -46 93 C-46.33 93 -46.66 93 -47 93 C-47.33 89.37 -47.66 85.74 -48 82 C-48.99 82.99 -48.99 82.99 -50 84 C-50.93955479 78.07201763 -50.98273948 72.76795221 -50.3125 66.8125 C-50.21928467 65.98242432 -50.12606934 65.15234863 -50.0300293 64.29711914 C-48.03514689 48.12370778 -42.07586396 36.89136416 -30 26 C-26.90586297 23.66291127 -23.69421163 21.54019729 -20.4375 19.4375 C-12.10518704 14.04366754 -5.21228464 8.5481468 0 0 Z " transform="translate(114,37)" style="fill: #3E3E3E;"/><path d="M0 0 C1.06486855 0.89301656 2.12675041 1.7895947 3.1875 2.6875 C4.07501953 3.43580078 4.07501953 3.43580078 4.98046875 4.19921875 C5.98013672 5.09060547 5.98013672 5.09060547 7 6 C7.83144531 6.73089844 8.66289063 7.46179688 9.51953125 8.21484375 C12.49207601 11.55251999 13.89054155 14.7550944 15.5 18.875 C17.73889625 24.54187138 20.29435328 29.13951132 24 34 C16.77379243 31.96829776 9.27772974 29.38882457 4.6171875 23.1484375 C0.70431915 15.87340079 -0.29616099 8.14442717 0 0 Z " transform="translate(48,131)" style="fill: #D5D5D5;"/><path d="M0 0 C0.66 0.33 1.32 0.66 2 1 C0.4982299 4.0099017 -1.02986774 7.00571121 -2.5625 10 C-3.18995117 11.25876953 -3.18995117 11.25876953 -3.83007812 12.54296875 C-7.77410042 20.19377891 -12.49138853 26.91777756 -19.9375 31.5 C-21.09572266 32.22703125 -21.09572266 32.22703125 -22.27734375 32.96875 C-22.84582031 33.3090625 -23.41429688 33.649375 -24 34 C-24.66 33.67 -25.32 33.34 -26 33 C-22.535 29.535 -22.535 29.535 -19 26 C-20.65 27.32 -22.3 28.64 -24 30 C-24.66 29.67 -25.32 29.34 -26 29 C-15.10805501 7.043222 -15.10805501 7.043222 -5 3 C-7.97 7.455 -7.97 7.455 -11 12 C-10.113125 10.948125 -9.22625 9.89625 -8.3125 8.8125 C-5.66835039 5.72242492 -2.91741982 2.83161335 0 0 Z " transform="translate(137,175)" style="fill: #E2E2E2;"/><path d="M0 0 C0.66 0 1.32 0 2 0 C1.67 1.65 1.34 3.3 1 5 C1.99 5.33 2.98 5.66 4 6 C2.02 6.99 2.02 6.99 0 8 C0.66 8.66 1.32 9.32 2 10 C-4.14154225 9.41509121 -10.00679849 8.45933748 -16 7 C-14.35 7.66 -12.7 8.32 -11 9 C-11 9.66 -11 10.32 -11 11 C-4.03843148 12.62436599 2.94090922 13.87723429 10 15 C9.505 13.515 9.505 13.515 9 12 C7.02 11.67 5.04 11.34 3 11 C3 10.67 3 10.34 3 10 C6.375 9.875 6.375 9.875 10 10 C10.66 10.66 11.32 11.32 12 12 C11.625 14.125 11.625 14.125 11 16 C9.68 16 8.36 16 7 16 C6.855625 16.804375 6.71125 17.60875 6.5625 18.4375 C6 21 6 21 5 22 C3.43220113 21.82580013 1.86518575 21.63456273 0.30859375 21.37890625 C-1.46565555 21.0877012 -3.24563379 20.83123671 -5.02734375 20.58984375 C-6.09082031 20.43644531 -7.15429688 20.28304687 -8.25 20.125 C-9.77367187 19.91230469 -9.77367187 19.91230469 -11.328125 19.6953125 C-14.15082453 18.96075034 -15.20823762 18.24583915 -17 16 C-16.236875 16.185625 -15.47375 16.37125 -14.6875 16.5625 C-11.91032625 17.22819173 -11.91032625 17.22819173 -9 16 C-7.16796875 16.5234375 -7.16796875 16.5234375 -5.1875 17.375 C-1.80310945 18.74502131 1.35860937 19.54482617 5 20 C4.505 18.515 4.505 18.515 4 17 C1.27821182 16.10682536 1.27821182 16.10682536 -2 15.5625 C-7.06386498 14.51652133 -11.29348192 13.09719025 -15.921875 10.8515625 C-19.24568661 9.48954947 -22.43338211 9.25939039 -26 9 C-25.01 8.34 -24.02 7.68 -23 7 C-26.05263664 6.01879536 -27.94736336 6.01879536 -31 7 C-29.17251097 4.53686261 -27.77023784 3.16571382 -24.73046875 2.51171875 C-22.48520654 2.27481707 -20.25544422 2.09638651 -18 2 C-18 1.67 -18 1.34 -18 1 C-14.37 1 -10.74 1 -7 1 C-7 1.66 -7 2.32 -7 3 C-4.69 3.33 -2.38 3.66 0 4 C0 2.68 0 1.36 0 0 Z " transform="translate(149,99)" style="fill: #A8A8A8;"/><path d="M0 0 C0.33 0 0.66 0 1 0 C1.125 4.75 1.125 4.75 0 7 C1.051875 6.7834375 1.051875 6.7834375 2.125 6.5625 C5.07556141 5.98521625 8.03270151 5.48304859 11 5 C11.625 7.3125 11.625 7.3125 12 10 C11.34 10.99 10.68 11.98 10 13 C9.61500109 14.65549531 9.27206865 16.3222433 9 18 C8.443125 18.18175781 7.88625 18.36351563 7.3125 18.55078125 C6.549375 18.80214844 5.78625 19.05351563 5 19.3125 C4.16597656 19.58449219 3.33195312 19.85648438 2.47265625 20.13671875 C-0.21899131 21.03395908 -0.21899131 21.03395908 -3.5625 22.625 C-8.93808106 24.72278773 -14.79145374 24.56624717 -20.48828125 24.7890625 C-23.96984578 24.84618357 -23.96984578 24.84618357 -27 26 C-26.67 25.01 -26.34 24.02 -26 23 C-25.34 23 -24.68 23 -24 23 C-23.67 21.68 -23.34 20.36 -23 19 C-21.68 19.33 -20.36 19.66 -19 20 C-19 19.67 -19 19.34 -19 19 C-17.45892578 19.05220703 -17.45892578 19.05220703 -15.88671875 19.10546875 C-7.66127946 19.2984001 0.29737121 19.37861786 8 16 C8.33 15.34 8.66 14.68 9 14 C8.11699219 14.2165625 7.23398438 14.433125 6.32421875 14.65625 C-1.26176961 16.41626448 -8.21575289 17.4289279 -16 17 C-12.59743502 14.13350653 -10.9242776 13.96427863 -6.49609375 14.1484375 C-1.17830037 13.8321994 4.11518688 12.06878063 9 10 C9.66 9.01 10.32 8.02 11 7 C10.22398438 7.25394531 9.44796875 7.50789063 8.6484375 7.76953125 C-13.51067724 14.82977425 -13.51067724 14.82977425 -19 13 C-17.64455078 12.58427734 -17.64455078 12.58427734 -16.26171875 12.16015625 C-15.08222656 11.79792969 -13.90273437 11.43570312 -12.6875 11.0625 C-11.51574219 10.70285156 -10.34398437 10.34320313 -9.13671875 9.97265625 C-4.85081541 8.9932512 -4.85081541 8.9932512 -1.875 6.1875 C-1.05358216 4.13395539 -0.46289828 2.16019196 0 0 Z " transform="translate(93,17)" style="fill: #727272;"/><path d="M0 0 C1.32 0 2.64 0 4 0 C4.33 0.66 4.66 1.32 5 2 C6.97888961 2.72693904 8.97954558 3.39816251 11 4 C10.875 6.3125 10.875 6.3125 10 9 C7.125 10.6875 7.125 10.6875 4 12 C3.01 12.66 2.02 13.32 1 14 C0.34 14 -0.32 14 -1 14 C-2.58455866 15.78723941 -2.58455866 15.78723941 -4.125 18 C-4.93324219 19.11375 -4.93324219 19.11375 -5.7578125 20.25 C-6.37269531 21.11625 -6.37269531 21.11625 -7 22 C-7.33 21.01 -7.66 20.02 -8 19 C-6.5625 16.3125 -6.5625 16.3125 -5 14 C-6.32 13.67 -7.64 13.34 -9 13 C-9.28571429 4.42857143 -9.28571429 4.42857143 -7 1 C-6.01 1 -5.02 1 -4 1 C-3.67 2.32 -3.34 3.64 -3 5 C-2.5875 4.175 -2.175 3.35 -1.75 2.5 C-1.1725 1.675 -0.595 0.85 0 0 Z " transform="translate(126,73)" style="fill: #878787;"/><path d="M0 0 C7.47037566 0.13339957 10.84256317 2.74654706 16 8 C14.35 5.69 12.7 3.38 11 1 C15.71495996 2.26914986 18.41112972 3.88671225 21.8125 7.375 C22.96685547 8.53128906 22.96685547 8.53128906 24.14453125 9.7109375 C26.74574992 12.9200199 27 14.93971584 27 19 C16.28057899 18.14244632 11.14679693 11.35907803 4 4 C2.66892464 2.66441252 1.33640906 1.33025049 0 0 Z " transform="translate(13,80)" style="fill: #F4F4F4;"/><path d="M0 0 C1.37623987 2.75247974 0.70199747 4.68722368 -0.07421875 7.5703125 C-3.54036639 16.66712191 -8.38975153 21.85432481 -17 26 C-18.5288916 21.33012021 -17.06936255 18.27554246 -15 14 C-12.23302658 9.89724631 -8.94348908 6.9366408 -5 4 C-4.01 4 -3.02 4 -2 4 C-1.34 2.68 -0.68 1.36 0 0 Z " transform="translate(86,83)" style="fill: #BFBFBF;"/><path d="M0 0 C1.32 0.33 2.64 0.66 4 1 C4 2.32 4 3.64 4 5 C4.66 4.01 5.32 3.02 6 2 C7.95703125 2.5703125 7.95703125 2.5703125 10 4 C10.57421875 7.1171875 10.57421875 7.1171875 10.6875 10.875 C10.84339691 16.5138072 10.84339691 16.5138072 12 22 C11.236875 21.34 10.47375 20.68 9.6875 20 C7.15722061 17.70149462 7.15722061 17.70149462 4 18 C0.44549732 15.72484167 -3.25518694 13.03059561 -4.7421875 8.9765625 C-5 7.0625 -5 7.0625 -5 4 C-1.63279613 5.39332574 -0.0140476 6.9789286 2 10 C2 9.01 2 8.02 2 7 C1.34 7 0.68 7 0 7 C0 4.69 0 2.38 0 0 Z " transform="translate(45,7)" style="fill: #C3C3C3;"/><path d="M0 0 C0.66 0 1.32 0 2 0 C2.20302734 1.27230469 2.20302734 1.27230469 2.41015625 2.5703125 C5.5445575 19.64998401 13.96639 34.51383672 28 45 C31.08428666 47.09502151 34.21258839 49.12298703 37.34301758 51.14819336 C42.3805687 54.45537 46.70985424 58.08827732 51.046875 62.28515625 C52.98509756 64.21074958 52.98509756 64.21074958 56 65 C56 66.98 56 68.96 56 71 C55.525625 70.34 55.05125 69.68 54.5625 69 C48.26053094 61.622085 40.70492228 56.28534616 32.5625 51.125 C16.22021125 40.46469415 6.40371737 29.13090262 1 10 C0.43058053 6.6588475 0.08585135 3.38722616 0 0 Z " transform="translate(41,148)" style="fill: #4A4A4A;"/><path d="M0 0 C0.33 0.66 0.66 1.32 1 2 C0.34206835 3.67013418 -0.32723284 5.3357865 -1 7 C-1.25837586 8.49857997 -1.50769965 9.99873702 -1.75 11.5 C-2.52431153 15.04646503 -3.08298959 16.09715854 -5.5625 19 C-10.64284518 21.95583719 -15.24067724 22 -21 22 C-21.66 21.67 -22.32 21.34 -23 21 C-22.35933594 20.62230469 -21.71867187 20.24460938 -21.05859375 19.85546875 C-14.74815192 15.83973304 -11.16919186 11.91121632 -7.5703125 5.35546875 C-6 3 -6 3 -2 1 C-3.32 4.3 -4.64 7.6 -6 11 C-4.02 7.37 -2.04 3.74 0 0 Z " transform="translate(129,129)" style="fill: #D0D0D0;"/><path d="M0 0 C-0.56977342 2.52458117 -1.1552722 5.04378339 -1.75 7.5625 C-1.90726563 8.26697266 -2.06453125 8.97144531 -2.2265625 9.69726562 C-3.73940368 16.01046825 -5.76543051 21.23096582 -11 25.375 C-15.57914777 27.85537171 -19.05380829 28.11898034 -24.25 28.0625 C-25.32765625 28.05347656 -26.4053125 28.04445312 -27.515625 28.03515625 C-28.33546875 28.02355469 -29.1553125 28.01195312 -30 28 C-27.81048718 24.07712287 -26.17862778 21.92043545 -22.1875 19.8125 C-17.43653384 17.10769857 -15.51608423 13.28704663 -12.796875 8.671875 C-9.74928546 4.14024186 -5.66408518 0 0 0 Z M-4 4 C-5.2264128 5.97637747 -6.4062303 7.9817838 -7.5625 10 C-8.52349609 11.670625 -8.52349609 11.670625 -9.50390625 13.375 C-9.99761719 14.24125 -10.49132812 15.1075 -11 16 C-9.35 12.37 -7.7 8.74 -6 5 C-10.37831044 7.18915522 -10.87250929 8.0843448 -13.125 12.1875 C-16.73725035 18.16856812 -21.04176782 21.48740034 -27 25 C-22.94927955 27.02536023 -17.32556176 25.96123595 -13 25 C-8.86743824 22.78066127 -7.54183492 21.55538495 -6.00390625 17.140625 C-5.23027609 14.10532962 -4.58811351 11.07596061 -4 8 C-3.67651366 6.66424348 -3.3475697 5.32969327 -3 4 C-3.33 4 -3.66 4 -4 4 Z " transform="translate(133,125)" style="fill: #717171;"/><path d="M0 0 C3.71390015 2.08079295 7.04220656 4.55841332 10.30078125 7.2890625 C9.97078125 8.2790625 9.64078125 9.2690625 9.30078125 10.2890625 C8.74648438 9.78375 8.1921875 9.2784375 7.62109375 8.7578125 C6.89664063 8.108125 6.1721875 7.4584375 5.42578125 6.7890625 C4.70648437 6.139375 3.9871875 5.4896875 3.24609375 4.8203125 C1.45147027 3.08288978 1.45147027 3.08288978 -0.69921875 3.2890625 C0.62078125 4.6090625 1.94078125 5.9290625 3.30078125 7.2890625 C2.97078125 7.9490625 2.64078125 8.6090625 2.30078125 9.2890625 C1.80449219 8.79535156 1.30820312 8.30164063 0.796875 7.79296875 C-3.69046203 3.56107785 -6.46841715 1.41887087 -12.69921875 1.2890625 C-9.37480845 4.29909195 -6.03892568 7.29602106 -2.69921875 10.2890625 C-2.02375 10.90394531 -1.34828125 11.51882812 -0.65234375 12.15234375 C4.07938904 16.3711232 7.74191412 18.66385491 14.30078125 18.2890625 C14.30078125 18.9490625 14.30078125 19.6090625 14.30078125 20.2890625 C9.49890154 20.54448163 5.708995 20.27354726 1.69140625 17.46484375 C-0.85039678 15.14012017 -3.29161337 12.75228913 -5.69921875 10.2890625 C-11.29521965 4.71433917 -15.91375035 1.96421451 -23.69921875 0.2890625 C-23.69921875 -0.3709375 -23.69921875 -1.0309375 -23.69921875 -1.7109375 C-15.93258237 -4.29981629 -7.36558729 -3.35128194 0 0 Z " transform="translate(26.69921875,79.7109375)" style="fill: #737373;"/><path d="M0 0 C0.33 0.66 0.66 1.32 1 2 C4.02934491 2.65772428 4.02934491 2.65772428 7 3 C7.625 4.875 7.625 4.875 8 7 C7.34 7.66 6.68 8.32 6 9 C6 9.33 6 9.66 6 10 C6 10.99 6 11.98 6 13 C-1.45491562 12.63419196 -8.04931961 11.79080349 -15 9 C-15 8.34 -15 7.68 -15 7 C-19.455 6.01 -19.455 6.01 -24 5 C-24 4.67 -24 4.34 -24 4 C-18.78353371 3.66703407 -14.9912745 4.47226414 -10.11328125 6.34375 C-7.73213024 7.19771052 -7.73213024 7.19771052 -4 7 C-4.33 6.34 -4.66 5.68 -5 5 C-4.01 4.34 -3.02 3.68 -2 3 C-1.34 2.01 -0.68 1.02 0 0 Z " transform="translate(153,101)" style="fill: #E8E8E8;"/><path d="M0 0 C-0.33 2.31 -0.66 4.62 -1 7 C-0.401875 6.814375 0.19625 6.62875 0.8125 6.4375 C3 6 3 6 6 7 C4.96134782 10.34676814 3.95387047 11.02532602 0.8125 12.75 C-2.83556529 14.16190811 -6.09184642 14.22989139 -10 14 C-10.66 14 -11.32 14 -12 14 C-12.66 13.67 -13.32 13.34 -14 13 C-14.66 13 -15.32 13 -16 13 C-14.53642507 9.408308 -12.64906849 7.67598866 -9.5625 5.375 C-8.78003906 4.78460937 -7.99757813 4.19421875 -7.19140625 3.5859375 C-2.2364532 0 -2.2364532 0 0 0 Z " transform="translate(84,12)" style="fill: #DEDEDE;"/><path d="M0 0 C0.66 0 1.32 0 2 0 C2 1.98 2 3.96 2 6 C2.66 6 3.32 6 4 6 C4 5.34 4 4.68 4 4 C9.9180497 2.67145823 12.77729131 3.33535271 18 6 C14.9355782 7.02147393 13.28879046 6.96156046 10.125 6.75 C6.49839482 6.74472877 5.27528237 6.82645242 2.125 8.8125 C-0.84639429 13.26959143 -2.38733936 17.91767557 -4 23 C-4.51880937 24.58399768 -5.03947922 26.1673879 -5.5625 27.75 C-5.91441406 28.82314453 -5.91441406 28.82314453 -6.2734375 29.91796875 C-7.35653813 33.0216926 -8.65932141 35.99943363 -10 39 C-10.33 39 -10.66 39 -11 39 C-11.69284782 32.5334203 -10.44958813 27.67625946 -8.1875 21.6875 C-7.92694824 20.99398437 -7.66639648 20.30046875 -7.39794922 19.5859375 C-5.97731054 15.97963352 -4.41033361 13.02170102 -2 10 C-1.34444881 7.47266765 -1.34444881 7.47266765 -1 5 C-0.67 4.01 -0.34 3.02 0 2 C0 1.34 0 0.68 0 0 Z " transform="translate(112,105)" style="fill: #474747;"/><path d="M0 0 C0.66 0.33 1.32 0.66 2 1 C1.01 2.98 0.02 4.96 -1 7 C-1.33 6.34 -1.66 5.68 -2 5 C-8.98129664 9.90779187 -13.86315572 13.78946371 -15.75 22.4375 C-15.8325 23.283125 -15.915 24.12875 -16 25 C-12.48283697 25 -11.62878252 24.17554415 -9 22 C-10.52961986 25.44164469 -12.62729066 28.09151758 -15 31 C-16.52106634 34.04213267 -16.37429338 37.28047572 -16.5625 40.625 C-16.60568359 41.33140625 -16.64886719 42.0378125 -16.69335938 42.765625 C-16.79944751 44.51018537 -16.90022889 46.25506697 -17 48 C-17.33 48 -17.66 48 -18 48 C-18.33 44.37 -18.66 40.74 -19 37 C-19.66 37.66 -20.32 38.32 -21 39 C-22.25818438 31.87028851 -21.71148265 25.18050184 -21 18 C-20.67 18 -20.34 18 -20 18 C-19.67 19.98 -19.34 21.96 -19 24 C-18.85304688 23.43152344 -18.70609375 22.86304687 -18.5546875 22.27734375 C-15.48685088 11.71622804 -8.54754465 6.50356658 0 0 Z " transform="translate(85,82)" style="fill: #747474;"/><path d="M0 0 C0.66 0 1.32 0 2 0 C2 0.66 2 1.32 2 2 C2.99 2.33 3.98 2.66 5 3 C4.67 4.32 4.34 5.64 4 7 C4 6.01 4 5.02 4 4 C3.01 4 2.02 4 1 4 C-0.16098689 9.12453604 -0.16098689 9.12453604 1 14 C-0.6210103 14.69685498 -2.24696066 15.38222861 -3.875 16.0625 C-4.77992188 16.44535156 -5.68484375 16.82820313 -6.6171875 17.22265625 C-9 18 -9 18 -11 17 C-10.51789063 16.69707031 -10.03578125 16.39414063 -9.5390625 16.08203125 C-5.63056363 13.48965955 -3.22248629 11.75411335 -2 7 C-7.63874978 10.73475634 -11.59364025 14.68110687 -15.45703125 20.2421875 C-15.96621094 20.82226562 -16.47539063 21.40234375 -17 22 C-17.99 22 -18.98 22 -20 22 C-19.91284983 20.06166004 -19.80467036 18.1242571 -19.6875 16.1875 C-19.62949219 15.10855469 -19.57148437 14.02960938 -19.51171875 12.91796875 C-18.96931493 9.82502483 -18.44710376 8.86977097 -16 7 C-15.34 7.33 -14.68 7.66 -14 8 C-14.33 8.804375 -14.66 9.60875 -15 10.4375 C-16.06059041 12.69681125 -16.06059041 12.69681125 -16 14 C-15.60167969 13.4946875 -15.20335938 12.989375 -14.79296875 12.46875 C-14.26316406 11.8190625 -13.73335938 11.169375 -13.1875 10.5 C-12.66542969 9.8503125 -12.14335938 9.200625 -11.60546875 8.53125 C-10 7 -10 7 -7 7 C-4.44137136 5.88059997 -2.33818978 4.55879319 0 3 C0 2.01 0 1.02 0 0 Z " transform="translate(136,78)" style="fill: #676767;"/><path d="M0 0 C0.33 0.99 0.66 1.98 1 3 C-1.85978513 5.93922361 -4.68807787 8.58682597 -8 11 C-5.72975032 11.08097324 -3.45867925 11.13917704 -1.1875 11.1875 C0.70935547 11.23970703 0.70935547 11.23970703 2.64453125 11.29296875 C5.96596445 11.30827421 5.96596445 11.30827421 7.94921875 9.48828125 C8.29597656 8.99714844 8.64273438 8.50601563 9 8 C9.66 8.33 10.32 8.66 11 9 C10.01 10.485 10.01 10.485 9 12 C10.32 11.67 11.64 11.34 13 11 C13.33 12.32 13.66 13.64 14 15 C10.43798805 15.19766544 6.87538633 15.38133629 3.3125 15.5625 C2.30509766 15.61857422 1.29769531 15.67464844 0.25976562 15.73242188 C-1.20493164 15.80493164 -1.20493164 15.80493164 -2.69921875 15.87890625 C-3.59471436 15.9260376 -4.49020996 15.97316895 -5.4128418 16.02172852 C-8 16 -8 16 -10.71801758 15.41772461 C-11.47107178 15.27987549 -12.22412598 15.14202637 -13 15 C-14.8354799 16.33378575 -14.8354799 16.33378575 -16 18 C-14.60152296 13.82700434 -12.63966829 11.11990431 -9.6875 7.875 C-8.92824219 7.02679688 -8.16898437 6.17859375 -7.38671875 5.3046875 C-5.06176334 3.05964055 -2.83195335 1.53376588 0 0 Z " transform="translate(134,84)" style="fill: #919191;"/><path d="M0 0 C0.99 0 1.98 0 3 0 C3 2.97 3 5.94 3 9 C4.32 7.68 5.64 6.36 7 5 C7.7714862 11.9433758 5.08690376 16.89167225 2 23 C1.61585937 23.76957031 1.23171875 24.53914063 0.8359375 25.33203125 C0.42214844 26.15767578 0.42214844 26.15767578 0 27 C-0.33 24.69 -0.66 22.38 -1 20 C-1.33 21.98 -1.66 23.96 -2 26 C-2.33 26 -2.66 26 -3 26 C-3.05420701 23.43721301 -3.09377007 20.87558517 -3.125 18.3125 C-3.15013672 17.2306543 -3.15013672 17.2306543 -3.17578125 16.12695312 C-3.21420912 11.91910187 -2.81425911 8.79345086 -1 5 C-0.63128912 3.34080104 -0.28718326 1.6752357 0 0 Z " transform="translate(62,7)" style="fill: #BFBFBF;"/><path d="M0 0 C0.33 0 0.66 0 1 0 C1.33 1.65 1.66 3.3 2 5 C3.32 5 4.64 5 6 5 C6.12375 5.78375 6.2475 6.5675 6.375 7.375 C6.79117993 10.14057822 6.79117993 10.14057822 9 12 C7.68 13.65 6.36 15.3 5 17 C5.66 17.33 6.32 17.66 7 18 C7 18.99 7 19.98 7 21 C7.66 21.66 8.32 22.32 9 23 C8.4225 23.39832031 7.845 23.79664062 7.25 24.20703125 C6.5075 24.73683594 5.765 25.26664063 5 25.8125 C4.2575 26.33457031 3.515 26.85664062 2.75 27.39453125 C2.1725 27.92433594 1.595 28.45414063 1 29 C1 29.99 1 30.98 1 32 C-0.32 32 -1.64 32 -3 32 C-2.64584218 25.74321185 -0.93629569 21.27069025 1.94140625 15.7109375 C3.14253104 12.63499432 3.18720264 10.2736461 3 7 C1.68 8.65 0.36 10.3 -1 12 C-0.67 8.04 -0.34 4.08 0 0 Z " transform="translate(65,6)" style="fill: #646464;"/><path d="M0 0 C6.63070429 -0.63756772 10.91932618 1.04757906 16.9453125 3.75390625 C21.20041683 5.4896841 25.46957149 6.32845418 30 7 C30.33 8.32 30.66 9.64 31 11 C25.67458444 10.55029824 21.0869217 9.69564057 16 8 C15.01 8.33 14.02 8.66 13 9 C10.80859375 8.4765625 10.80859375 8.4765625 8.4375 7.625 C7.65246094 7.34914063 6.86742187 7.07328125 6.05859375 6.7890625 C4 6 4 6 2 5 C2 4.34 2 3.68 2 3 C2.99 3 3.98 3 5 3 C2.525 2.01 2.525 2.01 0 1 C0 0.67 0 0.34 0 0 Z " transform="translate(123,108)" style="fill: #B1B1B1;"/><path d="M0 0 C0 0.66 0 1.32 0 2 C6.96156852 3.62436599 13.94090922 4.87723429 21 6 C20.505 4.515 20.505 4.515 20 3 C18.02 2.67 16.04 2.34 14 2 C14 1.67 14 1.34 14 1 C17.375 0.875 17.375 0.875 21 1 C21.66 1.66 22.32 2.32 23 3 C22.625 5.125 22.625 5.125 22 7 C20.68 7 19.36 7 18 7 C17.855625 7.804375 17.71125 8.60875 17.5625 9.4375 C17 12 17 12 16 13 C14.43220113 12.82580013 12.86518575 12.63456273 11.30859375 12.37890625 C9.53434445 12.0877012 7.75436621 11.83123671 5.97265625 11.58984375 C4.90917969 11.43644531 3.84570312 11.28304687 2.75 11.125 C1.73421875 10.98320313 0.7184375 10.84140625 -0.328125 10.6953125 C-3.15082453 9.96075034 -4.20823762 9.24583915 -6 7 C-5.236875 7.185625 -4.47375 7.37125 -3.6875 7.5625 C-0.91032625 8.22819173 -0.91032625 8.22819173 2 7 C3.83203125 7.5234375 3.83203125 7.5234375 5.8125 8.375 C9.19689055 9.74502131 12.35860937 10.54482617 16 11 C15.67 10.01 15.34 9.02 15 8 C12.27821182 7.10682536 12.27821182 7.10682536 9 6.5625 C3.93613502 5.51652133 -0.29348192 4.09719025 -4.921875 1.8515625 C-8.24568661 0.48954947 -11.43338211 0.25939039 -15 0 C-15 -0.33 -15 -0.66 -15 -1 C-10.09243954 -2.38025138 -4.62941355 -2.31470677 0 0 Z " transform="translate(138,108)" style="fill: #777777;"/><path d="M0 0 C0.66 0.33 1.32 0.66 2 1 C0.86691406 2.2684375 0.86691406 2.2684375 -0.2890625 3.5625 C-2.9809628 6.79050712 -4.64836705 10.15929451 -6.375 14 C-9.0572107 19.72434904 -11.78181592 23.37921921 -17 27 C-17.66 26.67 -18.32 26.34 -19 26 C-9.11764706 6.07843137 -9.11764706 6.07843137 0 0 Z " transform="translate(130,178)" style="fill: #F1F1F1;"/><path d="M0 0 C2.31 1.98 4.62 3.96 7 6 C6.01 6.33 5.02 6.66 4 7 C4.30035156 7.62648437 4.60070313 8.25296875 4.91015625 8.8984375 C5.29042969 9.71570313 5.67070313 10.53296875 6.0625 11.375 C6.44535156 12.18710938 6.82820313 12.99921875 7.22265625 13.8359375 C7.47917969 14.55007812 7.73570313 15.26421875 8 16 C7.67 16.66 7.34 17.32 7 18 C5.68 16.02 4.36 14.04 3 12 C5.64430772 19.86257772 5.64430772 19.86257772 11 26 C11.66 25.34 12.32 24.68 13 24 C13.8971875 24.99 13.8971875 24.99 14.8125 26 C16.87501834 28.3373846 16.87501834 28.3373846 20 28 C22.1875 31 22.1875 31 24 34 C16.7828821 32.05496113 9.24460316 29.34446863 4.6171875 23.1484375 C0.70431915 15.87340079 -0.29616099 8.14442717 0 0 Z " transform="translate(48,131)" style="fill: #717171;"/><path d="M0 0 C0.33 0 0.66 0 1 0 C1.1676833 7.03540816 0.51781924 13.72280736 -0.4375 20.6875 C-1.5921467 29.45662809 -2.54880186 38.16273988 -3 47 C-3.33 47 -3.66 47 -4 47 C-4.0250466 42.92896481 -4.04302089 38.85796054 -4.05493164 34.78686523 C-4.05990624 33.40697446 -4.06668832 32.02708879 -4.07543945 30.6472168 C-4.22274055 6.79310436 -4.22274055 6.79310436 0 0 Z " transform="translate(63,47)" style="fill: #292928;"/><path d="M0 0 C1.32 0.66 2.64 1.32 4 2 C4 2.99 4 3.98 4 5 C4.99 5 5.98 5 7 5 C7 5.66 7 6.32 7 7 C7.66 7.33 8.32 7.66 9 8 C8.01 9.32 7.02 10.64 6 12 C6 10.02 6 8.04 6 6 C5.01 6.33 4.02 6.66 3 7 C2.34 10.63 1.68 14.26 1 18 C1.66 18.33 2.32 18.66 3 19 C2.01 22.465 2.01 22.465 1 26 C-2.00617269 22.99382731 -1.59585316 20.17618402 -2 16 C-2.66 16 -3.32 16 -4 16 C-4 12.04 -4 8.08 -4 4 C-3.01 5.485 -3.01 5.485 -2 7 C-0.68 6.34 0.64 5.68 2 5 C2 4.34 2 3.68 2 3 C1.01 2.34 0.02 1.68 -1 1 C-0.67 0.67 -0.34 0.34 0 0 Z " transform="translate(116,68)" style="fill: #9A9A9A;"/><path d="M0 0 C0 4.07587476 -1.25991672 4.98590839 -4 8 C-5.23872051 9.09621284 -6.48990621 10.17842418 -7.75 11.25 C-20.29286357 22.11737901 -27.13641971 34.58213969 -30 51 C-32.82107829 46.76838257 -31.86992801 44.17552417 -30.9453125 39.32421875 C-28.06097358 29.1813575 -21.23903827 21.39306036 -14 14 C-13.35546875 13.34 -12.7109375 12.68 -12.046875 12 C-10.3791238 10.31774662 -8.69388656 8.65586916 -7 7 C-6.071875 6.071875 -5.14375 5.14375 -4.1875 4.1875 C-2.79166667 2.79166667 -1.39583333 1.39583333 0 0 Z " transform="translate(130,155)" style="fill: #646464;"/><path d="M0 0 C0.33 0 0.66 0 1 0 C1 7.92 1 15.84 1 24 C1.33 24 1.66 24 2 24 C2.02505615 24.58378418 2.0501123 25.16756836 2.07592773 25.76904297 C2.19356199 28.47116313 2.31551273 31.17307299 2.4375 33.875 C2.47681641 34.7928125 2.51613281 35.710625 2.55664062 36.65625 C2.83776388 42.7977119 3.32318013 48.88952074 4 55 C3.01 55 2.02 55 1 55 C-0.64608426 44.82412164 -1.29312769 34.96938405 -1.20581055 24.67163086 C-1.18725763 22.40792822 -1.18530385 20.1446311 -1.18554688 17.88085938 C-1.14539989 5.92351693 -1.14539989 5.92351693 0 0 Z " transform="translate(59,56)" style="fill: #616160;"/><path d="M0 0 C-1.07749442 0.82022749 -2.16229508 1.63086169 -3.25 2.4375 C-3.85328125 2.88996094 -4.4565625 3.34242188 -5.078125 3.80859375 C-7 5 -7 5 -8.984375 5.43359375 C-14.42025457 6.96111805 -18.80258793 13.27952888 -21.5 18 C-21.995 18.99 -22.49 19.98 -23 21 C-23.33 20.01 -23.66 19.02 -24 18 C-22.73339467 15.95708818 -21.40113616 13.95309888 -20 12 C-20 11.67 -20 11.34 -20 11 C-20.55429688 11.49371094 -21.10859375 11.98742187 -21.6796875 12.49609375 C-22.40414062 13.13675781 -23.12859375 13.77742187 -23.875 14.4375 C-24.59429687 15.07558594 -25.31359375 15.71367187 -26.0546875 16.37109375 C-28 18 -28 18 -30 19 C-26.38056008 10.73744018 -18.34747515 6.34651442 -10.625 2.4375 C-9.92294434 2.07881836 -9.22088867 1.72013672 -8.49755859 1.35058594 C-3.38368436 -1.12789479 -3.38368436 -1.12789479 0 0 Z " transform="translate(149,169)" style="fill: #4D4D4D;"/><path d="M0 0 C-0.625 1.859375 -0.625 1.859375 -2 4 C-8.64472754 7.12920309 -15.53423053 8.41946544 -22.83203125 8.07421875 C-25.64132832 7.97804462 -28.25720915 8.42257035 -31 9 C-30 7 -30 7 -27.91796875 6.25390625 C-27.01691406 6.02574219 -26.11585937 5.79757813 -25.1875 5.5625 C-24.20265625 5.30855469 -23.2178125 5.05460937 -22.203125 4.79296875 C-21.14609375 4.53128906 -20.0890625 4.26960938 -19 4 C-17.90171875 3.72800781 -16.8034375 3.45601562 -15.671875 3.17578125 C-13.59377518 2.66127586 -11.51443615 2.15173618 -9.43359375 1.6484375 C-2.95512913 -0.07776656 -2.95512913 -0.07776656 0 0 Z " transform="translate(104,24)" style="fill: #EDEDED;"/><path d="M0 0 C2 1 2 1 2.640625 2.8984375 C2.84171875 3.71570313 3.0428125 4.53296875 3.25 5.375 C4.69949391 10.65692546 7.09502425 14.92817398 9.98828125 19.5546875 C11 22 11 22 10.16796875 24.3203125 C9.78253906 24.87460938 9.39710937 25.42890625 9 26 C7.51721428 23.56463678 6.03866643 21.12687063 4.5625 18.6875 C4.14162109 17.99720703 3.72074219 17.30691406 3.28710938 16.59570312 C2.68286133 15.59506836 2.68286133 15.59506836 2.06640625 14.57421875 C1.69459229 13.96151123 1.32277832 13.34880371 0.93969727 12.7175293 C-1.20531807 8.79698295 -1.1623754 5.38413577 -1 1 C-0.67 0.67 -0.34 0.34 0 0 Z " transform="translate(103,71)" style="fill: #C6C6C6;"/><path d="M0 0 C3.80635497 3.20760251 7.54563567 6.40746109 11 10 C11.33 7.69 11.66 5.38 12 3 C13.65 3.33 15.3 3.66 17 4 C17 6.31 17 8.62 17 11 C15.68 10.01 14.36 9.02 13 8 C13.33 8.86625 13.66 9.7325 14 10.625 C14.98731341 13.95718275 15.16420974 16.55159538 15 20 C13.01299561 18.21169605 11.69770084 16.52495847 10.25 14.25 C7.94776768 10.92455331 5.460945 8.42261793 2.48828125 5.7109375 C0.83388773 3.80903629 0.40297349 2.46082478 0 0 Z " transform="translate(98,91)" style="fill: #838383;"/><path d="M0 0 C0.99 0.33 1.98 0.66 3 1 C2.63648438 1.58265625 2.27296875 2.1653125 1.8984375 2.765625 C-0.97828774 7.45690001 -3.58768218 12.14667976 -5.9375 17.125 C-11.32035873 27.93212407 -19.12047681 33.58202403 -29 40 C-29.99 39.34 -30.98 38.68 -32 38 C-30 36 -30 36 -26.9375 34.8125 C-12.38701765 28.71948552 -7.03392303 15.44750339 -1 2 C-0.67 1.34 -0.34 0.68 0 0 Z " transform="translate(139,173)" style="fill: #646464;"/><path d="M0 0 C-1.29984423 3.6562121 -2.84900361 6.324623 -5.3125 9.3125 C-8.55912205 13.36058941 -11.36087715 17.53659867 -14 22 C-15.5288916 17.33012021 -14.06936255 14.27554246 -12 10 C-9.52716807 6.33338714 -4.77521725 0 0 0 Z " transform="translate(83,87)" style="fill: #EDEDED;"/><path d="M0 0 C3.69900008 0.88776002 7.34550461 1.94581864 11 3 C11 5.31 11 7.62 11 10 C10.731875 9.360625 10.46375 8.72125 10.1875 8.0625 C9.11332248 5.66868314 9.11332248 5.66868314 6 5 C5.67 6.65 5.34 8.3 5 10 C3.5393715 7.35261084 3 6.10551666 3 3 C2.01 2.67 1.02 2.34 0 2 C0 4.31 0 6.62 0 9 C0.66 9 1.32 9 2 9 C2.33 10.65 2.66 12.3 3 14 C0.33333333 11.33333333 -2.33333333 8.66666667 -5 6 C-3.74875245 11.68748885 -1.95897432 14.72847508 2 19 C-1.40357628 17.54132445 -3.78825606 16.00165249 -6 13 C-6.33810273 10.24234962 -6.18635128 7.79526914 -6 5 C-4 4 -4 4 -1 5 C-0.67 3.35 -0.34 1.7 0 0 Z " transform="translate(45,5)" style="fill: #636363;"/><path d="M0 0 C1.32 0 2.64 0 4 0 C4.061875 1.19625 4.12375 2.3925 4.1875 3.625 C4.76313701 8.28765981 6.75043868 10.59929629 10 14 C11.33773782 15.66313351 12.67267046 17.32854798 14 19 C7.87534255 17.39592305 3.76043173 14.52328549 0.125 9.3125 C-1 7 -1 7 -1 5 C-0.34 4.67 0.32 4.34 1 4 C0.34 3.67 -0.32 3.34 -1 3 C-0.67 2.01 -0.34 1.02 0 0 Z " transform="translate(35,10)" style="fill: #D6D6D6;"/><path d="M0 0 C0.33 0.66 0.66 1.32 1 2 C0.34206835 3.67013418 -0.32723284 5.3357865 -1 7 C-1.25837586 8.49857997 -1.50769965 9.99873702 -1.75 11.5 C-2.52431153 15.04646503 -3.08298959 16.09715854 -5.5625 19 C-9.77127858 21.4487439 -13.20037873 21.88267592 -18 22 C-16 20 -16 20 -13.25 19 C-8.46697267 16.05659857 -6.6119948 11.8571364 -4 7 C-3.21176858 5.62302783 -2.42061636 4.24771837 -1.625 2.875 C-1.08875 1.92625 -0.5525 0.9775 0 0 Z " transform="translate(129,129)" style="fill: #EEEEEE;"/><path d="M0 0 C1.32 0.33 2.64 0.66 4 1 C4 0.67 4 0.34 4 0 C8.82360189 -0.19294408 12.49646738 0.24252386 17 2 C16.01 3.485 16.01 3.485 15 5 C12.29187041 5.35951231 9.77853317 5.5581144 7.0625 5.625 C1.45186534 5.7660333 1.45186534 5.7660333 -4 7 C-3.67 6.01 -3.34 5.02 -3 4 C-2.34 4 -1.68 4 -1 4 C-0.67 2.68 -0.34 1.36 0 0 Z " transform="translate(70,36)" style="fill: #838383;"/><path d="M0 0 C4.71495996 1.26914986 7.41112972 2.88671225 10.8125 6.375 C11.58207031 7.14585938 12.35164063 7.91671875 13.14453125 8.7109375 C14.94110304 10.92733975 15.61231943 12.21632639 16 15 C11.59124045 14.49614177 9.17449034 13.0886933 6 10 C5.28272222 8.35448038 4.61674772 6.68577711 4 5 C2.71332828 3.29705213 1.38903267 1.62053812 0 0 Z " transform="translate(24,81)" style="fill: #D6D6D6;"/><path d="M0 0 C0 0.66 0 1.32 0 2 C1.32 2 2.64 2 4 2 C4 3.65 4 5.3 4 7 C4.66 7.33 5.32 7.66 6 8 C4.68 9.32 3.36 10.64 2 12 C1.34 11.67 0.68 11.34 0 11 C0.66 10.01 1.32 9.02 2 8 C2.33 6.35 2.66 4.7 3 3 C-1.95 5.97 -1.95 5.97 -7 9 C-7.66 8.01 -8.32 7.02 -9 6 C-6.97377245 1.32409027 -5.29661848 0 0 0 Z " transform="translate(81,9)" style="fill: #A5A5A5;"/><path d="M0 0 C2.35953094 2.35953094 2.49141413 3.77895617 3 7 C3.66 6.34 4.32 5.68 5 5 C6.05619003 9.28297531 6.11702092 13.42985646 6.0625 17.8125 C6.05798828 18.50537109 6.05347656 19.19824219 6.04882812 19.91210938 C6.03713156 21.60811068 6.01919924 23.30406703 6 25 C5.34 25 4.68 25 4 25 C3.32315702 21.96050698 2.66038128 18.91810835 2 15.875 C1.80921875 15.0190625 1.6184375 14.163125 1.421875 13.28125 C0.45079667 8.77267206 -0.24359575 4.64354396 0 0 Z " transform="translate(61,109)" style="fill: #383838;"/><path d="M0 0 C2.3221027 6.96630811 -2.99265225 15.67999001 -6 22 C-6.33 22 -6.66 22 -7 22 C-7.66074165 14.07110018 -5.75697533 8.01302061 -2 1 C-1.34 0.67 -0.68 0.34 0 0 Z " transform="translate(108,122)" style="fill: #3B3B3B;"/><path d="M0 0 C4.01280561 0.62700088 7.50403572 1.92328831 11.23046875 3.4765625 C13.08228573 4.24325477 13.08228573 4.24325477 15 3 C17 5 17 5 17 8 C18.32 8.66 19.64 9.32 21 10 C3.67498536 6.51861408 3.67498536 6.51861408 0 2 C0 1.34 0 0.68 0 0 Z " transform="translate(33,27)" style="fill: #C2C2C2;"/><path d="M0 0 C0.33 0 0.66 0 1 0 C1.06058594 0.92683594 1.12117188 1.85367188 1.18359375 2.80859375 C1.26738281 4.00613281 1.35117188 5.20367187 1.4375 6.4375 C1.51871094 7.63246094 1.59992188 8.82742187 1.68359375 10.05859375 C1.67656114 12.88570244 1.67656114 12.88570244 3 14 C3.39943176 16.52195967 3.75079848 19.02963656 4.0625 21.5625 C4.15337891 22.27341797 4.24425781 22.98433594 4.33789062 23.71679688 C4.56239503 25.47738403 4.78168397 27.23863478 5 29 C4.34 29 3.68 29 3 29 C2.67 29.66 2.34 30.32 2 31 C-0.71109667 23.7009699 -1.30055378 17.60056273 -0.6875 9.875 C-0.62626953 8.91851562 -0.56503906 7.96203125 -0.50195312 6.9765625 C-0.35069053 4.64944567 -0.18319774 2.32478258 0 0 Z " transform="translate(93,179)" style="fill: #323232;"/><path d="M0 0 C0.33 0.66 0.66 1.32 1 2 C4.02934491 2.65772428 4.02934491 2.65772428 7 3 C7.625 4.875 7.625 4.875 8 7 C6 9 6 9 3.3984375 9.1953125 C2.40070313 9.17210938 1.40296875 9.14890625 0.375 9.125 C-1.12933594 9.09792969 -1.12933594 9.09792969 -2.6640625 9.0703125 C-3.43492187 9.04710938 -4.20578125 9.02390625 -5 9 C-5 6 -5 6 -3.625 4.5 C-3.08875 4.005 -2.5525 3.51 -2 3 C-1.34 2.01 -0.68 1.02 0 0 Z " transform="translate(153,101)" style="fill: #CFCFCF;"/><path d="M0 0 C3.95904503 0.76795035 7.88440841 1.64991306 11.8125 2.5625 C13.55466797 2.96662109 13.55466797 2.96662109 15.33203125 3.37890625 C16.21246094 3.58386719 17.09289062 3.78882812 18 4 C18.33 5.32 18.66 6.64 19 8 C12.33638557 7.56180313 5.74512251 7.09933187 1.0625 1.8125 C0.711875 1.214375 0.36125 0.61625 0 0 Z " transform="translate(135,111)" style="fill: #EDEDED;"/><path d="M0 0 C2.5654594 2.5654594 2.54046087 4.47686668 3 8 C3.66 6.68 4.32 5.36 5 4 C6.04976964 7.14930893 6.10131595 9.38814456 6.0625 12.6875 C6.05347656 13.68136719 6.04445313 14.67523438 6.03515625 15.69921875 C6.02355469 16.45847656 6.01195312 17.21773437 6 18 C5.34 17.67 4.68 17.34 4 17 C3.01 17.33 2.02 17.66 1 18 C0.34 17.34 -0.32 16.68 -1 16 C0.32 16 1.64 16 3 16 C1.35 13.69 -0.3 11.38 -2 9 C-1.67 8.34 -1.34 7.68 -1 7 C-1 5.68 -1 4.36 -1 3 C-0.67 2.01 -0.34 1.02 0 0 Z " transform="translate(56,20)" style="fill: #404040;"/><path d="M0 0 C1.98 0 3.96 0 6 0 C6 0.99 6 1.98 6 3 C7.49004831 4.67075105 7.49004831 4.67075105 9.5 6.25 C10.22832031 6.85714844 10.95664062 7.46429688 11.70703125 8.08984375 C12.46371094 8.72019531 13.22039063 9.35054687 14 10 C15.39712307 11.26941529 16.79300944 12.54019338 18.1875 13.8125 C22.63978606 17.69085856 26.00613076 19.34250681 32 19 C32 19.66 32 20.32 32 21 C27.19812029 21.25541913 23.40821375 20.98448476 19.390625 18.17578125 C16.8494633 15.85164423 14.41504785 13.454574 12 11 C6.20159239 5.38714397 6.20159239 5.38714397 -1 2 C-0.67 1.34 -0.34 0.68 0 0 Z " transform="translate(9,79)" style="fill: #8D8D8D;"/><path d="M0 0 C0.33 0.99 0.66 1.98 1 3 C-2.66784203 6.904477 -6.63829226 10.12649348 -10.9140625 13.3515625 C-12.75381811 14.80545176 -14.38588931 16.30364164 -16 18 C-14.60152296 13.82700434 -12.63966829 11.11990431 -9.6875 7.875 C-8.92824219 7.02679688 -8.16898437 6.17859375 -7.38671875 5.3046875 C-5.06176334 3.05964055 -2.83195335 1.53376588 0 0 Z " transform="translate(134,84)" style="fill: #E7E7E7;"/><path d="M0 0 C1.98 0 3.96 0 6 0 C7 2 7 2 6.375 4.3125 C4.6417402 7.70023507 3.00817637 9.64577502 0 12 C-2.73313517 12.69469298 -5.15892999 12.85553881 -8 13 C-5 11 -5 11 -3 11 C-3 10.34 -3 9.68 -3 9 C-1.33333333 8 0.33333333 7 2 6 C2 5.34 2 4.68 2 4 C1.01 4 0.02 4 -1 4 C-0.67 2.68 -0.34 1.36 0 0 Z " transform="translate(87,15)" style="fill: #BBBBBB;"/><path d="M0 0 C0.33 0.66 0.66 1.32 1 2 C-5.08232664 12.39524917 -13.68105433 19.03495892 -24 25 C-24.66 24.34 -25.32 23.68 -26 23 C-24.99839844 22.35933594 -23.99679688 21.71867187 -22.96484375 21.05859375 C-13.73622776 15.08311415 -5.81208059 9.53181216 0 0 Z " transform="translate(114,37)" style="fill: #666666;"/><path d="M0 0 C3.99146851 3.72537061 5.74271861 6.75221679 7 12 C-2.52034261 7.03640257 -2.52034261 7.03640257 -6 3 C-6.66 2.34 -7.32 1.68 -8 1 C-2.25 0.875 -2.25 0.875 0 2 C0 1.34 0 0.68 0 0 Z " transform="translate(51,23)" style="fill: #A4A4A4;"/><path d="M0 0 C0.99 0.33 1.98 0.66 3 1 C2.01 1.33 1.02 1.66 0 2 C2.63411025 6.44775994 5.0963126 10.53005564 9 14 C5.01636642 12.67212214 2.89369166 10.99014805 0 8 C-0.99 7.67 -1.98 7.34 -3 7 C-2.525625 7.9075 -2.05125 8.815 -1.5625 9.75 C0 13 0 13 0.375 15.125 C1.35046778 18.05140333 3.56253913 19.25002809 6 21 C1.98152859 21 0.84436477 19.77143234 -2 17 C-3.68340387 13.23238181 -4.24167684 10.10850624 -4 6 C-3.01 5.67 -2.02 5.34 -1 5 C-0.67 3.35 -0.34 1.7 0 0 Z " transform="translate(34,13)" style="fill: #5F5F5F;"/><path d="M0 0 C2.31 1.98 4.62 3.96 7 6 C6.01 6.33 5.02 6.66 4 7 C4.30035156 7.62648437 4.60070313 8.25296875 4.91015625 8.8984375 C5.29042969 9.71570313 5.67070313 10.53296875 6.0625 11.375 C6.44535156 12.18710938 6.82820313 12.99921875 7.22265625 13.8359375 C7.47917969 14.55007812 7.73570313 15.26421875 8 16 C7.67 16.66 7.34 17.32 7 18 C5.68 16.02 4.36 14.04 3 12 C3.33 14.31 3.66 16.62 4 19 C0.08598395 15.08598395 -0.125 8.78506732 -0.125 3.4375 C-0.08375 2.303125 -0.0425 1.16875 0 0 Z " transform="translate(48,131)" style="fill: #777777;"/><path d="M0 0 C3.57928719 1.44101172 5.07400774 3.14280801 7.125 6.375 C7.62257813 7.14585938 8.12015625 7.91671875 8.6328125 8.7109375 C9.86229312 10.76943935 10.96388739 12.83896513 12 15 C6.58889563 13.68821712 2.87598629 9.59992044 0 5 C-0.19921875 2.23828125 -0.19921875 2.23828125 0 0 Z " transform="translate(40,11)" style="fill: #E7E7E7;"/><path d="M0 0 C0.33 0 0.66 0 1 0 C3.77761686 9.99942068 4.16000955 19.65271561 4 30 C3.67 30 3.34 30 3 30 C2.67 26.37 2.34 22.74 2 19 C1.34 19.66 0.68 20.32 0 21 C-1.25818438 13.87028851 -0.71148265 7.18050184 0 0 Z " transform="translate(64,100)" style="fill: #848484;"/><path d="M0 0 C4.77257361 3.27262191 7.14516739 7.12174216 10 12 C10.99 13.485 10.99 13.485 12 15 C8.19037877 15 7.55469489 14.04303359 4.875 11.4375 C1.15677398 7.61712492 0 5.28977399 0 0 Z " transform="translate(96,81)" style="fill: #DCDCDC;"/><path d="M0 0 C0.7714862 6.9433758 -1.91309624 11.89167225 -5 18 C-5.38414063 18.76957031 -5.76828125 19.53914063 -6.1640625 20.33203125 C-6.57785156 21.15767578 -6.57785156 21.15767578 -7 22 C-6.25549915 -0 -6.25549915 -0 0 0 Z " transform="translate(69,12)" style="fill: #E9E9E9;"/><path d="M0 0 C2.64 0 5.28 0 8 0 C8.66 1.65 9.32 3.3 10 5 C9.01 5.495 9.01 5.495 8 6 C7.27840576 7.64363134 6.60648579 9.31050386 6 11 C5.67 11 5.34 11 5 11 C4.67 9.02 4.34 7.04 4 5 C2.68 5.33 1.36 5.66 0 6 C0 4.02 0 2.04 0 0 Z " transform="translate(66,6)" style="fill: #CCCCCC;"/><path d="M0 0 C0.66 0.66 1.32 1.32 2 2 C-0.64 6.95 -3.28 11.9 -6 17 C-4.35 15.68 -2.7 14.36 -1 13 C-0.34 13.33 0.32 13.66 1 14 C-0.09463822 15.17561146 -1.20107186 16.3402489 -2.3125 17.5 C-2.92738281 18.1496875 -3.54226562 18.799375 -4.17578125 19.46875 C-6 21 -6 21 -9 21 C-8.38367054 16.04001528 -6.20164371 12.06328034 -3.9375 7.6875 C-3.37192383 6.57665039 -3.37192383 6.57665039 -2.79492188 5.44335938 C-1.86871843 3.62612478 -0.93509371 1.81267596 0 0 Z " transform="translate(118,187)" style="fill: #6C6C6C;"/><path d="M0 0 C3.58379363 4.50635437 6.43633296 9.50538034 9.41601562 14.41992188 C9.84720703 15.12052734 10.27839844 15.82113281 10.72265625 16.54296875 C11.11203369 17.18258545 11.50141113 17.82220215 11.90258789 18.48120117 C12.93893794 20.16241138 12.93893794 20.16241138 15 21 C14.67 21.99 14.34 22.98 14 24 C8.82127597 19.4490001 5.58542873 13.83422408 2 8 C1.34 7.01 0.68 6.02 0 5 C-0.125 2.3125 -0.125 2.3125 0 0 Z " transform="translate(52,116)" style="fill: #5E5E5E;"/><path d="M0 0 C7.26 0 14.52 0 22 0 C22 1.32 22 2.64 22 4 C17.05 3.67 12.1 3.34 7 3 C7 2.67 7 2.34 7 2 C4.69 1.67 2.38 1.34 0 1 C0 0.67 0 0.34 0 0 Z " transform="translate(127,99)" style="fill: #E4E4E4;"/><path d="M0 0 C-1 3 -1 3 -3.3125 4.25 C-8.63653514 5.3328546 -13.63958008 4.64186258 -19 4 C-19 3.67 -19 3.34 -19 3 C-16.96040523 2.49161436 -14.91820862 1.99366114 -12.875 1.5 C-11.73804687 1.2215625 -10.60109375 0.943125 -9.4296875 0.65625 C-6.18533302 0.03546235 -3.29185543 -0.12006768 0 0 Z " transform="translate(102,31)" style="fill: #F5F5F5;"/><path d="M0 0 C0.60546875 1.875 0.60546875 1.875 1 4 C-0.6875 6 -0.6875 6 -3 8 C-3.7425 8.7425 -4.485 9.485 -5.25 10.25 C-5.8275 10.8275 -6.405 11.405 -7 12 C-7.66 11.67 -8.32 11.34 -9 11 C-9.66 11 -10.32 11 -11 11 C-9.52202738 7.32943063 -7.52384523 5.58914217 -4.375 3.25 C-3.55773437 2.63640625 -2.74046875 2.0228125 -1.8984375 1.390625 C-0.95871094 0.70226562 -0.95871094 0.70226562 0 0 Z " transform="translate(79,14)" style="fill: #E0E0E0;"/><path d="M0 0 C0.66 0 1.32 0 2 0 C2.17015625 0.89460937 2.3403125 1.78921875 2.515625 2.7109375 C4.01246491 10.1792132 5.84917336 17.05858496 9 24 C8.34 24.66 7.68 25.32 7 26 C0.04255319 8.85106383 0.04255319 8.85106383 0 0 Z " transform="translate(41,148)" style="fill: #6B6B6B;"/><path d="M0 0 C0 1.32 0 2.64 0 4 C-3.85756507 6.15305957 -6.55129785 7.39253254 -11 7 C-10.21366078 5.85050412 -9.42073742 4.70551011 -8.625 3.5625 C-8.18414062 2.92441406 -7.74328125 2.28632813 -7.2890625 1.62890625 C-4.92074578 -1.36378487 -3.4158605 -1.02475815 0 0 Z " transform="translate(102,18)" style="fill: #D9D9D9;"/><path d="M0 0 C0 0.99 0 1.98 0 3 C-5.57019642 7.30424269 -9.34880404 8.137513 -16.25 8.0625 C-17.32765625 8.05347656 -18.4053125 8.04445312 -19.515625 8.03515625 C-20.33546875 8.02355469 -21.1553125 8.01195312 -22 8 C-18.99619896 4.58283185 -16.51729294 4.3285304 -12 4 C-11.34 4.33 -10.68 4.66 -10 5 C-4.26285298 3.77081843 -4.26285298 3.77081843 0 0 Z " transform="translate(125,145)" style="fill: #929292;"/><path d="M0 0 C-0.6191639 2.584859 -1.24507682 5.16776172 -1.875 7.75 C-2.04902344 8.47960937 -2.22304687 9.20921875 -2.40234375 9.9609375 C-3.27908598 13.53285028 -4.12686823 16.79373841 -6 20 C-7.09184691 16.72445926 -6.88854859 15.73940625 -6.0625 12.5 C-5.38856225 9.82210164 -5 7.78655709 -5 5 C-5.66 4.34 -6.32 3.68 -7 3 C-3.375 0 -3.375 0 0 0 Z " transform="translate(133,125)" style="fill: #666666;"/><path d="M0 0 C1.953125 0.6171875 1.953125 0.6171875 4 2 C4.609375 4.8203125 4.609375 4.8203125 4.75 8.125 C4.80671875 9.22070312 4.8634375 10.31640625 4.921875 11.4453125 C4.94765625 12.28835937 4.9734375 13.13140625 5 14 C1.70624323 10.80773154 -0.8208409 7.97075009 -1.25 3.25 C-1 1 -1 1 0 0 Z " transform="translate(51,9)" style="fill: #F0F0F0;"/><path d="M0 0 C0.33 1.32 0.66 2.64 1 4 C1.66 3.34 2.32 2.68 3 2 C5.875 1.1875 5.875 1.1875 9 1 C11.375 2.4375 11.375 2.4375 13 4 C8.82262526 5.59138085 5.46839215 6.21278058 1 6 C1 6.66 1 7.32 1 8 C0.34 8 -0.32 8 -1 8 C-1.04241723 5.66705225 -1.04092937 3.33297433 -1 1 C-0.67 0.67 -0.34 0.34 0 0 Z " transform="translate(115,103)" style="fill: #2D2D2D;"/><path d="M0 0 C0 0.66 0 1.32 0 2 C1.1446875 2.185625 1.1446875 2.185625 2.3125 2.375 C5 3 5 3 8 5 C2.89818122 5.52326346 -0.21136173 4.10207492 -4.67578125 1.95703125 C-8.11841542 0.539476 -11.30135718 0.26899221 -15 0 C-15 -0.33 -15 -0.66 -15 -1 C-10.09243954 -2.38025138 -4.62941355 -2.31470677 0 0 Z " transform="translate(138,108)" style="fill: #626262;"/><path d="M0 0 C1.11328125 1.57421875 1.11328125 1.57421875 2 4 C1.35546875 7.20703125 1.35546875 7.20703125 0.1875 10.8125 C-1.34007175 15.59333036 -2.4090026 20.0368928 -3 25 C-3.33 25 -3.66 25 -4 25 C-4.58974578 15.90808586 -3.08745074 8.54562257 0 0 Z " transform="translate(69,81)" style="fill: #535352;"/><path d="M0 0 C0.33808686 2.06172613 0.67027361 4.1244203 1 6.1875 C1.185625 7.33605469 1.37125 8.48460938 1.5625 9.66796875 C1.93489477 12.50415393 2.08596021 15.14719564 2 18 C-2.54205107 12.4256646 -3.35150554 8.03011088 -3 1 C-2 0 -2 0 0 0 Z " transform="translate(111,71)" style="fill: #F2F2F2;"/><path d="M0 0 C2.58464442 4.38008443 1.81479148 7.11125113 1 12 C2.32 11.34 3.64 10.68 5 10 C5 10.66 5 11.32 5 12 C5.99 12.33 6.98 12.66 8 13 C2.375 16 2.375 16 -1 16 C-2.03038433 12.0585998 -1.87693282 9.16384848 -1.0625 5.1875 C-0.86785156 4.21167969 -0.67320313 3.23585937 -0.47265625 2.23046875 C-0.31667969 1.49441406 -0.16070312 0.75835937 0 0 Z " transform="translate(100,140)" style="fill: #6A6A6A;"/><path d="M0 0 C-0.48672566 6.32743363 -0.48672566 6.32743363 -2.8125 9.375 C-4.96181032 10.97163052 -6.37478776 11.62496968 -9 12 C-8.6875 10.125 -8.6875 10.125 -8 8 C-7.01 7.34 -6.02 6.68 -5 6 C-4.27840576 4.35636866 -3.60648579 2.68949614 -3 1 C-2 0 -2 0 0 0 Z " transform="translate(84,12)" style="fill: #BDBDBD;"/><path d="M0 0 C1.8272911 2.74093665 2.93698178 5.13825324 4.125 8.1875 C4.47820312 9.08855469 4.83140625 9.98960938 5.1953125 10.91796875 C5.46085937 11.60503906 5.72640625 12.29210937 6 13 C6.66 12.01 7.32 11.02 8 10 C8.66 13.3 9.32 16.6 10 20 C5.86033171 18.62011057 5.35618373 16.60424026 3.3125 12.8125 C2.68988281 11.68457031 2.06726563 10.55664062 1.42578125 9.39453125 C-0.02730787 5.93498483 -0.2978001 3.70283516 0 0 Z " transform="translate(106,74)" style="fill: #686868;"/><path d="M0 0 C0.99 0 1.98 0 3 0 C2.14285714 8.57142857 2.14285714 8.57142857 0 12 C-0.66 12 -1.32 12 -2 12 C-2.28571429 3.42857143 -2.28571429 3.42857143 0 0 Z " transform="translate(119,74)" style="fill: #F0F0F0;"/><path d="M0 0 C-1 3 -1 3 -3 4 C-5.2072923 4.07092842 -7.41667452 4.08415025 -9.625 4.0625 C-10.81351563 4.05347656 -12.00203125 4.04445313 -13.2265625 4.03515625 C-14.14179688 4.02355469 -15.05703125 4.01195313 -16 4 C-13.31920314 1.76799726 -11.48655498 0.6189355 -8 0.3125 C-7.34 0.24675781 -6.68 0.18101563 -6 0.11328125 C-4.0028446 0.00016112 -2.00035643 0 0 0 Z " transform="translate(143,92)" style="fill: #EBEBEB;"/><path d="M0 0 C0.99 0.33 1.98 0.66 3 1 C2.67 2.65 2.34 4.3 2 6 C3.65 6.33 5.3 6.66 7 7 C7 7.99 7 8.98 7 10 C4.97954558 9.39816251 2.97888961 8.72693904 1 8 C0.67 7.34 0.34 6.68 0 6 C-1.65 6.33 -3.3 6.66 -5 7 C-3.35 4.69 -1.7 2.38 0 0 Z " transform="translate(146,90)" style="fill: #BEBEBE;"/><path d="M0 0 C-7.37850762 4.91900508 -15.34372928 5.44433329 -24 5 C-20.56072001 2.07928108 -18.61465656 1.8337368 -14.0859375 2.02734375 C-9.17967543 1.96302945 -5.02558947 -0.30458118 0 0 Z " transform="translate(101,29)" style="fill: #5D5D5D;"/><path d="M0 0 C3.63 0 7.26 0 11 0 C11.33 1.32 11.66 2.64 12 4 C8.04 3.67 4.08 3.34 0 3 C0 2.01 0 1.02 0 0 Z " transform="translate(147,110)" style="fill: #F1F1F1;"/><path d="M0 0 C0.33 0.99 0.66 1.98 1 3 C2.32 2.01 3.64 1.02 5 0 C2.71974138 4.56051725 1.52903246 6.41198145 -3 9 C-4.485 9.99 -4.485 9.99 -6 11 C-5.55530671 5.96014269 -3.28656638 3.62365012 0 0 Z " transform="translate(76,98)" style="fill: #A3A3A3;"/><path d="M0 0 C0.99 0.33 1.98 0.66 3 1 C2.67 1.763125 2.34 2.52625 2 3.3125 C0.82563314 5.99069135 0.82563314 5.99069135 1 9 C1 13 1 13 0 15 C-0.99 15 -1.98 15 -3 15 C-2.8858134 13.06183265 -2.75826577 11.12444901 -2.625 9.1875 C-2.55539063 8.10855469 -2.48578125 7.02960938 -2.4140625 5.91796875 C-2 3 -2 3 0 0 Z " transform="translate(119,85)" style="fill: #5B5B5B;"/><path d="M0 0 C1.15628906 -0.01417969 2.31257812 -0.02835937 3.50390625 -0.04296875 C6.4375 0.1875 6.4375 0.1875 8.4375 2.1875 C2.47075384 3.51344359 -3.48833615 3.2759587 -9.5625 3.1875 C-9.5625 2.5275 -9.5625 1.8675 -9.5625 1.1875 C-6.1971364 0.06571213 -3.5421245 0.01978841 0 0 Z " transform="translate(12.5625,76.8125)" style="fill: #454545;"/><path d="M0 0 C0.66 0.33 1.32 0.66 2 1 C-3.85261403 6.51722067 -10.12561037 10.84251068 -17 15 C-17.66 14.34 -18.32 13.68 -19 13 C-17 11 -17 11 -13.9375 9.8125 C-8.71087863 7.68884121 -3.98023894 3.98023894 0 0 Z " transform="translate(126,198)" style="fill: #717171;"/><path d="M0 0 C3.52625973 1.95903318 6.60414692 3.71679392 9 7 C9.33340187 9.75718056 9.1862751 12.20587353 9 15 C5.30557011 12.53704674 5.36801099 11.10403298 4 7 C2.6949419 5.31110128 1.36639342 3.6396721 0 2 C0 1.34 0 0.68 0 0 Z " transform="translate(101,85)" style="fill: #939393;"/><path d="M0 0 C0.66 0.33 1.32 0.66 2 1 C2.6328125 3.50390625 2.6328125 3.50390625 3.125 6.5625 C3.29257813 7.57441406 3.46015625 8.58632812 3.6328125 9.62890625 C3.75398438 10.41136719 3.87515625 11.19382812 4 12 C2.0625 11.6875 2.0625 11.6875 0 11 C-1.16461426 7.50615721 -1.13568319 4.66344611 -1 1 C-0.67 0.67 -0.34 0.34 0 0 Z " transform="translate(103,71)" style="fill: #F0F0F0;"/><path d="M0 0 C10.08499096 8.14556962 10.08499096 8.14556962 13 13 C12.67 13.99 12.34 14.98 12 16 C10.56041153 14.41856529 9.12341355 12.83477221 7.6875 11.25 C6.88699219 10.36828125 6.08648437 9.4865625 5.26171875 8.578125 C0 2.58031088 0 2.58031088 0 0 Z " transform="translate(98,91)" style="fill: #DFDFDF;"/><path d="M0 0 C0.33 0.66 0.66 1.32 1 2 C-2.96 2 -6.92 2 -11 2 C-11 2.33 -11 2.66 -11 3 C-12.98 3 -14.96 3 -17 3 C-17.33 2.34 -17.66 1.68 -18 1 C-11.94913762 -1.28588134 -6.34616009 -1.36145995 0 0 Z " transform="translate(89,35)" style="fill: #C2C2C2;"/><path d="M0 0 C1.32 1.32 2.64 2.64 4 4 C5.65 2.68 7.3 1.36 9 0 C7.89824464 2.47894956 6.733707 4.3245446 5 6.4375 C3.06299991 8.91928137 2.01429561 11.04163782 1 14 C0.67 14 0.34 14 0 14 C0 9.38 0 4.76 0 0 Z " transform="translate(67,104)" style="fill: #5C5C5C;"/><path d="M0 0 C2.44457392 2.25044599 4.09902934 4.55801293 5.75 7.4375 C6.19859375 8.19933594 6.6471875 8.96117188 7.109375 9.74609375 C8.13203743 12.33414736 7.95772637 13.43633001 7 16 C0.29612756 5.62642369 0.29612756 5.62642369 0 0 Z " transform="translate(44,103)" style="fill: #3E3E3E;"/><path d="M0 0 C0.33 0 0.66 0 1 0 C1.33 1.65 1.66 3.3 2 5 C3.32 5 4.64 5 6 5 C6 7.64 6 10.28 6 13 C3.8614515 10.8614515 3.57344937 9.86724686 3 7 C1.68 8.65 0.36 10.3 -1 12 C-0.67 8.04 -0.34 4.08 0 0 Z " transform="translate(65,6)" style="fill: #737373;"/><path d="M0 0 C3.70503641 0.60334309 5.85968148 2.22474237 8.75 4.5625 C9.94882812 5.52349609 9.94882812 5.52349609 11.171875 6.50390625 C12.07679687 7.24447266 12.07679687 7.24447266 13 8 C12.01 8.495 12.01 8.495 11 9 C8.65234375 8.14453125 8.65234375 8.14453125 5.9375 6.8125 C5.03902344 6.38582031 4.14054687 5.95914062 3.21484375 5.51953125 C1 4 1 4 0.19140625 1.82421875 C0.12824219 1.22222656 0.06507812 0.62023437 0 0 Z " transform="translate(31,20)" style="fill: #E7E7E7;"/><path d="M0 0 C0.33 0.99 0.66 1.98 1 3 C-3.23513217 6.96189783 -7.547001 8.43181728 -13 10 C-9.97147529 6.73851185 -6.74586454 4.39097737 -3 2 C-2.01 1.34 -1.02 0.68 0 0 Z " transform="translate(119,141)" style="fill: #EEEEEE;"/><path d="M0 0 C1.43655854 -0.08131463 2.8744483 -0.13933559 4.3125 -0.1875 C5.51326172 -0.23970703 5.51326172 -0.23970703 6.73828125 -0.29296875 C9 0 9 0 10.79296875 1.38671875 C12 3 12 3 12 5 C12.66 5.33 13.32 5.66 14 6 C12.41532272 5.71572583 10.8322943 5.42225182 9.25 5.125 C8.36828125 4.96257812 7.4865625 4.80015625 6.578125 4.6328125 C4.13052256 4.03203736 2.19400143 3.22002883 0 2 C0 1.34 0 0.68 0 0 Z " transform="translate(125,111)" style="fill: #969696;"/><path d="M0 0 C3 1 3 1 4.203125 3.21484375 C4.54859375 4.11332031 4.8940625 5.01179688 5.25 5.9375 C5.60578125 6.83339844 5.9615625 7.72929688 6.328125 8.65234375 C7 11 7 11 6 13 C4.98528829 11.78294994 3.9887539 10.55073116 3 9.3125 C2.443125 8.62800781 1.88625 7.94351563 1.3125 7.23828125 C-0.22741897 4.61216944 -0.25168194 2.99396644 0 0 Z " transform="translate(97,74)" style="fill: #E9E9E9;"/><path d="M0 0 C0.62648437 0.22816406 1.25296875 0.45632812 1.8984375 0.69140625 C2.71570312 0.97886719 3.53296875 1.26632813 4.375 1.5625 C5.18710937 1.85253906 5.99921875 2.14257812 6.8359375 2.44140625 C9.02767749 3.25973028 9.02767749 3.25973028 11 2 C13.03144641 2.93446535 15.03533587 3.93224776 17 5 C14.69354635 6.4434948 13.54480989 7.09746152 10.81640625 6.609375 C10.07261719 6.32578125 9.32882813 6.0421875 8.5625 5.75 C7.78132813 5.45996094 7.00015625 5.16992188 6.1953125 4.87109375 C5.47085938 4.58363281 4.74640625 4.29617187 4 4 C2.4840625 3.4121875 2.4840625 3.4121875 0.9375 2.8125 C0.298125 2.544375 -0.34125 2.27625 -1 2 C-0.67 1.34 -0.34 0.68 0 0 Z " transform="translate(34,25)" style="fill: #7E7E7E;"/><path d="M0 0 C1.32 0 2.64 0 4 0 C4 0.66 4 1.32 4 2 C5.32 2 6.64 2 8 2 C8 3.65 8 5.3 8 7 C8.66 7.33 9.32 7.66 10 8 C8.68 9.32 7.36 10.64 6 12 C5.34 11.67 4.68 11.34 4 11 C4.66 10.01 5.32 9.02 6 8 C6.38499891 6.34450469 6.72793135 4.6777567 7 3 C5.35 3.66 3.7 4.32 2 5 C2.33 3.68 2.66 2.36 3 1 C1.68 1.33 0.36 1.66 -1 2 C-0.67 1.34 -0.34 0.68 0 0 Z " transform="translate(77,9)" style="fill: #777777;"/><path d="M0 0 C0.99 0 1.98 0 3 0 C3.23509196 4.81938524 2.45184478 8.46298506 1 13 C-1.32845886 9.36178302 -1.23553948 6.23971058 -1 2 C-0.67 1.34 -0.34 0.68 0 0 Z " transform="translate(57,6)" style="fill: #F3F3F3;"/><path d="M0 0 C5.92863717 1.16651426 11.38798394 2.75519358 17 5 C17 5.66 17 6.32 17 7 C13.26915971 6.33961404 9.81602029 5.33952078 6.25 4.0625 C5.28578125 3.72347656 4.3215625 3.38445313 3.328125 3.03515625 C1 2 1 2 0 0 Z " transform="translate(40,35)" style="fill: #E4E4E4;"/><path d="M0 0 C0.66 0.33 1.32 0.66 2 1 C2 1.66 2 2.32 2 3 C2.33 3.66 2.66 4.32 3 5 C1.3789897 5.69685498 -0.24696066 6.38222861 -1.875 7.0625 C-2.77992188 7.44535156 -3.68484375 7.82820313 -4.6171875 8.22265625 C-7 9 -7 9 -9 8 C-8.51789063 7.67386719 -8.03578125 7.34773438 -7.5390625 7.01171875 C-6.59160156 6.35623047 -6.59160156 6.35623047 -5.625 5.6875 C-4.99851563 5.25824219 -4.37203125 4.82898438 -3.7265625 4.38671875 C-1.73621155 2.93079661 -1.73621155 2.93079661 0 0 Z " transform="translate(134,87)" style="fill: #5E5E5E;"/><path d="M0 0 C1.87978657 2.73177617 2.01655381 3.88384275 1.5390625 7.234375 C1.23742187 8.39453125 0.93578125 9.5546875 0.625 10.75 C0.32851562 11.92046875 0.03203125 13.0909375 -0.2734375 14.296875 C-0.51320313 15.18890625 -0.75296875 16.0809375 -1 17 C-3.48213736 13.27679395 -2.99417971 12.22070903 -2.1875 7.9375 C-1.99542969 6.87402344 -1.80335937 5.81054688 -1.60546875 4.71484375 C-1 2 -1 2 0 0 Z " transform="translate(101,189)" style="fill: #545454;"/><path d="M0 0 C-0.37596209 2.78211944 -0.67318459 4.5879284 -2.4375 6.8125 C-4 8 -4 8 -6 8 C-5.6875 5.125 -5.6875 5.125 -5 2 C-2 0 -2 0 0 0 Z " transform="translate(129,74)" style="fill: #F2F2F2;"/><path d="M0 0 C0.33 0 0.66 0 1 0 C1.05383848 2.45862401 1.09359038 4.9160755 1.125 7.375 C1.14175781 8.07367188 1.15851563 8.77234375 1.17578125 9.4921875 C1.19344267 11.32897486 1.10303261 13.16601963 1 15 C0.34 15.66 -0.32 16.32 -1 17 C-3 14 -3 14 -2.625 11.3125 C-2.41875 10.549375 -2.2125 9.78625 -2 9 C-1.67 9 -1.34 9 -1 9 C-0.67 6.03 -0.34 3.06 0 0 Z " transform="translate(92,181)" style="fill: #666666;"/><path d="M0 0 C5.22245322 7.83367983 5.22245322 7.83367983 4.58203125 11.19140625 C4.38996094 11.78824219 4.19789062 12.38507813 4 13 C-1.05908096 5.9452954 -1.05908096 5.9452954 -0.8125 2 C-0.544375 1.34 -0.27625 0.68 0 0 Z " transform="translate(85,179)" style="fill: #4D4D4D;"/><path d="M0 0 C0.33 0.99 0.66 1.98 1 3 C-0.65234375 5.48046875 -0.65234375 5.48046875 -2.9375 8.1875 C-3.68902344 9.08855469 -4.44054687 9.98960938 -5.21484375 10.91796875 C-5.80394531 11.60503906 -6.39304687 12.29210937 -7 13 C-7.33 12.01 -7.66 11.02 -8 10 C-6.6015625 7.7734375 -6.6015625 7.7734375 -4.625 5.375 C-3.97789063 4.57835938 -3.33078125 3.78171875 -2.6640625 2.9609375 C-1.80501859 1.94863693 -0.93880479 0.93880479 0 0 Z " transform="translate(126,82)" style="fill: #DCDCDC;"/><path d="M0 0 C-0.41421969 4.83256305 -2.46413986 6.82679218 -6 10 C-5.38909774 3.52443609 -5.38909774 3.52443609 -3.5625 1.0625 C-2 0 -2 0 0 0 Z " transform="translate(133,77)" style="fill: #E7E7E7;"/><path d="M0 0 C2.31 0.66 4.62 1.32 7 2 C6.75 4.375 6.75 4.375 6 7 C3.9375 8.3125 3.9375 8.3125 2 9 C2 6.37886292 2.31292445 4.49064888 3 2 C2.01 2 1.02 2 0 2 C0 1.34 0 0.68 0 0 Z " transform="translate(130,75)" style="fill: #B4B4B4;"/><path d="M0 0 C1.68437744 0.62056011 3.35008418 1.29289322 5 2 C6.32676508 2.35858516 7.65835921 2.7018576 9 3 C9 3.66 9 4.32 9 5 C6.08517222 5.80967438 4.53886783 6.21845993 1.6875 5.0625 C1.130625 4.711875 0.57375 4.36125 0 4 C0 3.34 0 2.68 0 2 C-0.66 1.67 -1.32 1.34 -2 1 C-1.34 0.67 -0.68 0.34 0 0 Z " transform="translate(50,31)" style="fill: #6B6B6B;"/><path d="M0 0 C3.28788824 3.11016455 5.83735988 6.01618925 8 10 C7.01 10.33 6.02 10.66 5 11 C4.15841464 9.73461631 3.32700252 8.46246221 2.5 7.1875 C1.80390625 6.12595703 1.80390625 6.12595703 1.09375 5.04296875 C0 3 0 3 0 0 Z " transform="translate(49,172)" style="fill: #484848;"/><path d="M0 0 C-3.14930893 1.04976964 -5.38814456 1.10131595 -8.6875 1.0625 C-9.68136719 1.05347656 -10.67523438 1.04445313 -11.69921875 1.03515625 C-12.83810547 1.01775391 -12.83810547 1.01775391 -14 1 C-14 0.01 -14 -0.98 -14 -2 C-8.34264585 -3.55577239 -5.20333134 -2.24281523 0 0 Z " transform="translate(130,111)" style="fill: #656565;"/><path d="M0 0 C-1.98 0.99 -1.98 0.99 -4 2 C-3.34 2.66 -2.68 3.32 -2 4 C-3.45922693 3.88590407 -4.91740598 3.75834456 -6.375 3.625 C-7.59316406 3.52058594 -7.59316406 3.52058594 -8.8359375 3.4140625 C-11 3 -11 3 -13 1 C-11.39796533 0.63631108 -9.79325797 0.28438048 -8.1875 -0.0625 C-7.29417969 -0.25972656 -6.40085938 -0.45695312 -5.48046875 -0.66015625 C-3 -1 -3 -1 0 0 Z " transform="translate(153,105)" style="fill: #646464;"/><path d="M0 0 C1 3 1 3 -0.25 5.5 C-1.71506287 7.59294696 -3.11419479 9.29379528 -5 11 C-5.68359375 9.234375 -5.68359375 9.234375 -6 7 C-4.78515625 5.078125 -4.78515625 5.078125 -3.0625 3.25 C-2.49660156 2.63640625 -1.93070312 2.0228125 -1.34765625 1.390625 C-0.90292969 0.93171875 -0.45820312 0.4728125 0 0 Z " transform="translate(126,85)" style="fill: #7A7A7A;"/><path d="M0 0 C4.38889325 0.66498383 7.9811485 2.18757677 12 4 C8.39539332 5.20153556 5.54729184 5.37314523 2 4 C0.75 1.9375 0.75 1.9375 0 0 Z " transform="translate(33,27)" style="fill: #EEEEEE;"/><path d="M0 0 C2.97 0.495 2.97 0.495 6 1 C5.34 2.65 4.68 4.3 4 6 C1.03 5.505 1.03 5.505 -2 5 C-1.34 4.01 -0.68 3.02 0 2 C0 1.34 0 0.68 0 0 Z " transform="translate(140,85)" style="fill: #C7C7C7;"/><path d="M0 0 C0.66 0.66 1.32 1.32 2 2 C-0.64 4.97 -3.28 7.94 -6 11 C-6.33 10.34 -6.66 9.68 -7 9 C-6.328125 7.08984375 -6.328125 7.08984375 -5.25 4.9375 C-4.90453125 4.22464844 -4.5590625 3.51179688 -4.203125 2.77734375 C-3 1 -3 1 0 0 Z " transform="translate(72,16)" style="fill: #565656;"/><path d="M0 0 C0.66 0.66 1.32 1.32 2 2 C1.52949219 2.53109375 1.05898437 3.0621875 0.57421875 3.609375 C-0.35970703 4.66898438 -0.35970703 4.66898438 -1.3125 5.75 C-2.23482422 6.79414063 -2.23482422 6.79414063 -3.17578125 7.859375 C-4.87314734 9.85114506 -6.45477809 11.88898915 -8 14 C-7.47298744 8.2028618 -3.99891385 3.99891385 0 0 Z " transform="translate(133,176)" style="fill: #7A7A7A;"/><path d="M0 0 C0.66 0.33 1.32 0.66 2 1 C-3.01265823 7.40506329 -3.01265823 7.40506329 -7 9 C-8.485 9.99 -8.485 9.99 -10 11 C-8.55218207 7.55571735 -6.72305391 5.63869038 -3.875 3.25 C-3.15054688 2.63640625 -2.42609375 2.0228125 -1.6796875 1.390625 C-0.84824219 0.70226562 -0.84824219 0.70226562 0 0 Z " transform="translate(130,178)" style="fill: #E3E3E3;"/><path d="M0 0 C1.9375 0.3125 1.9375 0.3125 4 1 C6.68149993 0.61432869 6.68149993 0.61432869 9 0 C9.33 0.66 9.66 1.32 10 2 C5.07262981 3.97094808 1.21979128 4.1799928 -4 4 C-2.25 1.9375 -2.25 1.9375 0 0 Z " transform="translate(72,31)" style="fill: #888888;"/></svg>